;TYPE=PLATED
;Layer: PTH_Through
;EasyEDA Pro v2.2.47.7, 2026-05-23 17:09:59
;Gerber Generator version 0.3
M48
METRIC,LZ,0000.00000
;Hole size 1 = 0.30500 METRIC
T01C0.30500
;Hole size 2 = 0.60000 METRIC
T02C0.60000
;Hole size 3 = 0.70002 METRIC
T03C0.70002
%
G05
G90
T01
X46.99Y86.995
X28.194Y86.868
X18.542Y78.867
X24.765Y76.073
X24.257Y69.977
X23.49398Y67.564
X31.115Y67.691
X39.56202Y67.183
X49.657Y59.817
X37.465Y58.10098
X49.149Y66.51105
X48.641Y67.97275
X49.403Y70.358
X48.768Y71.1556
X42.799Y84.89798
X40.513Y70.104
X46.101Y71.74408
T02
X18.91204Y77.09593G85X18.01204Y77.09593
X18.91203Y68.44591G85X18.012Y68.44591
X14.56197Y77.09599G85X13.96197Y77.09599
X14.56197Y68.44601G85X13.96197Y68.44601
X40.73543Y56.4682G85X40.73543Y55.5682
X49.38545Y56.46819G85X49.38545Y55.56817
X40.73538Y52.11814G85X40.73538Y51.51814
X49.38535Y52.11814G85X49.38535Y51.51814
X27.04407Y56.50404G85X27.04407Y55.60404
X35.69409Y56.50403G85X35.69409Y55.604
X27.04402Y52.15397G85X27.04402Y51.55397
X35.69399Y52.15397G85X35.69399Y51.55397
T03
X27.45892Y95.95098G85X27.45892Y97.75095
X40.35908Y95.95098G85X40.35908Y97.75095
X46.25492Y95.95098G85X46.25492Y97.75095
X59.15508Y95.95098G85X59.15508Y97.75095
M30