G04 Layer: DrillDrawingLayer*
G04 EasyEDA Pro v2.2.47.7, 2026-05-23 17:09:58*
G04 Gerber Generator version 0.3*
G04 Scale: 100 percent, Rotated: No, Reflected: No*
G04 Dimensions in millimeters*
G04 Leading zeros omitted, absolute positions, 4 integers and 5 decimals*
G04 Generated by one-click*
G04 Object Configs: Pad,Via,Track,Text,Image,Dimension,BoardOutline,BoardCutout,CopperFilled,SolidRegion,FPCStiffener,Line,PlaneZone,ComponentProperty,ComponentSilkscreen,TearDrop*
G04 Layer Configs: 1,2,3,4,5,6,7,8,9,10,11,13,14,56*
G04 Copper Areas: 0*
%FSLAX45Y45*%
%MOMM*%
%AMIconRect*4,1,4,0.28,-0.28,-0.28,-0.28,-0.28,0.28,0.28,0.28,0.28,-0.28,0*4,0,4,0.233333,-0.233333,0.233333,0.233333,-0.233333,0.233333,-0.233333,-0.233333,0.233333,-0.233333,0*%
%AMIconTriangle*4,1,3,-0.339593,0.240473,0.339593,0.240473,0,-0.37884,-0.339593,0.240473,0*4,0,3,-0.265673,0.19404,0,-0.27342,0.266233,0.19404,-0.265673,0.19404,0*%
%AMIconStar6*4,1,12,0.12068,0.20888,0.298527,0.172713,0.241313,0,0.298527,-0.17206,0.12068,-0.208227,0,-0.344073,-0.120073,-0.208227,-0.298573,-0.17206,-0.240707,0,-0.298573,0.17206,-0.120073,0.20888,0,0.344073,0.12068,0.20888,0*4,0,12,-0.000467,0.273467,-0.090067,0.171733,-0.237533,0.136733,-0.193667,-0.007467,-0.237533,-0.1372,-0.090067,-0.171733,-0.000467,-0.273933,0.090067,-0.171733,0.237533,-0.1372,0.194133,0.007,0.237533,0.1372,0.090067,0.171267,-0.000467,0.273467,0*%
%AMIconStar4*4,1,8,-0.311733,0.311733,0,0.202533,0.311733,0.311733,0.202533,0,0.311733,-0.311733,0,-0.202533,-0.304407,-0.311733,-0.202533,0,-0.311733,0.311733,0*4,0,8,0.233333,-0.233333,0.1512,0,0.233333,0.233333,0,0.1512,-0.233333,0.233333,-0.1512,0,-0.233333,-0.233333,0,-0.1512,0.233333,-0.233333,0*%
%AMIconPlus*4,1,12,0.1736,-0.28,-0.1736,-0.28,-0.1736,-0.1736,-0.28,-0.1736,-0.28,0.1736,-0.1736,0.1736,-0.1736,0.28,0.1736,0.28,0.1736,0.1736,0.28,0.1736,0.28,-0.1736,0.1736,-0.1736,0.1736,-0.28,0*4,0,12,0.126933,-0.233333,0.126933,-0.126933,0.233333,-0.126933,0.233333,0.126933,0.126933,0.126933,0.126933,0.233333,-0.126933,0.233333,-0.126933,0.126933,-0.233333,0.126933,-0.233333,-0.126933,-0.126933,-0.126933,-0.126933,-0.233333,0.126933,-0.233333,0*%
%ADD10IconRect*%
%ADD11C,0.616X0.522667*%
%ADD12IconTriangle*%
%ADD13IconStar6*%
%ADD14IconStar4*%
%ADD15IconPlus*%
G75*


G04 Drill Drawing Start*
G54D10*
G01X2095500Y9105900D03*
G01X5434211Y5909501D03*
G01X5435600Y8255000D03*
G54D11*
G01X2745892Y9685096D03*
G01X4035908Y9685096D03*
G01X4625492Y9685096D03*
G01X5915508Y9685096D03*
G54D12*
G01X1846212Y6844602D03*
G01X1846212Y7709599D03*
G01X2704402Y5605412D03*
G01X3569399Y5605412D03*
G01X4073538Y5601828D03*
G01X4938535Y5601828D03*
G54D13*
G01X1426197Y6844602D03*
G01X1426197Y7709599D03*
G01X2704402Y5185397D03*
G01X3569399Y5185397D03*
G01X4073538Y5181814D03*
G01X4938535Y5181814D03*
G54D14*
G01X1794193Y6988086D03*
G01X1794193Y7566089D03*
G01X2847912Y5553393D03*
G01X3425914Y5553393D03*
G01X4217048Y5549809D03*
G01X4795050Y5549809D03*
G54D15*
G01X1854200Y7886700D03*
G01X2349398Y6756400D03*
G01X2425700Y6997700D03*
G01X2476500Y7607300D03*
G01X2819400Y8686800D03*
G01X3111500Y6769100D03*
G01X3746500Y5810098D03*
G01X3956202Y6718300D03*
G01X4051300Y7010400D03*
G01X4279900Y8489798D03*
G01X4610100Y7174408D03*
G01X4699000Y8699500D03*
G01X4864100Y6797275D03*
G01X4876800Y7115560D03*
G01X4914900Y6651105D03*
G01X4940300Y7035800D03*
G01X4965700Y5981700D03*
G04 Drill Drawing End*

M02*

