G04 Layer: TopLayer*
G04 EasyEDA Pro v2.2.47.7, 2026-05-23 17:09:58*
G04 Gerber Generator version 0.3*
G04 Scale: 100 percent, Rotated: No, Reflected: No*
G04 Dimensions in millimeters*
G04 Leading zeros omitted, absolute positions, 4 integers and 5 decimals*
G04 Generated by one-click*
G04 Object Configs: Pad,Via,Track,Text,Image,Dimension,BoardOutline,BoardCutout,CopperFilled,SolidRegion,FPCStiffener,Line,PlaneZone,ComponentProperty,ComponentSilkscreen,TearDrop*
G04 Layer Configs: 1,2,3,4,5,6,7,8,9,10,11,13,14,56*
G04 Copper Areas: 45*
%FSLAX45Y45*%
%MOMM*%
%ADD10C,0.2032*%
%ADD11C,0.254*%
%ADD12R,1.2X0.25001*%
%ADD13R,1.1X0.55001*%
%ADD14R,1.1X0.3*%
%ADD15O,2.0X1.1*%
%ADD16O,1.8X1.2*%
%ADD17R,0.5591X1.1*%
%ADD18R,0.55001X1.1*%
%ADD19R,0.3X1.1*%
%ADD20O,1.1X2.0*%
%ADD21O,1.2X1.8*%
%ADD22R,1.11999X2.88*%
%ADD23O,1.2X3.09999*%
%ADD24R,0.8X0.9*%
%ADD25R,0.9X0.8*%
%ADD26R,0.80648X0.86401*%
%ADD27R,0.86401X0.80648*%
%ADD28R,0.5X0.54*%
%ADD29C,0.61*%
G75*


G04 Copper Start*
G36*
G01X2778513Y9870186D02*
G01X4003287Y9870186D01*
G01X3985721Y9861714D01*
G01X3970233Y9849861D01*
G01X3957467Y9835118D01*
G01X3947951Y9818095D01*
G01X3942079Y9799497D01*
G01X3940094Y9780096D01*
G01X3940094Y9590096D01*
G01X3941935Y9571404D01*
G01X3947387Y9553430D01*
G01X3956241Y9536865D01*
G01X3968157Y9522346D01*
G01X3982676Y9510430D01*
G01X3999241Y9501576D01*
G01X4017215Y9496124D01*
G01X4035908Y9494283D01*
G01X4054600Y9496124D01*
G01X4072574Y9501576D01*
G01X4089139Y9510430D01*
G01X4103658Y9522346D01*
G01X4115574Y9536865D01*
G01X4124428Y9553430D01*
G01X4129880Y9571404D01*
G01X4131721Y9590096D01*
G01X4131721Y9780096D01*
G01X4129737Y9799497D01*
G01X4123864Y9818095D01*
G01X4114348Y9835118D01*
G01X4101582Y9849861D01*
G01X4086095Y9861714D01*
G01X4068528Y9870186D01*
G01X4592872Y9870186D01*
G01X4575305Y9861714D01*
G01X4559818Y9849861D01*
G01X4547052Y9835118D01*
G01X4537536Y9818095D01*
G01X4531663Y9799497D01*
G01X4529679Y9780096D01*
G01X4529679Y9590096D01*
G01X4531114Y9573574D01*
G01X4535377Y9557546D01*
G01X4542340Y9542494D01*
G01X4551795Y9528868D01*
G01X4563457Y9517076D01*
G01X4576978Y9507473D01*
G01X4576978Y9101125D01*
G01X4578631Y9088568D01*
G01X4583478Y9076868D01*
G01X4591188Y9066820D01*
G01X4828700Y8829308D01*
G01X4828700Y8782900D01*
G01X4793814Y8748014D01*
G01X4744210Y8748014D01*
G01X4731839Y8757112D01*
G01X4717706Y8763121D01*
G01X4702571Y8765718D01*
G01X4687244Y8764764D01*
G01X4672547Y8760310D01*
G01X4659269Y8752594D01*
G01X4648122Y8742032D01*
G01X4639703Y8729189D01*
G01X4634464Y8714753D01*
G01X4632686Y8699500D01*
G01X4634464Y8684247D01*
G01X4639703Y8669811D01*
G01X4648122Y8656968D01*
G01X4659269Y8646406D01*
G01X4672547Y8638690D01*
G01X4687244Y8634236D01*
G01X4702571Y8633282D01*
G01X4717706Y8635879D01*
G01X4731839Y8641888D01*
G01X4744210Y8650986D01*
G01X4813910Y8650986D01*
G01X4821923Y8651652D01*
G01X4829716Y8653633D01*
G01X4834397Y8642724D01*
G01X4842386Y8633943D01*
G01X4852807Y8628257D01*
G01X4864514Y8626290D01*
G01X4976513Y8626290D01*
G01X4987580Y8628042D01*
G01X4997564Y8633129D01*
G01X5005487Y8641053D01*
G01X5010574Y8651036D01*
G01X5012327Y8662104D01*
G01X5012327Y8950104D01*
G01X5010574Y8961171D01*
G01X5005487Y8971155D01*
G01X4997564Y8979078D01*
G01X4987580Y8984165D01*
G01X4976513Y8985918D01*
G01X4864514Y8985918D01*
G01X4854116Y8984375D01*
G01X4844614Y8979880D01*
G01X4836826Y8972820D01*
G01X4831423Y8963803D01*
G01X4674006Y9121220D01*
G01X4674006Y9507473D01*
G01X4687528Y9517076D01*
G01X4699190Y9528868D01*
G01X4708645Y9542494D01*
G01X4715608Y9557546D01*
G01X4719871Y9573574D01*
G01X4721306Y9590096D01*
G01X4721306Y9780096D01*
G01X4719321Y9799497D01*
G01X4713449Y9818095D01*
G01X4703933Y9835118D01*
G01X4691167Y9849861D01*
G01X4675679Y9861714D01*
G01X4658113Y9870186D01*
G01X5882887Y9870186D01*
G01X5865321Y9861714D01*
G01X5849833Y9849861D01*
G01X5837067Y9835118D01*
G01X5827551Y9818095D01*
G01X5821679Y9799497D01*
G01X5819694Y9780096D01*
G01X5819694Y9590096D01*
G01X5821535Y9571404D01*
G01X5826987Y9553430D01*
G01X5835841Y9536865D01*
G01X5847757Y9522346D01*
G01X5862276Y9510430D01*
G01X5878841Y9501576D01*
G01X5896815Y9496124D01*
G01X5915508Y9494283D01*
G01X5934200Y9496124D01*
G01X5952174Y9501576D01*
G01X5968739Y9510430D01*
G01X5983258Y9522346D01*
G01X5995174Y9536865D01*
G01X6004028Y9553430D01*
G01X6009480Y9571404D01*
G01X6011321Y9590096D01*
G01X6011321Y9780096D01*
G01X6009337Y9799497D01*
G01X6003464Y9818095D01*
G01X5993948Y9835118D01*
G01X5981182Y9849861D01*
G01X5965695Y9861714D01*
G01X5948128Y9870186D01*
G01X6060186Y9870186D01*
G01X6060186Y6009235D01*
G01X5052465Y5001514D01*
G01X2300835Y5001514D01*
G01X2086951Y5215397D01*
G01X2608588Y5215397D01*
G01X2608588Y5155397D01*
G01X2610429Y5136705D01*
G01X2615881Y5118731D01*
G01X2624735Y5102166D01*
G01X2636651Y5087647D01*
G01X2651170Y5075731D01*
G01X2667735Y5066877D01*
G01X2685709Y5061425D01*
G01X2704402Y5059583D01*
G01X2723094Y5061425D01*
G01X2741068Y5066877D01*
G01X2757633Y5075731D01*
G01X2772152Y5087647D01*
G01X2784068Y5102166D01*
G01X2792922Y5118731D01*
G01X2798374Y5136705D01*
G01X2800215Y5155397D01*
G01X2800215Y5215397D01*
G01X3473585Y5215397D01*
G01X3473585Y5155397D01*
G01X3475426Y5136705D01*
G01X3480878Y5118731D01*
G01X3489732Y5102166D01*
G01X3501648Y5087647D01*
G01X3516167Y5075731D01*
G01X3532732Y5066877D01*
G01X3550706Y5061425D01*
G01X3569399Y5059583D01*
G01X3588091Y5061425D01*
G01X3606065Y5066877D01*
G01X3622630Y5075731D01*
G01X3637149Y5087647D01*
G01X3649065Y5102166D01*
G01X3657919Y5118731D01*
G01X3663371Y5136705D01*
G01X3665212Y5155397D01*
G01X3665212Y5211813D01*
G01X3977724Y5211813D01*
G01X3977724Y5151814D01*
G01X3979565Y5133121D01*
G01X3985017Y5115147D01*
G01X3993871Y5098582D01*
G01X4005787Y5084063D01*
G01X4020306Y5072147D01*
G01X4036871Y5063293D01*
G01X4054845Y5057841D01*
G01X4073538Y5056000D01*
G01X4092230Y5057841D01*
G01X4110204Y5063293D01*
G01X4126769Y5072147D01*
G01X4141288Y5084063D01*
G01X4153204Y5098582D01*
G01X4162058Y5115147D01*
G01X4167510Y5133121D01*
G01X4169352Y5151814D01*
G01X4169352Y5211813D01*
G01X4842721Y5211813D01*
G01X4842721Y5151814D01*
G01X4844562Y5133121D01*
G01X4850014Y5115147D01*
G01X4858868Y5098582D01*
G01X4870784Y5084063D01*
G01X4885303Y5072147D01*
G01X4901868Y5063293D01*
G01X4919842Y5057841D01*
G01X4938535Y5056000D01*
G01X4957227Y5057841D01*
G01X4975201Y5063293D01*
G01X4991766Y5072147D01*
G01X5006285Y5084063D01*
G01X5018201Y5098582D01*
G01X5027055Y5115147D01*
G01X5032507Y5133121D01*
G01X5034349Y5151814D01*
G01X5034349Y5211813D01*
G01X5032507Y5230506D01*
G01X5027055Y5248480D01*
G01X5018201Y5265045D01*
G01X5006285Y5279564D01*
G01X4991766Y5291480D01*
G01X4975201Y5300334D01*
G01X4957227Y5305786D01*
G01X4938535Y5307627D01*
G01X4919842Y5305786D01*
G01X4901868Y5300334D01*
G01X4885303Y5291480D01*
G01X4870784Y5279564D01*
G01X4858868Y5265045D01*
G01X4850014Y5248480D01*
G01X4844562Y5230506D01*
G01X4842721Y5211813D01*
G01X4842721Y5211813D01*
G01X4169352Y5211813D01*
G01X4167510Y5230506D01*
G01X4162058Y5248480D01*
G01X4153204Y5265045D01*
G01X4141288Y5279564D01*
G01X4126769Y5291480D01*
G01X4110204Y5300334D01*
G01X4092230Y5305786D01*
G01X4073538Y5307627D01*
G01X4054845Y5305786D01*
G01X4036871Y5300334D01*
G01X4020306Y5291480D01*
G01X4005787Y5279564D01*
G01X3993871Y5265045D01*
G01X3985017Y5248480D01*
G01X3979565Y5230506D01*
G01X3977724Y5211813D01*
G01X3977724Y5211813D01*
G01X3665212Y5211813D01*
G01X3665212Y5215397D01*
G01X3663371Y5234090D01*
G01X3657919Y5252064D01*
G01X3649065Y5268629D01*
G01X3637149Y5283148D01*
G01X3622630Y5295064D01*
G01X3606065Y5303918D01*
G01X3588091Y5309370D01*
G01X3569399Y5311211D01*
G01X3550706Y5309370D01*
G01X3532732Y5303918D01*
G01X3516167Y5295064D01*
G01X3501648Y5283148D01*
G01X3489732Y5268629D01*
G01X3480878Y5252064D01*
G01X3475426Y5234090D01*
G01X3473585Y5215397D01*
G01X3473585Y5215397D01*
G01X2800215Y5215397D01*
G01X2798374Y5234090D01*
G01X2792922Y5252064D01*
G01X2784068Y5268629D01*
G01X2772152Y5283148D01*
G01X2757633Y5295064D01*
G01X2741068Y5303918D01*
G01X2723094Y5309370D01*
G01X2704402Y5311211D01*
G01X2685709Y5309370D01*
G01X2667735Y5303918D01*
G01X2651170Y5295064D01*
G01X2636651Y5283148D01*
G01X2624735Y5268629D01*
G01X2615881Y5252064D01*
G01X2610429Y5234090D01*
G01X2608588Y5215397D01*
G01X2608588Y5215397D01*
G01X2086951Y5215397D01*
G01X1396849Y5905500D01*
G01X1993646Y5905500D01*
G01X1995523Y5893648D01*
G01X2000971Y5882956D01*
G01X2009456Y5874471D01*
G01X2020148Y5869023D01*
G01X2032000Y5867146D01*
G01X2043852Y5869023D01*
G01X2054544Y5874471D01*
G01X2063029Y5882956D01*
G01X2068477Y5893648D01*
G01X2070354Y5905500D01*
G01X2068477Y5917352D01*
G01X2063029Y5928044D01*
G01X2054544Y5936529D01*
G01X2043852Y5941977D01*
G01X2032000Y5943854D01*
G01X2032000Y5943854D01*
G01X2020148Y5941977D01*
G01X2009456Y5936529D01*
G01X2000971Y5928044D01*
G01X1995523Y5917352D01*
G01X1993646Y5905500D01*
G01X1396849Y5905500D01*
G01X1293114Y6009235D01*
G01X1293114Y6844602D01*
G01X1300383Y6844602D01*
G01X1302225Y6825909D01*
G01X1307677Y6807935D01*
G01X1316531Y6791370D01*
G01X1328447Y6776851D01*
G01X1342966Y6764935D01*
G01X1359531Y6756081D01*
G01X1377505Y6750629D01*
G01X1396197Y6748788D01*
G01X1456197Y6748788D01*
G01X1474890Y6750629D01*
G01X1492864Y6756081D01*
G01X1509429Y6764935D01*
G01X1523948Y6776851D01*
G01X1535864Y6791370D01*
G01X1544718Y6807935D01*
G01X1550170Y6825909D01*
G01X1552011Y6844602D01*
G01X1551327Y6851549D01*
G01X1710664Y6851549D01*
G01X1711157Y6832888D01*
G01X1715454Y6814722D01*
G01X1723375Y6797818D01*
G01X1734586Y6782892D01*
G01X1748611Y6770572D01*
G01X1764859Y6761381D01*
G01X1782643Y6755706D01*
G01X1801212Y6753788D01*
G01X1891212Y6753788D01*
G01X1908956Y6755538D01*
G01X1926016Y6760722D01*
G01X1941735Y6769139D01*
G01X1955506Y6780466D01*
G01X1966798Y6794264D01*
G01X1975177Y6810004D01*
G01X1980319Y6827077D01*
G01X1982025Y6844825D01*
G01X1980231Y6862565D01*
G01X1975005Y6879613D01*
G01X1966549Y6895311D01*
G01X1976793Y6900294D01*
G01X1984953Y6908242D01*
G01X1990205Y6918351D01*
G01X1992017Y6929598D01*
G01X1992017Y6984599D01*
G01X1991450Y6990945D01*
G01X1989767Y6997090D01*
G01X1991450Y7003236D01*
G01X1992017Y7009582D01*
G01X1992017Y7050786D01*
G01X2134922Y7050786D01*
G01X2137835Y7041063D01*
G01X2143360Y7032547D01*
G01X2151051Y7025924D01*
G01X2160292Y7021724D01*
G01X2170340Y7020286D01*
G01X2250987Y7020286D01*
G01X2260601Y7021600D01*
G01X2269509Y7025447D01*
G01X2277058Y7031544D01*
G01X2282693Y7039444D01*
G01X2286000Y7048566D01*
G01X2289307Y7039444D01*
G01X2294942Y7031544D01*
G01X2302491Y7025447D01*
G01X2311399Y7021600D01*
G01X2321013Y7020286D01*
G01X2363351Y7020286D01*
G01X2360192Y7008005D01*
G01X2359428Y6995348D01*
G01X2361087Y6982777D01*
G01X2365108Y6970752D01*
G01X2309398Y6970752D01*
G01X2297758Y6968807D01*
G01X2287382Y6963185D01*
G01X2279396Y6954495D01*
G01X2271410Y6963185D01*
G01X2261034Y6968807D01*
G01X2249394Y6970752D01*
G01X2169394Y6970752D01*
G01X2158327Y6968999D01*
G01X2148343Y6963912D01*
G01X2140420Y6955989D01*
G01X2135333Y6946005D01*
G01X2133580Y6934938D01*
G01X2133580Y6844938D01*
G01X2135333Y6833871D01*
G01X2140420Y6823887D01*
G01X2148343Y6815964D01*
G01X2158327Y6810877D01*
G01X2169394Y6809124D01*
G01X2249394Y6809124D01*
G01X2261034Y6811069D01*
G01X2271410Y6816691D01*
G01X2279396Y6825381D01*
G01X2285194Y6818541D01*
G01X2292510Y6813356D01*
G01X2300884Y6810151D01*
G01X2300884Y6801610D01*
G01X2291786Y6789239D01*
G01X2285777Y6775106D01*
G01X2283181Y6759971D01*
G01X2284135Y6744644D01*
G01X2288589Y6729947D01*
G01X2296304Y6716669D01*
G01X2306866Y6705522D01*
G01X2319710Y6697103D01*
G01X2334145Y6691864D01*
G01X2349398Y6690086D01*
G01X2364652Y6691864D01*
G01X2379087Y6697103D01*
G01X2391930Y6705522D01*
G01X2402493Y6716669D01*
G01X2410208Y6729947D01*
G01X2414662Y6744644D01*
G01X2415616Y6759971D01*
G01X2413019Y6775106D01*
G01X2407011Y6789239D01*
G01X2397912Y6801610D01*
G01X2397912Y6810151D01*
G01X2408807Y6814839D01*
G01X2417572Y6822828D01*
G01X2423249Y6833242D01*
G01X2425212Y6844938D01*
G01X2425212Y6897700D01*
G01X2957874Y6897700D01*
G01X2957874Y6843700D01*
G01X2959627Y6832633D01*
G01X2964714Y6822649D01*
G01X2972638Y6814726D01*
G01X2982621Y6809639D01*
G01X2993688Y6807886D01*
G01X3043688Y6807886D01*
G01X3052461Y6808977D01*
G01X3060700Y6812184D01*
G01X3060967Y6812041D01*
G01X3060967Y6812041D01*
G01X3052514Y6799402D01*
G01X3047162Y6785169D01*
G01X3045193Y6770091D01*
G01X3046711Y6754961D01*
G01X3051635Y6740574D01*
G01X3059706Y6727688D01*
G01X3070501Y6716978D01*
G01X3083452Y6709010D01*
G01X3097877Y6704200D01*
G01X3113019Y6702803D01*
G01X3128080Y6704892D01*
G01X3142270Y6710357D01*
G01X3154842Y6718910D01*
G01X3165135Y6730103D01*
G01X3172609Y6743345D01*
G01X3176869Y6757942D01*
G01X3177692Y6773126D01*
G01X3175035Y6788098D01*
G01X3169037Y6802071D01*
G01X3160014Y6814310D01*
G01X3160014Y6828234D01*
G01X3162637Y6835770D01*
G01X3163526Y6843700D01*
G01X3163526Y6897700D01*
G01X3162686Y6903000D01*
G01X3740384Y6903000D01*
G01X3740384Y6813000D01*
G01X3742137Y6801933D01*
G01X3747224Y6791949D01*
G01X3755147Y6784026D01*
G01X3765131Y6778939D01*
G01X3776198Y6777186D01*
G01X3856198Y6777186D01*
G01X3867838Y6779131D01*
G01X3878214Y6784753D01*
G01X3886200Y6793443D01*
G01X3891998Y6786603D01*
G01X3899314Y6781418D01*
G01X3907688Y6778213D01*
G01X3907688Y6763510D01*
G01X3898590Y6751139D01*
G01X3892581Y6737006D01*
G01X3889985Y6721871D01*
G01X3890939Y6706544D01*
G01X3895393Y6691847D01*
G01X3903108Y6678569D01*
G01X3913670Y6667422D01*
G01X3926514Y6659003D01*
G01X3940949Y6653764D01*
G01X3956202Y6651986D01*
G01X3971456Y6653764D01*
G01X3985891Y6659003D01*
G01X3998734Y6667422D01*
G01X4009297Y6678569D01*
G01X4017012Y6691847D01*
G01X4021466Y6706544D01*
G01X4022420Y6721871D01*
G01X4019823Y6737006D01*
G01X4013815Y6751139D01*
G01X4004716Y6763510D01*
G01X4004716Y6778213D01*
G01X4015611Y6782901D01*
G01X4024376Y6790890D01*
G01X4030053Y6801304D01*
G01X4032016Y6813000D01*
G01X4032016Y6903000D01*
G01X4030263Y6914067D01*
G01X4025176Y6924051D01*
G01X4017253Y6931974D01*
G01X4007269Y6937061D01*
G01X3996202Y6938814D01*
G01X3916202Y6938814D01*
G01X3904562Y6936869D01*
G01X3894186Y6931247D01*
G01X3886200Y6922557D01*
G01X3878214Y6931247D01*
G01X3867838Y6936869D01*
G01X3856198Y6938814D01*
G01X3856198Y6938814D01*
G01X3776198Y6938814D01*
G01X3765131Y6937061D01*
G01X3755147Y6931974D01*
G01X3747224Y6924051D01*
G01X3742137Y6914067D01*
G01X3740384Y6903000D01*
G01X3162686Y6903000D01*
G01X3161773Y6908767D01*
G01X3156686Y6918751D01*
G01X3148762Y6926674D01*
G01X3138779Y6931761D01*
G01X3127712Y6933514D01*
G01X3077712Y6933514D01*
G01X3068939Y6932423D01*
G01X3060700Y6929216D01*
G01X3052461Y6932423D01*
G01X3043688Y6933514D01*
G01X2993688Y6933514D01*
G01X2982621Y6931761D01*
G01X2972638Y6926674D01*
G01X2964714Y6918751D01*
G01X2959627Y6908767D01*
G01X2957874Y6897700D01*
G01X2425212Y6897700D01*
G01X2425212Y6931388D01*
G01X2440641Y6933091D01*
G01X2455250Y6938334D01*
G01X2468241Y6946829D01*
G01X2478901Y6958112D01*
G01X2486646Y6971564D01*
G01X2491052Y6986447D01*
G01X2491878Y7001947D01*
G01X2489078Y7017214D01*
G01X2482805Y7031413D01*
G01X2473404Y7043764D01*
G01X2470685Y7053102D01*
G01X2466158Y7061709D01*
G01X2460005Y7069241D01*
G01X2437474Y7091771D01*
G01X2437474Y7142500D01*
G01X2436725Y7149787D01*
G01X2434509Y7156768D01*
G01X2447553Y7156768D01*
G01X2511043Y7093278D01*
G01X2521090Y7085569D01*
G01X2532791Y7080722D01*
G01X2545347Y7079069D01*
G01X4041587Y7079069D01*
G01X4046768Y7076559D01*
G01X4031237Y7073606D01*
G01X4016847Y7067062D01*
G01X4004415Y7057297D01*
G01X3994647Y7044867D01*
G01X3988099Y7030478D01*
G01X3985142Y7014948D01*
G01X3985945Y6999160D01*
G01X3990463Y6984011D01*
G01X3998438Y6970361D01*
G01X4009417Y6958986D01*
G01X4022776Y6950534D01*
G01X4037757Y6945484D01*
G01X4053507Y6944123D01*
G01X4069131Y6946528D01*
G01X4083742Y6952564D01*
G01X4096510Y6961886D01*
G01X4145686Y6961886D01*
G01X4156921Y6963205D01*
G01X4167545Y6967089D01*
G01X4210690Y6967089D01*
G01X4220627Y6968495D01*
G01X4229783Y6972603D01*
G01X4237440Y6979090D01*
G01X4237440Y6815121D01*
G01X3827562Y6405244D01*
G01X3819853Y6395196D01*
G01X3815006Y6383495D01*
G01X3813353Y6370939D01*
G01X3813353Y5728288D01*
G01X3678926Y5593861D01*
G01X3671572Y5593861D01*
G01X3660212Y5592512D01*
G01X3660212Y5650412D01*
G01X3658470Y5668116D01*
G01X3653309Y5685141D01*
G01X3644929Y5700834D01*
G01X3633649Y5714591D01*
G01X3619904Y5725886D01*
G01X3604221Y5734284D01*
G01X3651800Y5734284D01*
G01X3663496Y5736247D01*
G01X3673910Y5741924D01*
G01X3681899Y5750689D01*
G01X3686587Y5761584D01*
G01X3701290Y5761584D01*
G01X3713661Y5752485D01*
G01X3727794Y5746477D01*
G01X3742929Y5743880D01*
G01X3758256Y5744834D01*
G01X3772953Y5749288D01*
G01X3786231Y5757003D01*
G01X3797378Y5767566D01*
G01X3805797Y5780409D01*
G01X3811036Y5794844D01*
G01X3812814Y5810098D01*
G01X3811036Y5825351D01*
G01X3805797Y5839786D01*
G01X3797378Y5852630D01*
G01X3786231Y5863192D01*
G01X3772953Y5870907D01*
G01X3758256Y5875361D01*
G01X3742929Y5876315D01*
G01X3727794Y5873719D01*
G01X3713661Y5867710D01*
G01X3701290Y5858612D01*
G01X3686587Y5858612D01*
G01X3683382Y5866986D01*
G01X3678197Y5874302D01*
G01X3671357Y5880100D01*
G01X3680047Y5888086D01*
G01X3685669Y5898462D01*
G01X3687614Y5910102D01*
G01X3687614Y5990102D01*
G01X3685861Y6001169D01*
G01X3680774Y6011153D01*
G01X3672851Y6019076D01*
G01X3662867Y6024163D01*
G01X3651800Y6025916D01*
G01X3561800Y6025916D01*
G01X3550733Y6024163D01*
G01X3540749Y6019076D01*
G01X3532826Y6011153D01*
G01X3527739Y6001169D01*
G01X3525986Y5990102D01*
G01X3525986Y5910102D01*
G01X3527931Y5898462D01*
G01X3533553Y5888086D01*
G01X3542243Y5880100D01*
G01X3533553Y5872114D01*
G01X3527931Y5861738D01*
G01X3525986Y5850098D01*
G01X3525986Y5770098D01*
G01X3527346Y5760324D01*
G01X3531321Y5751292D01*
G01X3537610Y5743688D01*
G01X3545736Y5738089D01*
G01X3531704Y5733033D01*
G01X3518689Y5725749D01*
G01X3513706Y5735993D01*
G01X3505758Y5744153D01*
G01X3495649Y5749405D01*
G01X3484402Y5751217D01*
G01X3429401Y5751217D01*
G01X3423055Y5750650D01*
G01X3416910Y5748967D01*
G01X3410764Y5750650D01*
G01X3404418Y5751217D01*
G01X3358282Y5751217D01*
G01X3358282Y5779377D01*
G01X3356629Y5791933D01*
G01X3351783Y5803634D01*
G01X3344073Y5813681D01*
G01X3326113Y5831642D01*
G01X3316065Y5839352D01*
G01X3304364Y5844198D01*
G01X3291808Y5845851D01*
G01X3219208Y5845851D01*
G01X3215914Y5849145D01*
G01X3215914Y5870487D01*
G01X3214600Y5880101D01*
G01X3210753Y5889009D01*
G01X3204656Y5896558D01*
G01X3196756Y5902193D01*
G01X3187634Y5905500D01*
G01X3196756Y5908807D01*
G01X3204656Y5914442D01*
G01X3210753Y5921991D01*
G01X3214600Y5930899D01*
G01X3215914Y5940513D01*
G01X3215914Y6021160D01*
G01X3214161Y6032227D01*
G01X3209074Y6042211D01*
G01X3201151Y6050134D01*
G01X3191167Y6055221D01*
G01X3180100Y6056974D01*
G01X3093700Y6056974D01*
G01X3082633Y6055221D01*
G01X3072649Y6050134D01*
G01X3064726Y6042211D01*
G01X3059639Y6032227D01*
G01X3057886Y6021160D01*
G01X3057886Y5940513D01*
G01X3059200Y5930899D01*
G01X3063047Y5921991D01*
G01X3069144Y5914442D01*
G01X3077044Y5908807D01*
G01X3086166Y5905500D01*
G01X3077044Y5902193D01*
G01X3069144Y5896558D01*
G01X3063047Y5889009D01*
G01X3059200Y5880101D01*
G01X3057886Y5870487D01*
G01X3057886Y5803832D01*
G01X3053140Y5813900D01*
G01X3046224Y5822622D01*
G01X3034374Y5834471D01*
G01X3034374Y5885200D01*
G01X3032621Y5896267D01*
G01X3027534Y5906251D01*
G01X3019611Y5914174D01*
G01X3009627Y5919261D01*
G01X2998560Y5921014D01*
G01X2917913Y5921014D01*
G01X2908299Y5919700D01*
G01X2899391Y5915853D01*
G01X2891842Y5909756D01*
G01X2886207Y5901856D01*
G01X2882900Y5892734D01*
G01X2879593Y5901856D01*
G01X2873958Y5909756D01*
G01X2866409Y5915853D01*
G01X2857501Y5919700D01*
G01X2847887Y5921014D01*
G01X2767240Y5921014D01*
G01X2756173Y5919261D01*
G01X2746189Y5914174D01*
G01X2738266Y5906251D01*
G01X2733179Y5896267D01*
G01X2731426Y5885200D01*
G01X2731426Y5798800D01*
G01X2733179Y5787733D01*
G01X2738266Y5777749D01*
G01X2746189Y5769826D01*
G01X2756173Y5764739D01*
G01X2767240Y5762986D01*
G01X2847887Y5762986D01*
G01X2857501Y5764300D01*
G01X2866409Y5768147D01*
G01X2873958Y5774244D01*
G01X2879593Y5782144D01*
G01X2882900Y5791266D01*
G01X2886207Y5782144D01*
G01X2891842Y5774244D01*
G01X2899391Y5768147D01*
G01X2908299Y5764300D01*
G01X2917913Y5762986D01*
G01X2963405Y5762986D01*
G01X2963405Y5751217D01*
G01X2946907Y5751217D01*
G01X2935658Y5749404D01*
G01X2924409Y5751217D01*
G01X2869408Y5751217D01*
G01X2863055Y5750649D01*
G01X2856903Y5748963D01*
G01X2850752Y5750649D01*
G01X2844399Y5751217D01*
G01X2789398Y5751217D01*
G01X2778151Y5749405D01*
G01X2768042Y5744153D01*
G01X2760094Y5735993D01*
G01X2755111Y5725749D01*
G01X2739413Y5734205D01*
G01X2722365Y5739431D01*
G01X2704625Y5741225D01*
G01X2686877Y5739519D01*
G01X2669804Y5734377D01*
G01X2654064Y5725998D01*
G01X2640266Y5714706D01*
G01X2628939Y5700935D01*
G01X2620522Y5685216D01*
G01X2615338Y5668156D01*
G01X2613588Y5650412D01*
G01X2613588Y5560412D01*
G01X2615507Y5541841D01*
G01X2621183Y5524055D01*
G01X2630376Y5507806D01*
G01X2642698Y5493780D01*
G01X2657627Y5482570D01*
G01X2674534Y5474650D01*
G01X2692702Y5470355D01*
G01X2711366Y5469865D01*
G01X2729734Y5473203D01*
G01X2747033Y5480226D01*
G01X2762529Y5490638D01*
G01X2775569Y5503999D01*
G01X2785601Y5519745D01*
G01X2793779Y5507737D01*
G01X2804235Y5497651D01*
G01X2816529Y5489911D01*
G01X2830145Y5484842D01*
G01X2844508Y5482659D01*
G01X2859014Y5483453D01*
G01X2873053Y5487191D01*
G01X2886034Y5493714D01*
G01X2897410Y5502750D01*
G01X2906703Y5513917D01*
G01X2913522Y5526745D01*
G01X2917579Y5540695D01*
G01X2918704Y5555180D01*
G01X2916850Y5569589D01*
G01X2924409Y5569589D01*
G01X2935658Y5571401D01*
G01X2946907Y5569589D01*
G01X2976907Y5569589D01*
G01X2986913Y5571015D01*
G01X2996919Y5569589D01*
G01X3024797Y5569589D01*
G01X3027023Y5567207D01*
G01X3051033Y5543198D01*
G01X3061080Y5535488D01*
G01X3072781Y5530642D01*
G01X3085337Y5528989D01*
G01X3118240Y5528989D01*
G01X3120503Y5517913D01*
G01X3125268Y5507661D01*
G01X3132275Y5498791D01*
G01X3174042Y5457024D01*
G01X3184090Y5449314D01*
G01X3195790Y5444468D01*
G01X3208347Y5442815D01*
G01X3321453Y5442815D01*
G01X3361701Y5402567D01*
G01X3371748Y5394857D01*
G01X3383449Y5390011D01*
G01X3396005Y5388358D01*
G01X3620570Y5388358D01*
G01X3633127Y5390011D01*
G01X3644827Y5394857D01*
G01X3654875Y5402567D01*
G01X3695123Y5442815D01*
G01X3729233Y5442815D01*
G01X3741789Y5444468D01*
G01X3753490Y5449314D01*
G01X3763538Y5457024D01*
G01X3936812Y5630298D01*
G01X3944521Y5640346D01*
G01X3949368Y5652046D01*
G01X3951021Y5664603D01*
G01X3951021Y6334010D01*
G01X4360899Y6743888D01*
G01X4368609Y6753936D01*
G01X4373455Y6765636D01*
G01X4375108Y6778193D01*
G01X4375108Y7263286D01*
G01X4396535Y7284712D01*
G01X4414896Y7284712D01*
G01X4414896Y7267901D01*
G01X4415616Y7260756D01*
G01X4417747Y7253897D01*
G01X4415616Y7247039D01*
G01X4414896Y7239893D01*
G01X4414896Y7214892D01*
G01X4415615Y7207753D01*
G01X4417742Y7200900D01*
G01X4415615Y7194047D01*
G01X4414896Y7186908D01*
G01X4414896Y7161907D01*
G01X4415616Y7154761D01*
G01X4417747Y7147903D01*
G01X4415616Y7141044D01*
G01X4414896Y7133899D01*
G01X4414896Y7108897D01*
G01X4415616Y7101752D01*
G01X4417747Y7094893D01*
G01X4415616Y7088035D01*
G01X4414896Y7080889D01*
G01X4414896Y7055888D01*
G01X4415615Y7048749D01*
G01X4417742Y7041896D01*
G01X4415615Y7035043D01*
G01X4414896Y7027904D01*
G01X4414896Y7002903D01*
G01X4416649Y6991836D01*
G01X4421736Y6981852D01*
G01X4429659Y6973929D01*
G01X4439643Y6968842D01*
G01X4450710Y6967089D01*
G01X4460849Y6967089D01*
G01X4460849Y6697503D01*
G01X4462502Y6684946D01*
G01X4467349Y6673246D01*
G01X4475058Y6663198D01*
G01X4528151Y6610105D01*
G01X4538199Y6602396D01*
G01X4549899Y6597549D01*
G01X4562456Y6595896D01*
G01X4624610Y6595896D01*
G01X4625443Y6593428D01*
G01X4591986Y6593428D01*
G01X4579429Y6591775D01*
G01X4567729Y6586928D01*
G01X4557681Y6579218D01*
G01X4401412Y6422949D01*
G01X4393702Y6412901D01*
G01X4388855Y6401200D01*
G01X4387202Y6388644D01*
G01X4387202Y5907413D01*
G01X4314748Y5907413D01*
G01X4305135Y5906098D01*
G01X4296226Y5902251D01*
G01X4288678Y5896154D01*
G01X4283043Y5888255D01*
G01X4279736Y5879132D01*
G01X4276428Y5888255D01*
G01X4270794Y5896154D01*
G01X4263245Y5902251D01*
G01X4254337Y5906098D01*
G01X4244723Y5907413D01*
G01X4164076Y5907413D01*
G01X4153008Y5905660D01*
G01X4143025Y5900573D01*
G01X4135101Y5892650D01*
G01X4130014Y5882666D01*
G01X4128262Y5871599D01*
G01X4128262Y5785198D01*
G01X4130014Y5774131D01*
G01X4135101Y5764147D01*
G01X4143025Y5756224D01*
G01X4153008Y5751137D01*
G01X4164076Y5749384D01*
G01X4244723Y5749384D01*
G01X4254337Y5750699D01*
G01X4263245Y5754545D01*
G01X4270794Y5760642D01*
G01X4276428Y5768542D01*
G01X4279736Y5777664D01*
G01X4283043Y5768542D01*
G01X4288678Y5760642D01*
G01X4296226Y5754545D01*
G01X4305135Y5750699D01*
G01X4314748Y5749384D01*
G01X4332461Y5749384D01*
G01X4332461Y5747633D01*
G01X4316043Y5747633D01*
G01X4304794Y5745820D01*
G01X4293545Y5747633D01*
G01X4238544Y5747633D01*
G01X4232191Y5747065D01*
G01X4226039Y5745379D01*
G01X4219888Y5747065D01*
G01X4213535Y5747633D01*
G01X4158534Y5747633D01*
G01X4147287Y5745821D01*
G01X4137178Y5740569D01*
G01X4129230Y5732409D01*
G01X4124247Y5722165D01*
G01X4108549Y5730621D01*
G01X4091501Y5735847D01*
G01X4073762Y5737641D01*
G01X4056013Y5735935D01*
G01X4038940Y5730793D01*
G01X4023201Y5722414D01*
G01X4009402Y5711122D01*
G01X3998075Y5697351D01*
G01X3989658Y5681633D01*
G01X3984474Y5664572D01*
G01X3982724Y5646828D01*
G01X3982724Y5556828D01*
G01X3984643Y5538257D01*
G01X3990319Y5520471D01*
G01X3999512Y5504222D01*
G01X4011834Y5490196D01*
G01X4026763Y5478986D01*
G01X4043670Y5471066D01*
G01X4061839Y5466771D01*
G01X4080502Y5466282D01*
G01X4098871Y5469619D01*
G01X4116169Y5476642D01*
G01X4131665Y5487055D01*
G01X4144705Y5500416D01*
G01X4154737Y5516161D01*
G01X4162915Y5504153D01*
G01X4173371Y5494067D01*
G01X4185666Y5486327D01*
G01X4199281Y5481259D01*
G01X4213644Y5479075D01*
G01X4228150Y5479869D01*
G01X4242189Y5483607D01*
G01X4255170Y5490131D01*
G01X4266546Y5499166D01*
G01X4275839Y5510333D01*
G01X4282658Y5523162D01*
G01X4286715Y5537112D01*
G01X4287840Y5551596D01*
G01X4285986Y5566005D01*
G01X4293545Y5566005D01*
G01X4304794Y5567818D01*
G01X4316043Y5566005D01*
G01X4346043Y5566005D01*
G01X4356049Y5567431D01*
G01X4366055Y5566005D01*
G01X4396116Y5566005D01*
G01X4403825Y5555958D01*
G01X4420169Y5539614D01*
G01X4430216Y5531905D01*
G01X4441917Y5527058D01*
G01X4454473Y5525405D01*
G01X4507586Y5525405D01*
G01X4520143Y5527058D01*
G01X4531843Y5531905D01*
G01X4541891Y5539614D01*
G01X4558235Y5555958D01*
G01X4565944Y5566005D01*
G01X4596030Y5566005D01*
G01X4606036Y5567431D01*
G01X4616042Y5566005D01*
G01X4646042Y5566005D01*
G01X4656049Y5567431D01*
G01X4666055Y5566005D01*
G01X4696055Y5566005D01*
G01X4707304Y5567818D01*
G01X4718553Y5566005D01*
G01X4726112Y5566005D01*
G01X4724257Y5551598D01*
G01X4725382Y5537115D01*
G01X4729437Y5523167D01*
G01X4736254Y5510340D01*
G01X4745544Y5499173D01*
G01X4756918Y5490137D01*
G01X4769896Y5483612D01*
G01X4783932Y5479872D01*
G01X4798436Y5479075D01*
G01X4812798Y5481254D01*
G01X4826413Y5486317D01*
G01X4838708Y5494052D01*
G01X4849166Y5504133D01*
G01X4857347Y5516136D01*
G01X4867383Y5500396D01*
G01X4880425Y5487040D01*
G01X4895922Y5476632D01*
G01X4913220Y5469614D01*
G01X4931587Y5466280D01*
G01X4950248Y5466773D01*
G01X4968414Y5471070D01*
G01X4985318Y5478992D01*
G01X5000245Y5490202D01*
G01X5012564Y5504227D01*
G01X5021755Y5520475D01*
G01X5027430Y5538259D01*
G01X5029349Y5556828D01*
G01X5029349Y5646828D01*
G01X5027598Y5664572D01*
G01X5022414Y5681633D01*
G01X5013997Y5697351D01*
G01X5002671Y5711122D01*
G01X4988872Y5722414D01*
G01X4973132Y5730793D01*
G01X4956059Y5735935D01*
G01X4938311Y5737641D01*
G01X4920571Y5735847D01*
G01X4903523Y5730621D01*
G01X4887826Y5722165D01*
G01X4882842Y5732409D01*
G01X4874894Y5740569D01*
G01X4864785Y5745821D01*
G01X4853539Y5747633D01*
G01X4798537Y5747633D01*
G01X4792191Y5747066D01*
G01X4786046Y5745384D01*
G01X4779900Y5747066D01*
G01X4773554Y5747633D01*
G01X4732033Y5747633D01*
G01X4732033Y5786772D01*
G01X4742900Y5785084D01*
G01X4832900Y5785084D01*
G01X4843967Y5786837D01*
G01X4853951Y5791924D01*
G01X4861874Y5799847D01*
G01X4866961Y5809831D01*
G01X4868714Y5820898D01*
G01X4868714Y5900898D01*
G01X4867277Y5909501D01*
G01X5395857Y5909501D01*
G01X5397734Y5897648D01*
G01X5403182Y5886957D01*
G01X5411667Y5878471D01*
G01X5422359Y5873024D01*
G01X5434211Y5871147D01*
G01X5446063Y5873024D01*
G01X5456755Y5878471D01*
G01X5465240Y5886957D01*
G01X5470688Y5897648D01*
G01X5472565Y5909501D01*
G01X5470688Y5921353D01*
G01X5465240Y5932044D01*
G01X5456755Y5940530D01*
G01X5446063Y5945977D01*
G01X5434211Y5947855D01*
G01X5422359Y5945977D01*
G01X5411667Y5940530D01*
G01X5403182Y5932044D01*
G01X5397734Y5921353D01*
G01X5395857Y5909501D01*
G01X5395857Y5909501D01*
G01X4867277Y5909501D01*
G01X4866769Y5912538D01*
G01X4861147Y5922914D01*
G01X4852457Y5930900D01*
G01X4859297Y5936698D01*
G01X4864482Y5944014D01*
G01X4867687Y5952388D01*
G01X4906216Y5952388D01*
G01X4914963Y5939000D01*
G01X4926661Y5928095D01*
G01X4940629Y5920308D01*
G01X4956056Y5916091D01*
G01X4972043Y5915690D01*
G01X4987662Y5919128D01*
G01X5002003Y5926206D01*
G01X5014233Y5936510D01*
G01X5023640Y5949443D01*
G01X5029678Y5964253D01*
G01X5031994Y5980076D01*
G01X5030455Y5995995D01*
G01X5025150Y6011082D01*
G01X5016387Y6024460D01*
G01X5004676Y6035351D01*
G01X4990698Y6043122D01*
G01X4975267Y6047320D01*
G01X4959279Y6047702D01*
G01X4946498Y6049416D01*
G01X4867687Y6049416D01*
G01X4862999Y6060311D01*
G01X4855010Y6069076D01*
G01X4844596Y6074753D01*
G01X4832900Y6076716D01*
G01X4742900Y6076716D01*
G01X4731833Y6074963D01*
G01X4721849Y6069876D01*
G01X4713926Y6061953D01*
G01X4708839Y6051969D01*
G01X4707086Y6040902D01*
G01X4707086Y5960902D01*
G01X4709031Y5949262D01*
G01X4714653Y5938886D01*
G01X4723343Y5930900D01*
G01X4714653Y5922914D01*
G01X4709031Y5912538D01*
G01X4707086Y5900898D01*
G01X4707086Y5839887D01*
G01X4701814Y5845158D01*
G01X4701814Y5895887D01*
G01X4700500Y5905501D01*
G01X4696653Y5914409D01*
G01X4690556Y5921958D01*
G01X4682656Y5927593D01*
G01X4673534Y5930900D01*
G01X4682656Y5934207D01*
G01X4690556Y5939842D01*
G01X4696653Y5947391D01*
G01X4700500Y5956299D01*
G01X4701814Y5965913D01*
G01X4701814Y6046560D01*
G01X4700061Y6057627D01*
G01X4694974Y6067611D01*
G01X4687051Y6075534D01*
G01X4677067Y6080621D01*
G01X4666000Y6082374D01*
G01X4579600Y6082374D01*
G01X4568533Y6080621D01*
G01X4558549Y6075534D01*
G01X4550626Y6067611D01*
G01X4545539Y6057627D01*
G01X4543786Y6046560D01*
G01X4543786Y5965913D01*
G01X4545100Y5956299D01*
G01X4548947Y5947391D01*
G01X4555044Y5939842D01*
G01X4562944Y5934207D01*
G01X4572066Y5930900D01*
G01X4562944Y5927593D01*
G01X4555044Y5921958D01*
G01X4548947Y5914409D01*
G01X4545100Y5905501D01*
G01X4543786Y5895887D01*
G01X4543786Y5815240D01*
G01X4545228Y5805179D01*
G01X4549438Y5795928D01*
G01X4556078Y5788233D01*
G01X4524870Y5788233D01*
G01X4524870Y6351715D01*
G01X4628915Y6455760D01*
G01X5175660Y6455760D01*
G01X5188216Y6457413D01*
G01X5199917Y6462259D01*
G01X5209964Y6469969D01*
G01X5251731Y6511736D01*
G01X5259441Y6521784D01*
G01X5264287Y6533484D01*
G01X5265941Y6546041D01*
G01X5265941Y7159935D01*
G01X5264287Y7172491D01*
G01X5259441Y7184192D01*
G01X5251731Y7194240D01*
G01X5133942Y7312029D01*
G01X5123894Y7319739D01*
G01X5112194Y7324585D01*
G01X5099637Y7326238D01*
G01X4606524Y7326238D01*
G01X4606524Y7345887D01*
G01X4605804Y7353033D01*
G01X4603672Y7359891D01*
G01X4605804Y7366750D01*
G01X4606524Y7373896D01*
G01X4606524Y7398897D01*
G01X4604771Y7409964D01*
G01X4599684Y7419948D01*
G01X4591761Y7427871D01*
G01X4581777Y7432958D01*
G01X4570710Y7434711D01*
G01X4479555Y7434711D01*
G01X4469910Y7435679D01*
G01X4372905Y7435679D01*
G01X4360349Y7434026D01*
G01X4348648Y7429180D01*
G01X4338600Y7421470D01*
G01X4251650Y7334519D01*
G01X4246504Y7328451D01*
G01X4246504Y7345887D01*
G01X4245784Y7353033D01*
G01X4243653Y7359891D01*
G01X4245784Y7366750D01*
G01X4246504Y7373896D01*
G01X4246504Y7398897D01*
G01X4246390Y7401751D01*
G01X5099639Y8255000D01*
G01X5397246Y8255000D01*
G01X5399123Y8243148D01*
G01X5404571Y8232456D01*
G01X5413056Y8223971D01*
G01X5423748Y8218523D01*
G01X5435600Y8216646D01*
G01X5447452Y8218523D01*
G01X5458144Y8223971D01*
G01X5466629Y8232456D01*
G01X5472077Y8243148D01*
G01X5473954Y8255000D01*
G01X5472077Y8266852D01*
G01X5466629Y8277544D01*
G01X5458144Y8286029D01*
G01X5447452Y8291477D01*
G01X5435600Y8293354D01*
G01X5423748Y8291477D01*
G01X5413056Y8286029D01*
G01X5404571Y8277544D01*
G01X5399123Y8266852D01*
G01X5397246Y8255000D01*
G01X5397246Y8255000D01*
G01X5099639Y8255000D01*
G01X5241585Y8396946D01*
G01X5619580Y8396946D01*
G01X5632136Y8398599D01*
G01X5643837Y8403446D01*
G01X5653884Y8411156D01*
G01X5779331Y8536602D01*
G01X5787040Y8546650D01*
G01X5791887Y8558350D01*
G01X5793540Y8570907D01*
G01X5793540Y8978494D01*
G01X5791887Y8991051D01*
G01X5787040Y9002751D01*
G01X5779331Y9012799D01*
G01X5739181Y9052949D01*
G01X5729133Y9060658D01*
G01X5717433Y9065505D01*
G01X5704876Y9067158D01*
G01X5536097Y9067158D01*
G01X5523541Y9065505D01*
G01X5511840Y9060658D01*
G01X5501792Y9052949D01*
G01X5433973Y8985129D01*
G01X5426499Y8985918D01*
G01X5314500Y8985918D01*
G01X5303433Y8984165D01*
G01X5293449Y8979078D01*
G01X5285526Y8971155D01*
G01X5280439Y8961171D01*
G01X5278686Y8950104D01*
G01X5278686Y8662104D01*
G01X5279770Y8653361D01*
G01X5282954Y8645148D01*
G01X5258046Y8645148D01*
G01X5261230Y8653361D01*
G01X5262314Y8662104D01*
G01X5262314Y8950104D01*
G01X5260561Y8961171D01*
G01X5255474Y8971155D01*
G01X5247551Y8979078D01*
G01X5237567Y8984165D01*
G01X5226500Y8985918D01*
G01X5114501Y8985918D01*
G01X5103434Y8984165D01*
G01X5093450Y8979078D01*
G01X5085527Y8971155D01*
G01X5080440Y8961171D01*
G01X5078687Y8950104D01*
G01X5078687Y8662104D01*
G01X5080440Y8651036D01*
G01X5085527Y8641053D01*
G01X5093450Y8633129D01*
G01X5103434Y8628042D01*
G01X5114501Y8626290D01*
G01X5123117Y8626290D01*
G01X5127945Y8613408D01*
G01X5136196Y8602399D01*
G01X5176265Y8562329D01*
G01X5186313Y8554620D01*
G01X5198013Y8549773D01*
G01X5210570Y8548120D01*
G01X5482674Y8548120D01*
G01X5495230Y8549773D01*
G01X5506931Y8554620D01*
G01X5516979Y8562329D01*
G01X5524688Y8572377D01*
G01X5529535Y8584078D01*
G01X5531188Y8596634D01*
G01X5531188Y8648920D01*
G01X5536537Y8639711D01*
G01X5544357Y8632483D01*
G01X5553956Y8627873D01*
G01X5564487Y8626290D01*
G01X5655872Y8626290D01*
G01X5655872Y8607835D01*
G01X5582651Y8534614D01*
G01X5204656Y8534614D01*
G01X5192100Y8532961D01*
G01X5180399Y8528114D01*
G01X5170352Y8520405D01*
G01X4143458Y7493511D01*
G01X4097333Y7493511D01*
G01X4084777Y7491858D01*
G01X4073076Y7487011D01*
G01X4063029Y7479301D01*
G01X4028486Y7444758D01*
G01X4020776Y7434710D01*
G01X4015929Y7423010D01*
G01X4014276Y7410453D01*
G01X4014276Y7362339D01*
G01X4014276Y7362085D01*
G01X3459734Y7916798D01*
G01X3459734Y8489798D01*
G01X4213586Y8489798D01*
G01X4215364Y8474544D01*
G01X4220603Y8460109D01*
G01X4229022Y8447266D01*
G01X4240169Y8436703D01*
G01X4253447Y8428988D01*
G01X4268144Y8424534D01*
G01X4283471Y8423580D01*
G01X4298606Y8426177D01*
G01X4312739Y8432185D01*
G01X4325110Y8441284D01*
G01X4352513Y8441284D01*
G01X4357201Y8430389D01*
G01X4365190Y8421624D01*
G01X4375604Y8415947D01*
G01X4387300Y8413984D01*
G01X4477300Y8413984D01*
G01X4488367Y8415737D01*
G01X4498351Y8420824D01*
G01X4506274Y8428747D01*
G01X4511361Y8438731D01*
G01X4513114Y8449798D01*
G01X4513114Y8529798D01*
G01X4511169Y8541438D01*
G01X4505547Y8551814D01*
G01X4496857Y8559800D01*
G01X4505547Y8567786D01*
G01X4511169Y8578162D01*
G01X4513114Y8589802D01*
G01X4513114Y8669802D01*
G01X4511361Y8680869D01*
G01X4506274Y8690853D01*
G01X4498351Y8698776D01*
G01X4488367Y8703863D01*
G01X4477300Y8705616D01*
G01X4387300Y8705616D01*
G01X4376233Y8703863D01*
G01X4366249Y8698776D01*
G01X4358326Y8690853D01*
G01X4353239Y8680869D01*
G01X4351486Y8669802D01*
G01X4351486Y8589802D01*
G01X4353431Y8578162D01*
G01X4359053Y8567786D01*
G01X4367743Y8559800D01*
G01X4360903Y8554002D01*
G01X4355718Y8546686D01*
G01X4352513Y8538312D01*
G01X4325110Y8538312D01*
G01X4312739Y8547410D01*
G01X4298606Y8553419D01*
G01X4283471Y8556015D01*
G01X4268144Y8555061D01*
G01X4253447Y8550607D01*
G01X4240169Y8542892D01*
G01X4229022Y8532330D01*
G01X4220603Y8519486D01*
G01X4215364Y8505051D01*
G01X4213586Y8489798D01*
G01X4213586Y8489798D01*
G01X3459734Y8489798D01*
G01X3459734Y8536929D01*
G01X3525204Y8602399D01*
G01X3533455Y8613408D01*
G01X3538283Y8626290D01*
G01X3546899Y8626290D01*
G01X3557966Y8628042D01*
G01X3567950Y8633129D01*
G01X3575873Y8641053D01*
G01X3580960Y8651036D01*
G01X3582713Y8662104D01*
G01X3582713Y8950104D01*
G01X3649073Y8950104D01*
G01X3649073Y8662104D01*
G01X3650826Y8651036D01*
G01X3655913Y8641053D01*
G01X3663836Y8633129D01*
G01X3673820Y8628042D01*
G01X3684887Y8626290D01*
G01X3796886Y8626290D01*
G01X3807953Y8628042D01*
G01X3817937Y8633129D01*
G01X3825860Y8641053D01*
G01X3830947Y8651036D01*
G01X3832700Y8662104D01*
G01X3832700Y8950104D01*
G01X3832700Y8950104D01*
G01X3830947Y8961171D01*
G01X3825860Y8971155D01*
G01X3817937Y8979078D01*
G01X3807953Y8984165D01*
G01X3796886Y8985918D01*
G01X3684887Y8985918D01*
G01X3673820Y8984165D01*
G01X3663836Y8979078D01*
G01X3655913Y8971155D01*
G01X3650826Y8961171D01*
G01X3649073Y8950104D01*
G01X3582713Y8950104D01*
G01X3580960Y8961171D01*
G01X3575873Y8971155D01*
G01X3567950Y8979078D01*
G01X3557966Y8984165D01*
G01X3546899Y8985918D01*
G01X3434900Y8985918D01*
G01X3423833Y8984165D01*
G01X3413849Y8979078D01*
G01X3405926Y8971155D01*
G01X3400839Y8961171D01*
G01X3399086Y8950104D01*
G01X3399086Y8662104D01*
G01X3400292Y8652891D01*
G01X3403826Y8644298D01*
G01X3409453Y8636903D01*
G01X3416792Y8631205D01*
G01X3390900Y8605313D01*
G01X3365008Y8631205D01*
G01X3372347Y8636903D01*
G01X3377974Y8644298D01*
G01X3381508Y8652891D01*
G01X3382714Y8662104D01*
G01X3382714Y8950104D01*
G01X3380961Y8961171D01*
G01X3375874Y8971155D01*
G01X3367951Y8979078D01*
G01X3357967Y8984165D01*
G01X3346900Y8985918D01*
G01X3234901Y8985918D01*
G01X3223834Y8984165D01*
G01X3213850Y8979078D01*
G01X3205927Y8971155D01*
G01X3200840Y8961171D01*
G01X3199087Y8950104D01*
G01X3199087Y8662104D01*
G01X3200840Y8651036D01*
G01X3205927Y8641053D01*
G01X3213850Y8633129D01*
G01X3223834Y8628042D01*
G01X3234901Y8626290D01*
G01X3243517Y8626290D01*
G01X3248345Y8613408D01*
G01X3256596Y8602399D01*
G01X3322066Y8536929D01*
G01X3322066Y7879869D01*
G01X3323719Y7867313D01*
G01X3328566Y7855612D01*
G01X3336275Y7845564D01*
G01X3965103Y7216737D01*
G01X2582276Y7216737D01*
G01X2518786Y7280227D01*
G01X2508739Y7287936D01*
G01X2497038Y7292783D01*
G01X2484482Y7294436D01*
G01X2032617Y7294436D01*
G01X2032617Y7328663D01*
G01X2031687Y7338116D01*
G01X2028933Y7347206D01*
G01X2024461Y7355586D01*
G01X2134059Y7355586D01*
G01X2136972Y7345863D01*
G01X2142496Y7337347D01*
G01X2150188Y7330724D01*
G01X2159428Y7326524D01*
G01X2169476Y7325086D01*
G01X2250124Y7325086D01*
G01X2259738Y7326400D01*
G01X2268646Y7330247D01*
G01X2276194Y7336344D01*
G01X2281829Y7344244D01*
G01X2285136Y7353366D01*
G01X2288444Y7344244D01*
G01X2294079Y7336344D01*
G01X2301627Y7330247D01*
G01X2310535Y7326400D01*
G01X2320149Y7325086D01*
G01X2400797Y7325086D01*
G01X2411864Y7326839D01*
G01X2421848Y7331926D01*
G01X2429771Y7339849D01*
G01X2434858Y7349833D01*
G01X2436611Y7360900D01*
G01X2436611Y7411629D01*
G01X2510805Y7485823D01*
G01X2518514Y7495870D01*
G01X2523361Y7507571D01*
G01X2525014Y7520127D01*
G01X2525014Y7562090D01*
G01X2534112Y7574461D01*
G01X2540121Y7588594D01*
G01X2542718Y7603729D01*
G01X2541764Y7619056D01*
G01X2537310Y7633753D01*
G01X2529594Y7647031D01*
G01X2519032Y7658178D01*
G01X2506189Y7666597D01*
G01X2491753Y7671836D01*
G01X2476500Y7673614D01*
G01X2461247Y7671836D01*
G01X2446811Y7666597D01*
G01X2433968Y7658178D01*
G01X2423406Y7647031D01*
G01X2415690Y7633753D01*
G01X2411236Y7619056D01*
G01X2410282Y7603729D01*
G01X2412879Y7588594D01*
G01X2418888Y7574461D01*
G01X2427986Y7562090D01*
G01X2427986Y7540222D01*
G01X2370878Y7483114D01*
G01X2320149Y7483114D01*
G01X2310535Y7481800D01*
G01X2301627Y7477953D01*
G01X2294079Y7471856D01*
G01X2288444Y7463956D01*
G01X2285136Y7454834D01*
G01X2281829Y7463956D01*
G01X2276194Y7471856D01*
G01X2268646Y7477953D01*
G01X2259738Y7481800D01*
G01X2250124Y7483114D01*
G01X2169476Y7483114D01*
G01X2159428Y7481676D01*
G01X2150188Y7477476D01*
G01X2142496Y7470853D01*
G01X2136972Y7462337D01*
G01X2134059Y7452614D01*
G01X1992017Y7452614D01*
G01X1992017Y7467093D01*
G01X1990204Y7478342D01*
G01X1992017Y7489591D01*
G01X1992017Y7544592D01*
G01X1991449Y7550945D01*
G01X1989763Y7557097D01*
G01X1991449Y7563248D01*
G01X1992017Y7569601D01*
G01X1992017Y7624602D01*
G01X1990205Y7635849D01*
G01X1984953Y7645958D01*
G01X1976793Y7653906D01*
G01X1966549Y7658889D01*
G01X1975005Y7674587D01*
G01X1980231Y7691635D01*
G01X1982025Y7709375D01*
G01X1980319Y7727123D01*
G01X1975177Y7744196D01*
G01X1966798Y7759936D01*
G01X1955506Y7773734D01*
G01X1941735Y7785061D01*
G01X1926016Y7793478D01*
G01X1908956Y7798662D01*
G01X1891212Y7800412D01*
G01X1801212Y7800412D01*
G01X1782641Y7798493D01*
G01X1764855Y7792817D01*
G01X1748606Y7783624D01*
G01X1734580Y7771302D01*
G01X1723370Y7756373D01*
G01X1715450Y7739466D01*
G01X1711155Y7721298D01*
G01X1710665Y7702634D01*
G01X1714003Y7684266D01*
G01X1721026Y7666967D01*
G01X1731438Y7651471D01*
G01X1744799Y7638431D01*
G01X1760545Y7628399D01*
G01X1748537Y7620221D01*
G01X1738451Y7609765D01*
G01X1730711Y7597471D01*
G01X1725642Y7583855D01*
G01X1723459Y7569492D01*
G01X1724253Y7554986D01*
G01X1727991Y7540947D01*
G01X1734514Y7527966D01*
G01X1743550Y7516590D01*
G01X1754717Y7507297D01*
G01X1767545Y7500478D01*
G01X1781495Y7496421D01*
G01X1795980Y7495296D01*
G01X1810389Y7497150D01*
G01X1810389Y7489591D01*
G01X1812201Y7478342D01*
G01X1810389Y7467093D01*
G01X1810389Y7467093D01*
G01X1810389Y7437093D01*
G01X1811815Y7427087D01*
G01X1810389Y7417081D01*
G01X1810389Y7387081D01*
G01X1811811Y7377087D01*
G01X1810389Y7367093D01*
G01X1810389Y7337008D01*
G01X1800342Y7329298D01*
G01X1783998Y7312955D01*
G01X1776288Y7302907D01*
G01X1771442Y7291207D01*
G01X1769789Y7278650D01*
G01X1769789Y7225537D01*
G01X1771442Y7212981D01*
G01X1776288Y7201280D01*
G01X1783998Y7191233D01*
G01X1800342Y7174889D01*
G01X1810389Y7167179D01*
G01X1810389Y7137094D01*
G01X1811815Y7127088D01*
G01X1810389Y7117081D01*
G01X1810389Y7087081D01*
G01X1812201Y7075832D01*
G01X1810389Y7064583D01*
G01X1810389Y7057024D01*
G01X1795982Y7058879D01*
G01X1781499Y7057754D01*
G01X1767551Y7053699D01*
G01X1754723Y7046882D01*
G01X1743557Y7037592D01*
G01X1734521Y7026218D01*
G01X1727995Y7013241D01*
G01X1724256Y6999204D01*
G01X1723458Y6984700D01*
G01X1725637Y6970338D01*
G01X1730701Y6956723D01*
G01X1738436Y6944428D01*
G01X1748517Y6933970D01*
G01X1760520Y6925789D01*
G01X1744780Y6915753D01*
G01X1731424Y6902711D01*
G01X1721016Y6887214D01*
G01X1713998Y6869916D01*
G01X1710664Y6851549D01*
G01X1551327Y6851549D01*
G01X1550170Y6863294D01*
G01X1544718Y6881268D01*
G01X1535864Y6897833D01*
G01X1523948Y6912352D01*
G01X1509429Y6924268D01*
G01X1492864Y6933122D01*
G01X1474890Y6938574D01*
G01X1456197Y6940415D01*
G01X1456197Y6940415D01*
G01X1396197Y6940415D01*
G01X1377505Y6938574D01*
G01X1359531Y6933122D01*
G01X1342966Y6924268D01*
G01X1328447Y6912352D01*
G01X1316531Y6897833D01*
G01X1307677Y6881268D01*
G01X1302225Y6863294D01*
G01X1300383Y6844602D01*
G01X1293114Y6844602D01*
G01X1293114Y7709599D01*
G01X1300383Y7709599D01*
G01X1302225Y7690906D01*
G01X1307677Y7672932D01*
G01X1316531Y7656367D01*
G01X1328447Y7641848D01*
G01X1342966Y7629932D01*
G01X1359531Y7621078D01*
G01X1377505Y7615626D01*
G01X1396197Y7613785D01*
G01X1456197Y7613785D01*
G01X1474890Y7615626D01*
G01X1492864Y7621078D01*
G01X1509429Y7629932D01*
G01X1523948Y7641848D01*
G01X1535864Y7656367D01*
G01X1544718Y7672932D01*
G01X1550170Y7690906D01*
G01X1552011Y7709599D01*
G01X1550170Y7728291D01*
G01X1544718Y7746265D01*
G01X1535864Y7762830D01*
G01X1523948Y7777349D01*
G01X1509429Y7789265D01*
G01X1492864Y7798119D01*
G01X1474890Y7803571D01*
G01X1456197Y7805412D01*
G01X1456197Y7805412D01*
G01X1396197Y7805412D01*
G01X1377505Y7803571D01*
G01X1359531Y7798119D01*
G01X1342966Y7789265D01*
G01X1328447Y7777349D01*
G01X1316531Y7762830D01*
G01X1307677Y7746265D01*
G01X1302225Y7728291D01*
G01X1300383Y7709599D01*
G01X1293114Y7709599D01*
G01X1293114Y7886700D01*
G01X1787886Y7886700D01*
G01X1789664Y7871447D01*
G01X1794903Y7857011D01*
G01X1803322Y7844168D01*
G01X1814469Y7833606D01*
G01X1827747Y7825890D01*
G01X1842444Y7821436D01*
G01X1857771Y7820482D01*
G01X1872906Y7823079D01*
G01X1887039Y7829088D01*
G01X1899410Y7838186D01*
G01X1962384Y7838186D01*
G01X1962384Y7790900D01*
G01X1964137Y7779833D01*
G01X1969224Y7769849D01*
G01X1977147Y7761926D01*
G01X1987131Y7756839D01*
G01X1998198Y7755086D01*
G01X2078198Y7755086D01*
G01X2089838Y7757031D01*
G01X2100214Y7762653D01*
G01X2108200Y7771343D01*
G01X2116186Y7762653D01*
G01X2126562Y7757031D01*
G01X2138202Y7755086D01*
G01X2218202Y7755086D01*
G01X2229269Y7756839D01*
G01X2239253Y7761926D01*
G01X2247176Y7769849D01*
G01X2252263Y7779833D01*
G01X2254016Y7790900D01*
G01X2254016Y7880900D01*
G01X2252263Y7891967D01*
G01X2247176Y7901951D01*
G01X2239253Y7909874D01*
G01X2229269Y7914961D01*
G01X2218202Y7916714D01*
G01X2138202Y7916714D01*
G01X2126562Y7914769D01*
G01X2116186Y7909147D01*
G01X2108200Y7900457D01*
G01X2100214Y7909147D01*
G01X2089838Y7914769D01*
G01X2078198Y7916714D01*
G01X2025993Y7916714D01*
G01X2021702Y7921005D01*
G01X2011655Y7928714D01*
G01X1999954Y7933561D01*
G01X1987398Y7935214D01*
G01X1899410Y7935214D01*
G01X1887039Y7944312D01*
G01X1872906Y7950321D01*
G01X1857771Y7952918D01*
G01X1842444Y7951964D01*
G01X1827747Y7947510D01*
G01X1814469Y7939794D01*
G01X1803322Y7929232D01*
G01X1794903Y7916389D01*
G01X1789664Y7901953D01*
G01X1787886Y7886700D01*
G01X1787886Y7886700D01*
G01X1293114Y7886700D01*
G01X1293114Y8849765D01*
G01X1549249Y9105900D01*
G01X2057146Y9105900D01*
G01X2059023Y9094048D01*
G01X2064471Y9083356D01*
G01X2072956Y9074871D01*
G01X2083648Y9069423D01*
G01X2095500Y9067546D01*
G01X2107352Y9069423D01*
G01X2118044Y9074871D01*
G01X2126529Y9083356D01*
G01X2131977Y9094048D01*
G01X2133854Y9105900D01*
G01X2131977Y9117752D01*
G01X2126529Y9128444D01*
G01X2118044Y9136929D01*
G01X2107352Y9142377D01*
G01X2095500Y9144254D01*
G01X2083648Y9142377D01*
G01X2072956Y9136929D01*
G01X2064471Y9128444D01*
G01X2059023Y9117752D01*
G01X2057146Y9105900D01*
G01X2057146Y9105900D01*
G01X1549249Y9105900D01*
G01X2313535Y9870186D01*
G01X2713272Y9870186D01*
G01X2695705Y9861714D01*
G01X2680218Y9849861D01*
G01X2667452Y9835118D01*
G01X2657936Y9818095D01*
G01X2652063Y9799497D01*
G01X2650079Y9780096D01*
G01X2650079Y9590096D01*
G01X2651659Y9572763D01*
G01X2656350Y9556002D01*
G01X2663995Y9540366D01*
G01X2674343Y9526371D01*
G01X2687051Y9514479D01*
G01X2701702Y9505082D01*
G01X2717811Y9498490D01*
G01X2717811Y9103768D01*
G01X2719464Y9091211D01*
G01X2724310Y9079511D01*
G01X2732020Y9069463D01*
G01X2949100Y8852383D01*
G01X2949100Y8782900D01*
G01X2901514Y8735314D01*
G01X2864610Y8735314D01*
G01X2852239Y8744412D01*
G01X2838106Y8750421D01*
G01X2822971Y8753018D01*
G01X2807644Y8752064D01*
G01X2792947Y8747610D01*
G01X2779669Y8739894D01*
G01X2768522Y8729332D01*
G01X2760103Y8716489D01*
G01X2754864Y8702053D01*
G01X2753086Y8686800D01*
G01X2754864Y8671547D01*
G01X2760103Y8657111D01*
G01X2768522Y8644268D01*
G01X2779669Y8633706D01*
G01X2792947Y8625990D01*
G01X2807644Y8621536D01*
G01X2822971Y8620582D01*
G01X2838106Y8623179D01*
G01X2852239Y8629188D01*
G01X2864610Y8638286D01*
G01X2921610Y8638286D01*
G01X2932335Y8639486D01*
G01X2942529Y8643028D01*
G01X2951688Y8648736D01*
G01X2957057Y8639596D01*
G01X2964865Y8632427D01*
G01X2974431Y8627858D01*
G01X2984914Y8626290D01*
G01X3096913Y8626290D01*
G01X3107980Y8628042D01*
G01X3117964Y8633129D01*
G01X3125887Y8641053D01*
G01X3130974Y8651036D01*
G01X3132727Y8662104D01*
G01X3132727Y8950104D01*
G01X3130974Y8961171D01*
G01X3125887Y8971155D01*
G01X3117964Y8979078D01*
G01X3107980Y8984165D01*
G01X3096913Y8985918D01*
G01X2984914Y8985918D01*
G01X2976487Y8984912D01*
G01X2968533Y8981952D01*
G01X2961498Y8977203D01*
G01X2814839Y9123863D01*
G01X2814839Y9523563D01*
G01X2826262Y9537934D01*
G01X2834736Y9554220D01*
G01X2839948Y9571823D01*
G01X2841706Y9590096D01*
G01X2841706Y9780096D01*
G01X2839721Y9799497D01*
G01X2833849Y9818095D01*
G01X2824333Y9835118D01*
G01X2811567Y9849861D01*
G01X2796079Y9861714D01*
G01X2778513Y9870186D01*
G37*
G54D10*
G01X2778513Y9870186D02*
G01X4003287Y9870186D01*
G03X3940094Y9780096I32620J-90090D01*
G01X3940094Y9590096D01*
G03X4131721Y9590096I95814J0D01*
G01X4131721Y9780096D01*
G03X4068528Y9870186I-95814J0D01*
G01X4592872Y9870186D01*
G03X4529679Y9780096I32620J-90090D01*
G01X4529679Y9590096D01*
G03X4576978Y9507473I95814J0D01*
G01X4576978Y9101125D01*
G03X4591188Y9066820I48514J0D01*
G01X4828700Y8829308D01*
G01X4828700Y8782900D01*
G01X4793814Y8748014D01*
G01X4744210Y8748014D01*
G03X4632686Y8699500I-45210J-48514D01*
G03X4744210Y8650986I66314J0D01*
G01X4813910Y8650986D01*
G03X4829716Y8653633I0J48514D01*
G03X4864514Y8626290I34798J8470D01*
G01X4976513Y8626290D01*
G03X5012327Y8662104I0J35814D01*
G01X5012327Y8950104D01*
G03X4976513Y8985918I-35814J0D01*
G01X4864514Y8985918D01*
G03X4831423Y8963803I0J-35814D01*
G01X4674006Y9121220D01*
G01X4674006Y9507473D01*
G03X4721306Y9590096I-48514J82624D01*
G01X4721306Y9780096D01*
G03X4658113Y9870186I-95814J0D01*
G01X5882887Y9870186D01*
G03X5819694Y9780096I32620J-90090D01*
G01X5819694Y9590096D01*
G03X6011321Y9590096I95814J0D01*
G01X6011321Y9780096D01*
G03X5948128Y9870186I-95814J0D01*
G01X6060186Y9870186D01*
G01X6060186Y6009235D01*
G01X5052465Y5001514D01*
G01X2300835Y5001514D01*
G01X1293114Y6009235D01*
G01X1293114Y8849765D01*
G01X2313535Y9870186D01*
G01X2713272Y9870186D01*
G03X2650079Y9780096I32620J-90090D01*
G01X2650079Y9590096D01*
G03X2717811Y9498490I95814J0D01*
G01X2717811Y9103768D01*
G03X2732020Y9069463I48514J0D01*
G01X2949100Y8852383D01*
G01X2949100Y8782900D01*
G01X2901514Y8735314D01*
G01X2864610Y8735314D01*
G03X2753086Y8686800I-45210J-48514D01*
G03X2864610Y8638286I66314J0D01*
G01X2921610Y8638286D01*
G03X2951688Y8648736I0J48514D01*
G03X2984914Y8626290I33226J13368D01*
G01X3096913Y8626290D01*
G03X3132727Y8662104I0J35814D01*
G01X3132727Y8950104D01*
G03X3096913Y8985918I-35814J0D01*
G01X2984914Y8985918D01*
G03X2961498Y8977203I0J-35814D01*
G01X2814839Y9123863D01*
G01X2814839Y9523563D01*
G03X2841706Y9590096I-68946J66534D01*
G01X2841706Y9780096D01*
G03X2778513Y9870186I-95814J0D01*
G01X1456197Y6940415D02*
G01X1396197Y6940415D01*
G03X1396197Y6748788I0J-95814D01*
G01X1456197Y6748788D01*
G03X1456197Y6940415I0J95814D01*
G01X1456197Y7805412D02*
G01X1396197Y7805412D01*
G03X1396197Y7613785I0J-95814D01*
G01X1456197Y7613785D01*
G03X1456197Y7805412I0J95814D01*
G01X1810389Y7467093D02*
G01X1810389Y7437093D01*
G03X1811815Y7427087I35814J0D01*
G03X1810389Y7417081I34388J-10006D01*
G01X1810389Y7387081D01*
G03X1811811Y7377087I35814J0D01*
G03X1810389Y7367093I34391J-9994D01*
G01X1810389Y7337008D01*
G03X1800342Y7329298I24257J-42014D01*
G01X1783998Y7312955D01*
G03X1769789Y7278650I34305J-34305D01*
G01X1769789Y7225537D01*
G03X1783998Y7191233I48514J0D01*
G01X1800342Y7174889D01*
G03X1810389Y7167179I34305J34305D01*
G01X1810389Y7137094D01*
G03X1811815Y7127088I35814J0D01*
G03X1810389Y7117081I34388J-10006D01*
G01X1810389Y7087081D01*
G03X1812201Y7075832I35814J0D01*
G03X1810389Y7064583I34002J-11249D01*
G01X1810389Y7057024D01*
G03X1727995Y7013241I-16196J-68938D01*
G03X1760520Y6925789I66197J-25154D01*
G03X1801212Y6753788I40692J-81187D01*
G01X1891212Y6753788D01*
G03X1966549Y6895311I0J90814D01*
G03X1992017Y6929598I-10347J34287D01*
G01X1992017Y6984599D01*
G03X1989767Y6997090I-35814J0D01*
G03X1992017Y7009582I-33565J12492D01*
G01X1992017Y7050786D01*
G01X2134922Y7050786D01*
G03X2170340Y7020286I35418J5314D01*
G01X2250987Y7020286D01*
G03X2286000Y7048566I0J35814D01*
G03X2321013Y7020286I35013J7534D01*
G01X2363351Y7020286D01*
G03X2365108Y6970752I62349J-22586D01*
G01X2309398Y6970752D01*
G03X2279396Y6954495I0J-35814D01*
G03X2249394Y6970752I-30002J-19557D01*
G01X2169394Y6970752D01*
G03X2133580Y6934938I0J-35814D01*
G01X2133580Y6844938D01*
G03X2169394Y6809124I35814J0D01*
G01X2249394Y6809124D01*
G03X2279396Y6825381I0J35814D01*
G03X2300884Y6810151I30002J19557D01*
G01X2300884Y6801610D01*
G03X2349398Y6690086I48514J-45210D01*
G03X2397912Y6801610I0J66314D01*
G01X2397912Y6810151D01*
G03X2425212Y6844938I-8514J34787D01*
G01X2425212Y6931388D01*
G03X2486646Y6971564I488J66312D01*
G03X2473404Y7043764I-60946J26136D01*
G03X2460005Y7069241I-47704J-8827D01*
G01X2437474Y7091771D01*
G01X2437474Y7142500D01*
G03X2434509Y7156768I-35814J0D01*
G01X2447553Y7156768D01*
G01X2511043Y7093278D01*
G03X2545347Y7079069I34305J34305D01*
G01X4041587Y7079069D01*
G03X4046768Y7076559I23703J42329D01*
G03X3990463Y6984011I4532J-66159D01*
G03X4096510Y6961886I60837J26389D01*
G01X4145686Y6961886D01*
G03X4167545Y6967089I0J48514D01*
G01X4210690Y6967089D01*
G03X4237440Y6979090I0J35814D01*
G01X4237440Y6815121D01*
G01X3827562Y6405244D01*
G03X3813353Y6370939I34305J-34305D01*
G01X3813353Y5728288D01*
G01X3678926Y5593861D01*
G01X3671572Y5593861D01*
G03X3660212Y5592512I0J-48514D01*
G01X3660212Y5650412D01*
G03X3604221Y5734284I-90814J0D01*
G01X3651800Y5734284D01*
G03X3686587Y5761584I0J35814D01*
G01X3701290Y5761584D01*
G03X3812814Y5810098I45210J48514D01*
G03X3701290Y5858612I-66314J0D01*
G01X3686587Y5858612D01*
G03X3671357Y5880100I-34787J-8514D01*
G03X3687614Y5910102I-19557J30002D01*
G01X3687614Y5990102D01*
G03X3651800Y6025916I-35814J0D01*
G01X3561800Y6025916D01*
G03X3525986Y5990102I0J-35814D01*
G01X3525986Y5910102D01*
G03X3542243Y5880100I35814J0D01*
G03X3525986Y5850098I19557J-30002D01*
G01X3525986Y5770098D01*
G03X3545736Y5738089I35814J0D01*
G03X3518689Y5725749I23663J-87677D01*
G03X3484402Y5751217I-34287J-10347D01*
G01X3429401Y5751217D01*
G03X3416910Y5748967I0J-35814D01*
G03X3404418Y5751217I-12492J-33565D01*
G01X3358282Y5751217D01*
G01X3358282Y5779377D01*
G03X3344073Y5813681I-48514J0D01*
G01X3326113Y5831642D01*
G03X3291808Y5845851I-34305J-34305D01*
G01X3219208Y5845851D01*
G01X3215914Y5849145D01*
G01X3215914Y5870487D01*
G03X3187634Y5905500I-35814J0D01*
G03X3215914Y5940513I-7534J35013D01*
G01X3215914Y6021160D01*
G03X3180100Y6056974I-35814J0D01*
G01X3093700Y6056974D01*
G03X3057886Y6021160I0J-35814D01*
G01X3057886Y5940513D01*
G03X3086166Y5905500I35814J0D01*
G03X3057886Y5870487I7534J-35013D01*
G01X3057886Y5803832D01*
G03X3046224Y5822622I-45966J-15515D01*
G01X3034374Y5834471D01*
G01X3034374Y5885200D01*
G03X2998560Y5921014I-35814J0D01*
G01X2917913Y5921014D01*
G03X2882900Y5892734I0J-35814D01*
G03X2847887Y5921014I-35013J-7534D01*
G01X2767240Y5921014D01*
G03X2731426Y5885200I0J-35814D01*
G01X2731426Y5798800D01*
G03X2767240Y5762986I35814J0D01*
G01X2847887Y5762986D01*
G03X2882900Y5791266I0J35814D01*
G03X2917913Y5762986I35013J7534D01*
G01X2963405Y5762986D01*
G01X2963405Y5751217D01*
G01X2946907Y5751217D01*
G03X2935658Y5749404I0J-35814D01*
G03X2924409Y5751217I-11249J-34002D01*
G01X2869408Y5751217D01*
G03X2856903Y5748963I0J-35814D01*
G03X2844399Y5751217I-12504J-33560D01*
G01X2789398Y5751217D01*
G03X2755111Y5725749I0J-35814D01*
G03X2613588Y5650412I-50709J-75338D01*
G01X2613588Y5560412D01*
G03X2785601Y5519745I90814J0D01*
G03X2873053Y5487191I62311J33648D01*
G03X2916850Y5569589I-25141J66202D01*
G01X2924409Y5569589D01*
G03X2935658Y5571401I0J35814D01*
G03X2946907Y5569589I11249J34002D01*
G01X2976907Y5569589D01*
G03X2986913Y5571015I0J35814D01*
G03X2996919Y5569589I10006J34388D01*
G01X3024797Y5569589D01*
G03X3027023Y5567207I36531J31923D01*
G01X3051033Y5543198D01*
G03X3085337Y5528989I34305J34305D01*
G01X3118240Y5528989D01*
G03X3132275Y5498791I48340J4107D01*
G01X3174042Y5457024D01*
G03X3208347Y5442815I34305J34305D01*
G01X3321453Y5442815D01*
G01X3361701Y5402567D01*
G03X3396005Y5388358I34305J34305D01*
G01X3620570Y5388358D01*
G03X3654875Y5402567I0J48514D01*
G01X3695123Y5442815D01*
G01X3729233Y5442815D01*
G03X3763538Y5457024I0J48514D01*
G01X3936812Y5630298D01*
G03X3951021Y5664603I-34305J34305D01*
G01X3951021Y6334010D01*
G01X4360899Y6743888D01*
G03X4375108Y6778193I-34305J34305D01*
G01X4375108Y7263286D01*
G01X4396535Y7284712D01*
G01X4414896Y7284712D01*
G01X4414896Y7267901D01*
G03X4417747Y7253897I35814J0D01*
G03X4414896Y7239893I32962J-14004D01*
G01X4414896Y7214892D01*
G03X4417742Y7200900I35814J0D01*
G03X4414896Y7186908I32968J-13992D01*
G01X4414896Y7161907D01*
G03X4417747Y7147903I35814J0D01*
G03X4414896Y7133899I32962J-14004D01*
G01X4414896Y7108897D01*
G03X4417747Y7094893I35814J0D01*
G03X4414896Y7080889I32962J-14004D01*
G01X4414896Y7055888D01*
G03X4417742Y7041896I35814J0D01*
G03X4414896Y7027904I32968J-13992D01*
G01X4414896Y7002903D01*
G03X4450710Y6967089I35814J0D01*
G01X4460849Y6967089D01*
G01X4460849Y6697503D01*
G03X4475058Y6663198I48514J0D01*
G01X4528151Y6610105D01*
G03X4562456Y6595896I34305J34305D01*
G01X4624610Y6595896D01*
G03X4625443Y6593428I34328J10209D01*
G01X4591986Y6593428D01*
G03X4557681Y6579218I0J-48514D01*
G01X4401412Y6422949D01*
G03X4387202Y6388644I34305J-34305D01*
G01X4387202Y5907413D01*
G01X4314748Y5907413D01*
G03X4279736Y5879132I0J-35814D01*
G03X4244723Y5907413I-35013J-7534D01*
G01X4164076Y5907413D01*
G03X4128262Y5871599I0J-35814D01*
G01X4128262Y5785198D01*
G03X4164076Y5749384I35814J0D01*
G01X4244723Y5749384D01*
G03X4279736Y5777664I0J35814D01*
G03X4314748Y5749384I35013J7534D01*
G01X4332461Y5749384D01*
G01X4332461Y5747633D01*
G01X4316043Y5747633D01*
G03X4304794Y5745820I0J-35814D01*
G03X4293545Y5747633I-11249J-34002D01*
G01X4238544Y5747633D01*
G03X4226039Y5745379I0J-35814D01*
G03X4213535Y5747633I-12504J-33560D01*
G01X4158534Y5747633D01*
G03X4124247Y5722165I0J-35814D01*
G03X3982724Y5646828I-50709J-75338D01*
G01X3982724Y5556828D01*
G03X4154737Y5516161I90814J0D01*
G03X4242189Y5483607I62311J33648D01*
G03X4285986Y5566005I-25141J66202D01*
G01X4293545Y5566005D01*
G03X4304794Y5567818I0J35814D01*
G03X4316043Y5566005I11249J34002D01*
G01X4346043Y5566005D01*
G03X4356049Y5567431I0J35814D01*
G03X4366055Y5566005I10006J34388D01*
G01X4396116Y5566005D01*
G03X4403825Y5555958I42014J24257D01*
G01X4420169Y5539614D01*
G03X4454473Y5525405I34305J34305D01*
G01X4507586Y5525405D01*
G03X4541891Y5539614I0J48514D01*
G01X4558235Y5555958D01*
G03X4565944Y5566005I-34305J34305D01*
G01X4596030Y5566005D01*
G03X4606036Y5567431I0J35814D01*
G03X4616042Y5566005I10006J34388D01*
G01X4646042Y5566005D01*
G03X4656049Y5567431I0J35814D01*
G03X4666055Y5566005I10006J34388D01*
G01X4696055Y5566005D01*
G03X4707304Y5567818I0J35814D01*
G03X4718553Y5566005I11249J34002D01*
G01X4726112Y5566005D01*
G03X4769896Y5483612I68938J-16196D01*
G03X4857347Y5516136I25154J66197D01*
G03X5029349Y5556828I81187J40692D01*
G01X5029349Y5646828D01*
G03X4887826Y5722165I-90814J0D01*
G03X4853539Y5747633I-34287J-10347D01*
G01X4798537Y5747633D01*
G03X4786046Y5745384I0J-35814D01*
G03X4773554Y5747633I-12492J-33565D01*
G01X4732033Y5747633D01*
G01X4732033Y5786772D01*
G03X4742900Y5785084I10867J34125D01*
G01X4832900Y5785084D01*
G03X4868714Y5820898I0J35814D01*
G01X4868714Y5900898D01*
G03X4852457Y5930900I-35814J0D01*
G03X4867687Y5952388I-19557J30002D01*
G01X4906216Y5952388D01*
G03X5023640Y5949443I59484J29312D01*
G03X4959279Y6047702I-57940J32257D01*
G03X4946498Y6049416I-12781J-46800D01*
G01X4867687Y6049416D01*
G03X4832900Y6076716I-34787J-8514D01*
G01X4742900Y6076716D01*
G03X4707086Y6040902I0J-35814D01*
G01X4707086Y5960902D01*
G03X4723343Y5930900I35814J0D01*
G03X4707086Y5900898I19557J-30002D01*
G01X4707086Y5839887D01*
G01X4701814Y5845158D01*
G01X4701814Y5895887D01*
G03X4673534Y5930900I-35814J0D01*
G03X4701814Y5965913I-7534J35013D01*
G01X4701814Y6046560D01*
G03X4666000Y6082374I-35814J0D01*
G01X4579600Y6082374D01*
G03X4543786Y6046560I0J-35814D01*
G01X4543786Y5965913D01*
G03X4572066Y5930900I35814J0D01*
G03X4543786Y5895887I7534J-35013D01*
G01X4543786Y5815240D01*
G03X4556078Y5788233I35814J0D01*
G01X4524870Y5788233D01*
G01X4524870Y6351715D01*
G01X4628915Y6455760D01*
G01X5175660Y6455760D01*
G03X5209964Y6469969I0J48514D01*
G01X5251731Y6511736D01*
G03X5265941Y6546041I-34305J34305D01*
G01X5265941Y7159935D01*
G03X5251731Y7194240I-48514J0D01*
G01X5133942Y7312029D01*
G03X5099637Y7326238I-34305J-34305D01*
G01X4606524Y7326238D01*
G01X4606524Y7345887D01*
G03X4603672Y7359891I-35814J0D01*
G03X4606524Y7373896I-32962J14004D01*
G01X4606524Y7398897D01*
G03X4570710Y7434711I-35814J0D01*
G01X4479555Y7434711D01*
G03X4469910Y7435679I-9645J-47545D01*
G01X4372905Y7435679D01*
G03X4338600Y7421470I0J-48514D01*
G01X4251650Y7334519D01*
G03X4246504Y7328451I34305J-34305D01*
G01X4246504Y7345887D01*
G03X4243653Y7359891I-35814J0D01*
G03X4246504Y7373896I-32962J14004D01*
G01X4246504Y7398897D01*
G03X4246390Y7401751I-35814J0D01*
G01X5241585Y8396946D01*
G01X5619580Y8396946D01*
G03X5653884Y8411156I0J48514D01*
G01X5779331Y8536602D01*
G03X5793540Y8570907I-34305J34305D01*
G01X5793540Y8978494D01*
G03X5779331Y9012799I-48514J0D01*
G01X5739181Y9052949D01*
G03X5704876Y9067158I-34305J-34305D01*
G01X5536097Y9067158D01*
G03X5501792Y9052949I0J-48514D01*
G01X5433973Y8985129D01*
G03X5426499Y8985918I-7474J-35025D01*
G01X5314500Y8985918D01*
G03X5278686Y8950104I0J-35814D01*
G01X5278686Y8662104D01*
G03X5282954Y8645148I35814J0D01*
G01X5258046Y8645148D01*
G03X5262314Y8662104I-31546J16956D01*
G01X5262314Y8950104D01*
G03X5226500Y8985918I-35814J0D01*
G01X5114501Y8985918D01*
G03X5078687Y8950104I0J-35814D01*
G01X5078687Y8662104D01*
G03X5114501Y8626290I35814J0D01*
G01X5123117Y8626290D01*
G03X5136196Y8602399I47383J10414D01*
G01X5176265Y8562329D01*
G03X5210570Y8548120I34305J34305D01*
G01X5482674Y8548120D01*
G03X5531188Y8596634I0J48514D01*
G01X5531188Y8648920D01*
G03X5564487Y8626290I33299J13184D01*
G01X5655872Y8626290D01*
G01X5655872Y8607835D01*
G01X5582651Y8534614D01*
G01X5204656Y8534614D01*
G03X5170352Y8520405I0J-48514D01*
G01X4143458Y7493511D01*
G01X4097333Y7493511D01*
G03X4063029Y7479301I0J-48514D01*
G01X4028486Y7444758D01*
G03X4014276Y7410453I34305J-34305D01*
G01X4014276Y7362339D01*
G01X4014276Y7362085D01*
G01X3459734Y7916798D01*
G01X3459734Y8536929D01*
G01X3525204Y8602399D01*
G03X3538283Y8626290I-34305J34305D01*
G01X3546899Y8626290D01*
G03X3582713Y8662104I0J35814D01*
G01X3582713Y8950104D01*
G03X3546899Y8985918I-35814J0D01*
G01X3434900Y8985918D01*
G03X3399086Y8950104I0J-35814D01*
G01X3399086Y8662104D01*
G03X3416792Y8631205I35814J0D01*
G01X3390900Y8605313D01*
G01X3365008Y8631205D01*
G03X3382714Y8662104I-18108J30899D01*
G01X3382714Y8950104D01*
G03X3346900Y8985918I-35814J0D01*
G01X3234901Y8985918D01*
G03X3199087Y8950104I0J-35814D01*
G01X3199087Y8662104D01*
G03X3234901Y8626290I35814J0D01*
G01X3243517Y8626290D01*
G03X3256596Y8602399I47383J10414D01*
G01X3322066Y8536929D01*
G01X3322066Y7879869D01*
G03X3336275Y7845564I48514J0D01*
G01X3965103Y7216737D01*
G01X2582276Y7216737D01*
G01X2518786Y7280227D01*
G03X2484482Y7294436I-34305J-34305D01*
G01X2032617Y7294436D01*
G01X2032617Y7328663D01*
G03X2024461Y7355586I-48514J0D01*
G01X2134059Y7355586D01*
G03X2169476Y7325086I35418J5314D01*
G01X2250124Y7325086D01*
G03X2285136Y7353366I0J35814D01*
G03X2320149Y7325086I35013J7534D01*
G01X2400797Y7325086D01*
G03X2436611Y7360900I0J35814D01*
G01X2436611Y7411629D01*
G01X2510805Y7485823D01*
G03X2525014Y7520127I-34305J34305D01*
G01X2525014Y7562090D01*
G03X2476500Y7673614I-48514J45210D01*
G03X2427986Y7562090I0J-66314D01*
G01X2427986Y7540222D01*
G01X2370878Y7483114D01*
G01X2320149Y7483114D01*
G03X2285136Y7454834I0J-35814D01*
G03X2250124Y7483114I-35013J-7534D01*
G01X2169476Y7483114D01*
G03X2134059Y7452614I0J-35814D01*
G01X1992017Y7452614D01*
G01X1992017Y7467093D01*
G03X1990204Y7478342I-35814J0D01*
G03X1992017Y7489591I-34002J11249D01*
G01X1992017Y7544592D01*
G03X1989763Y7557097I-35814J0D01*
G03X1992017Y7569601I-33560J12504D01*
G01X1992017Y7624602D01*
G03X1966549Y7658889I-35814J0D01*
G03X1891212Y7800412I-75338J50709D01*
G01X1801212Y7800412D01*
G03X1760545Y7628399I0J-90814D01*
G03X1727991Y7540947I33648J-62311D01*
G03X1810389Y7497150I66202J25141D01*
G01X1810389Y7489591D01*
G03X1812201Y7478342I35814J0D01*
G03X1810389Y7467093I34002J-11249D01*
G01X1787886Y7886700D02*
G03X1899410Y7838186I66314J0D01*
G01X1962384Y7838186D01*
G01X1962384Y7790900D01*
G03X1998198Y7755086I35814J0D01*
G01X2078198Y7755086D01*
G03X2108200Y7771343I0J35814D01*
G03X2138202Y7755086I30002J19557D01*
G01X2218202Y7755086D01*
G03X2254016Y7790900I0J35814D01*
G01X2254016Y7880900D01*
G03X2218202Y7916714I-35814J0D01*
G01X2138202Y7916714D01*
G03X2108200Y7900457I0J-35814D01*
G03X2078198Y7916714I-30002J-19557D01*
G01X2025993Y7916714D01*
G01X2021702Y7921005D01*
G03X1987398Y7935214I-34305J-34305D01*
G01X1899410Y7935214D01*
G03X1787886Y7886700I-45210J-48514D01*
G01X2032000Y5943854D02*
G03X2032000Y5867146I0J-38354D01*
G03X2032000Y5943854I0J38354D01*
G01X2057146Y9105900D02*
G03X2133854Y9105900I38354J0D01*
G03X2057146Y9105900I-38354J0D01*
G01X2608588Y5215397D02*
G01X2608588Y5155397D01*
G03X2800215Y5155397I95814J0D01*
G01X2800215Y5215397D01*
G03X2608588Y5215397I-95814J0D01*
G01X3060967Y6812041D02*
G03X3113019Y6702803I50533J-42941D01*
G03X3160014Y6814310I-1519J66297D01*
G01X3160014Y6828234D01*
G03X3163526Y6843700I-32302J15466D01*
G01X3163526Y6897700D01*
G03X3127712Y6933514I-35814J0D01*
G01X3077712Y6933514D01*
G03X3060700Y6929216I0J-35814D01*
G03X3043688Y6933514I-17012J-31516D01*
G01X2993688Y6933514D01*
G03X2957874Y6897700I0J-35814D01*
G01X2957874Y6843700D01*
G03X2993688Y6807886I35814J0D01*
G01X3043688Y6807886D01*
G03X3060700Y6812184I0J35814D01*
G01X3060967Y6812041D01*
G01X3473585Y5215397D02*
G01X3473585Y5155397D01*
G03X3665212Y5155397I95814J0D01*
G01X3665212Y5215397D01*
G03X3473585Y5215397I-95814J0D01*
G01X3832700Y8950104D02*
G03X3796886Y8985918I-35814J0D01*
G01X3684887Y8985918D01*
G03X3649073Y8950104I0J-35814D01*
G01X3649073Y8662104D01*
G03X3684887Y8626290I35814J0D01*
G01X3796886Y8626290D01*
G03X3832700Y8662104I0J35814D01*
G01X3832700Y8950104D01*
G01X3856198Y6938814D02*
G01X3776198Y6938814D01*
G03X3740384Y6903000I0J-35814D01*
G01X3740384Y6813000D01*
G03X3776198Y6777186I35814J0D01*
G01X3856198Y6777186D01*
G03X3886200Y6793443I0J35814D01*
G03X3907688Y6778213I30002J19557D01*
G01X3907688Y6763510D01*
G03X3956202Y6651986I48514J-45210D01*
G03X4004716Y6763510I0J66314D01*
G01X4004716Y6778213D01*
G03X4032016Y6813000I-8514J34787D01*
G01X4032016Y6903000D01*
G03X3996202Y6938814I-35814J0D01*
G01X3916202Y6938814D01*
G03X3886200Y6922557I0J-35814D01*
G03X3856198Y6938814I-30002J-19557D01*
G01X3977724Y5211813D02*
G01X3977724Y5151814D01*
G03X4169352Y5151814I95814J0D01*
G01X4169352Y5211813D01*
G03X3977724Y5211813I-95814J0D01*
G01X4213586Y8489798D02*
G03X4325110Y8441284I66314J0D01*
G01X4352513Y8441284D01*
G03X4387300Y8413984I34787J8514D01*
G01X4477300Y8413984D01*
G03X4513114Y8449798I0J35814D01*
G01X4513114Y8529798D01*
G03X4496857Y8559800I-35814J0D01*
G03X4513114Y8589802I-19557J30002D01*
G01X4513114Y8669802D01*
G03X4477300Y8705616I-35814J0D01*
G01X4387300Y8705616D01*
G03X4351486Y8669802I0J-35814D01*
G01X4351486Y8589802D01*
G03X4367743Y8559800I35814J0D01*
G03X4352513Y8538312I19557J-30002D01*
G01X4325110Y8538312D01*
G03X4213586Y8489798I-45210J-48514D01*
G01X4842721Y5211813D02*
G01X4842721Y5151814D01*
G03X5034349Y5151814I95814J0D01*
G01X5034349Y5211813D01*
G03X4842721Y5211813I-95814J0D01*
G01X5395857Y5909501D02*
G03X5472565Y5909501I38354J0D01*
G03X5395857Y5909501I-38354J0D01*
G01X5397246Y8255000D02*
G03X5473954Y8255000I38354J0D01*
G03X5397246Y8255000I-38354J0D01*
G54D11*
G01X5620487Y8662358D02*
G01X5620487Y8636450D01*
G01X4743154Y5860898D02*
G01X4717246Y5860898D01*
G01X4832646Y5860898D02*
G01X4858554Y5860898D01*
G01X4787900Y5821152D02*
G01X4787900Y5795244D01*
G01X4746053Y5711565D02*
G01X4746053Y5737473D01*
G01X4477046Y8629802D02*
G01X4502954Y8629802D01*
G01X4387554Y8629802D02*
G01X4361646Y8629802D01*
G01X4432300Y8669548D02*
G01X4432300Y8695456D01*
G01X4579854Y6006236D02*
G01X4553946Y6006236D01*
G01X4665746Y6006236D02*
G01X4691654Y6006236D01*
G01X4622800Y6046306D02*
G01X4622800Y6072214D01*
G01X4266044Y5711565D02*
G01X4266044Y5737473D01*
G01X4204399Y5785452D02*
G01X4204399Y5759544D01*
G01X4204399Y5871345D02*
G01X4204399Y5897253D01*
G01X4164330Y5828398D02*
G01X4138422Y5828398D01*
G01X3816198Y6813254D02*
G01X3816198Y6787346D01*
G01X3816198Y6902746D02*
G01X3816198Y6928654D01*
G01X3776452Y6858000D02*
G01X3750544Y6858000D01*
G01X3093954Y5980836D02*
G01X3068046Y5980836D01*
G01X3179846Y5980836D02*
G01X3205754Y5980836D01*
G01X3136900Y6020906D02*
G01X3136900Y6046814D01*
G01X3651546Y5950102D02*
G01X3677454Y5950102D01*
G01X3562054Y5950102D02*
G01X3536146Y5950102D01*
G01X3606800Y5989848D02*
G01X3606800Y6015756D01*
G01X3740887Y8949850D02*
G01X3740887Y8975758D01*
G01X3740887Y8662358D02*
G01X3740887Y8636450D01*
G01X3685141Y8806104D02*
G01X3659233Y8806104D01*
G01X3796632Y8806104D02*
G01X3822540Y8806104D01*
G01X3376917Y5715149D02*
G01X3376917Y5741057D01*
G01X2896908Y5715149D02*
G01X2896908Y5741057D01*
G01X2209394Y6934684D02*
G01X2209394Y6960592D01*
G01X2209394Y6845192D02*
G01X2209394Y6819284D01*
G01X2169648Y6889938D02*
G01X2143740Y6889938D01*
G01X3018688Y6843954D02*
G01X3018688Y6818046D01*
G01X3018688Y6897446D02*
G01X3018688Y6923354D01*
G01X2993942Y6870700D02*
G01X2968034Y6870700D01*
G01X2807564Y5799054D02*
G01X2807564Y5773146D01*
G01X2807564Y5884946D02*
G01X2807564Y5910854D01*
G01X2767494Y5842000D02*
G01X2741586Y5842000D01*
G01X2178202Y7791154D02*
G01X2178202Y7765246D01*
G01X2178202Y7880646D02*
G01X2178202Y7906554D01*
G01X2217948Y7835900D02*
G01X2243856Y7835900D01*
G01X1955949Y7517092D02*
G01X1981857Y7517092D01*
G01X1955949Y7037083D02*
G01X1981857Y7037083D01*
G04 Copper End*

G04 Pad Start*
G54D12*
G01X4150690Y7386396D03*
G01X4150690Y7333386D03*
G01X4150690Y7280402D03*
G01X4150690Y7227392D03*
G01X4150690Y7174408D03*
G01X4150690Y7121398D03*
G01X4150690Y7068388D03*
G01X4150690Y7015404D03*
G01X4510710Y7015404D03*
G01X4510710Y7068388D03*
G01X4510710Y7121398D03*
G01X4510710Y7174408D03*
G01X4510710Y7227392D03*
G01X4510710Y7280402D03*
G01X4510710Y7333386D03*
G01X4510710Y7386396D03*
G54D13*
G01X1901203Y7597102D03*
G01X1901203Y7517092D03*
G54D14*
G01X1901203Y7452093D03*
G01X1901203Y7402081D03*
G01X1901203Y7352094D03*
G01X1901203Y7302106D03*
G01X1901203Y7252094D03*
G01X1901203Y7202107D03*
G01X1901203Y7152094D03*
G01X1901203Y7102081D03*
G54D13*
G01X1901203Y7037083D03*
G01X1901203Y6957098D03*
G54D15*
G01X1846212Y7709599D03*
G01X1846212Y6844602D03*
G54D16*
G01X1426197Y7709599D03*
G01X1426197Y6844602D03*
G54D18*
G01X4186034Y5656819D03*
G01X4266044Y5656819D03*
G54D19*
G01X4331043Y5656819D03*
G01X4381056Y5656819D03*
G01X4431043Y5656819D03*
G01X4481030Y5656819D03*
G01X4531043Y5656819D03*
G01X4581030Y5656819D03*
G01X4631042Y5656819D03*
G01X4681055Y5656819D03*
G54D18*
G01X4746054Y5656819D03*
G01X4826038Y5656819D03*
G54D20*
G01X4073538Y5601828D03*
G01X4938535Y5601828D03*
G54D21*
G01X4073538Y5181814D03*
G01X4938535Y5181814D03*
G54D18*
G01X2816898Y5660403D03*
G01X2896908Y5660403D03*
G54D19*
G01X2961907Y5660403D03*
G01X3011919Y5660403D03*
G01X3061907Y5660403D03*
G01X3111894Y5660403D03*
G01X3161906Y5660403D03*
G01X3211894Y5660403D03*
G01X3261906Y5660403D03*
G01X3311919Y5660403D03*
G54D18*
G01X3376917Y5660403D03*
G01X3456902Y5660403D03*
G54D20*
G01X2704402Y5605412D03*
G01X3569399Y5605412D03*
G54D21*
G01X2704402Y5185397D03*
G01X3569399Y5185397D03*
G54D22*
G01X3040913Y8806104D03*
G01X3290900Y8806104D03*
G01X3490900Y8806104D03*
G01X3740887Y8806104D03*
G54D23*
G01X2745892Y9685096D03*
G01X4035908Y9685096D03*
G54D22*
G01X4920513Y8806104D03*
G01X5170500Y8806104D03*
G01X5370500Y8806104D03*
G01X5620487Y8806104D03*
G54D23*
G01X4625492Y9685096D03*
G01X5915508Y9685096D03*
G54D24*
G01X2209394Y6889938D03*
G01X2349398Y6889938D03*
G54D25*
G01X4787900Y5860898D03*
G01X4787900Y6000902D03*
G54D24*
G01X2178202Y7835900D03*
G01X2038198Y7835900D03*
G01X3956202Y6858000D03*
G01X3816198Y6858000D03*
G01X4828264Y6952828D03*
G01X4688259Y6952828D03*
G01X4838943Y6651105D03*
G01X4698938Y6651105D03*
G54D25*
G01X3606800Y5950102D03*
G01X3606800Y5810098D03*
G54D26*
G01X2209800Y7404100D03*
G01X2360473Y7404100D03*
G01X2210664Y7099300D03*
G01X2361336Y7099300D03*
G54D27*
G01X4622800Y5855564D03*
G01X4622800Y6006236D03*
G54D26*
G01X4355072Y5828398D03*
G01X4204399Y5828398D03*
G54D27*
G01X3136900Y5830164D03*
G01X3136900Y5980836D03*
G54D26*
G01X2958236Y5842000D03*
G01X2807564Y5842000D03*
G54D28*
G01X3102712Y6870700D03*
G01X3018688Y6870700D03*
G01X4789987Y7115560D03*
G01X4705963Y7115560D03*
G01X4775567Y6797275D03*
G01X4691544Y6797275D03*
G54D25*
G01X4432300Y8629802D03*
G01X4432300Y8489798D03*
G04 Pad End*

G04 Via Start*
G54D29*
G01X4699000Y8699500D03*
G01X2819400Y8686800D03*
G01X1854200Y7886700D03*
G01X2476500Y7607300D03*
G01X2425700Y6997700D03*
G01X2349398Y6756400D03*
G01X3111500Y6769100D03*
G01X3956202Y6718300D03*
G01X4965700Y5981700D03*
G01X3746500Y5810098D03*
G01X4914900Y6651105D03*
G01X4864100Y6797275D03*
G01X4940300Y7035800D03*
G01X4876800Y7115560D03*
G01X4279900Y8489798D03*
G01X4051300Y7010400D03*
G01X4610100Y7174408D03*
G04 Via End*

G04 Track Start*
G54D11*
G01X2209800Y7404100D02*
G01X1903222Y7404100D01*
G01X1901203Y7402081D01*
G01X2210664Y7099300D02*
G01X1903984Y7099300D01*
G01X1901203Y7102081D01*
G01X2209394Y6889938D02*
G01X2062249Y7037083D01*
G01X1901203Y7037083D01*
G01X2807564Y5842000D02*
G01X2896908Y5752656D01*
G01X2896908Y5660403D01*
G01X2958236Y5842000D02*
G01X3011919Y5788317D01*
G01X3011919Y5660403D01*
G01X3376917Y5660403D02*
G01X3376917Y5842000D01*
G01X3485020Y5950102D01*
G01X3606800Y5950102D01*
G01X4622800Y5855564D02*
G01X4683519Y5794845D01*
G01X4683519Y5647703D01*
G01X4787900Y5860898D02*
G01X4787900Y5778500D01*
G01X4748517Y5739117D02*
G01X4748517Y5647703D01*
G01X4787900Y5778500D02*
G01X4748517Y5739117D01*
G01X1901203Y7517092D02*
G01X2349500Y7517092D01*
G01X2367461Y7535052D01*
G01X2367461Y7779839D02*
G01X2311400Y7835900D01*
G01X2178202Y7835900D01*
G01X2367461Y7535052D02*
G01X2367461Y7779839D01*
G01X4150690Y7121398D02*
G01X4065290Y7121398D01*
G01X4150690Y7174408D02*
G01X4065290Y7174408D01*
G01X4065290Y7121398D02*
G01X4059105Y7127583D01*
G01X4065290Y7174408D02*
G01X4059105Y7168223D01*
G01X4059105Y7127583D02*
G01X2545347Y7127583D01*
G01X4059105Y7168223D02*
G01X2562181Y7168223D01*
G01X2545347Y7127583D02*
G01X2467648Y7205282D01*
G01X1907347Y7205282D01*
G01X2484482Y7245922D02*
G01X1907347Y7245922D01*
G01X2562181Y7168223D02*
G01X2484482Y7245922D01*
G01X1901203Y7202107D02*
G01X1898027Y7205282D01*
G01X1890513Y7205282D01*
G01X1886602Y7209194D01*
G01X1834646Y7209194D01*
G01X1818303Y7225537D01*
G01X1818303Y7278650D01*
G01X1834646Y7294994D01*
G01X1862287Y7294994D01*
G01X1870344Y7303051D01*
G01X1901203Y7252094D02*
G01X1908315Y7259206D01*
G01X1967759Y7259206D01*
G01X1984103Y7275550D01*
G01X1984103Y7328663D01*
G01X1967759Y7345006D01*
G01X1948087Y7345006D01*
G01X1940586Y7352508D01*
G01X3166287Y5830164D02*
G01X3199113Y5797337D01*
G01X3291808Y5797337D01*
G01X3309768Y5779377D01*
G01X3309768Y5662553D01*
G01X3136900Y5830164D02*
G01X3166287Y5830164D01*
G01X3309768Y5662553D02*
G01X3311919Y5660403D01*
G01X4191864Y5816600D02*
G01X4191864Y5797964D01*
G01X4342536Y5816600D02*
G01X4380975Y5778161D01*
G01X4380975Y5670504D01*
G01X4191864Y5797964D02*
G01X4267075Y5722753D01*
G01X4267075Y5683106D01*
G01X3111023Y5653344D02*
G01X3111023Y5736487D01*
G01X3118190Y5743655D01*
G01X3196555Y5743655D02*
G01X3211894Y5728317D01*
G01X3118190Y5743655D02*
G01X3196555Y5743655D01*
G01X3061328Y5639486D02*
G01X3061328Y5601512D01*
G01X3085337Y5577503D01*
G01X3155263Y5577503D01*
G01X3162359Y5570406D01*
G01X3211894Y5728317D02*
G01X3211894Y5660403D01*
G01X3161906Y5580003D02*
G01X3162359Y5579550D01*
G01X3162359Y5570406D02*
G01X3162359Y5579550D01*
G01X3161906Y5660403D02*
G01X3161906Y5580003D01*
G01X3211802Y5545347D02*
G01X3345004Y5545347D01*
G01X3699021Y5545347D02*
G01X3861867Y5708193D01*
G01X3211894Y5660403D02*
G01X3204806Y5653316D01*
G01X3204806Y5594576D01*
G01X3207220Y5592163D01*
G01X3207220Y5549929D01*
G01X3211802Y5545347D01*
G01X3603737Y5477512D02*
G01X3671572Y5545347D01*
G01X3699021Y5545347D01*
G01X3345004Y5545347D02*
G01X3412839Y5477512D01*
G01X3603737Y5477512D01*
G01X4469910Y7387165D02*
G01X4470510Y7386565D01*
G01X3162359Y5579550D02*
G01X3166580Y5575329D01*
G01X3166580Y5533096D01*
G01X3208347Y5491329D01*
G01X3341548Y5491329D01*
G01X3396005Y5436872D01*
G01X3620570Y5436872D01*
G01X3675027Y5491329D01*
G01X3729233Y5491329D01*
G01X3861867Y5708193D02*
G01X3861867Y6370939D01*
G01X4372905Y7387165D02*
G01X4469910Y7387165D01*
G01X3861867Y6370939D02*
G01X4285954Y6795026D01*
G01X4285954Y7300215D01*
G01X4372905Y7387165D01*
G01X3729233Y5491329D02*
G01X3902507Y5664603D01*
G01X3902507Y6354105D01*
G01X4326594Y6778193D01*
G01X4326594Y7283381D01*
G01X4376440Y7333226D01*
G01X4490945Y7333226D01*
G01X3490900Y8806104D02*
G01X3490900Y8636704D01*
G01X3290900Y8806104D02*
G01X3290900Y8636704D01*
G01X4065290Y7280402D02*
G01X4150690Y7280402D01*
G01X4065290Y7227392D02*
G01X4150690Y7227392D01*
G01X3490900Y8636704D02*
G01X3411220Y8557024D01*
G01X4033705Y7274217D02*
G01X4059105Y7274217D01*
G01X4065290Y7280402D01*
G01X3290900Y8636704D02*
G01X3370580Y8557024D01*
G01X4059105Y7233577D02*
G01X4065290Y7227392D01*
G01X3411220Y8557024D02*
G01X3411220Y7896703D01*
G01X4033705Y7274217D01*
G01X3370580Y8557024D02*
G01X3370580Y7879869D01*
G01X4016872Y7233577D01*
G01X4059105Y7233577D01*
G01X5170500Y8806104D02*
G01X5170500Y8636704D01*
G01X4133857Y7333386D02*
G01X4150690Y7333386D01*
G01X5552931Y8978004D02*
G01X5688042Y8978004D01*
G01X5704386Y8961661D01*
G01X5602746Y8486100D02*
G01X5204656Y8486100D01*
G01X4163553Y7444997D01*
G01X4062790Y7410453D02*
G01X4062790Y7362339D01*
G01X4079134Y7345995D01*
G01X4121248Y7345995D01*
G01X4133857Y7333386D01*
G01X5536097Y9018644D02*
G01X5704876Y9018644D01*
G01X5745026Y8978494D01*
G01X5619580Y8445460D02*
G01X5221490Y8445460D01*
G01X4180387Y7404357D01*
G01X5370500Y8806104D02*
G01X5370500Y8853047D01*
G01X5536097Y9018644D01*
G01X5745026Y8978494D02*
G01X5745026Y8570907D01*
G01X5619580Y8445460D01*
G01X4180387Y7404357D02*
G01X4156558Y7404357D01*
G01X4150690Y7398489D01*
G01X4150690Y7386396D01*
G01X5170500Y8636704D02*
G01X5210570Y8596634D01*
G01X5482674Y8596634D01*
G01X5482674Y8907747D01*
G01X5552931Y8978004D01*
G01X5704386Y8961661D02*
G01X5704386Y8587740D01*
G01X5602746Y8486100D01*
G01X4163553Y7444997D02*
G01X4097333Y7444997D01*
G01X4062790Y7410453D01*
G01X3030129Y8839964D02*
G01X2766325Y9103768D01*
G01X2766325Y9661240D01*
G01X4889761Y5568447D02*
G01X4920732Y5568447D01*
G01X4185177Y5651404D02*
G01X4127660Y5593887D01*
G01X4086735Y5593887D01*
G01X3445199Y5655829D02*
G01X3507140Y5593887D01*
G01X3555808Y5593887D01*
G01X2825785Y5648086D02*
G01X2790389Y5612691D01*
G01X2700796Y5612691D01*
G01X1891271Y7589194D02*
G01X1891271Y7641549D01*
G01X1833754Y7699066D01*
G01X1880947Y6938071D02*
G01X1880947Y6876867D01*
G01X1847027Y6842947D01*
G01X4431043Y5656819D02*
G01X4431043Y5737219D01*
G01X4481030Y5656819D02*
G01X4481030Y5737219D01*
G01X4431043Y5737219D02*
G01X4435716Y5741893D01*
G01X4481030Y5737219D02*
G01X4476356Y5741893D01*
G01X4435716Y5741893D02*
G01X4435716Y6388644D01*
G01X4476356Y5741893D02*
G01X4476356Y6371810D01*
G01X4591986Y6544914D02*
G01X5158826Y6544914D01*
G01X5176786Y6562874D01*
G01X5176786Y7143102D01*
G01X5082804Y7237084D01*
G01X5175660Y6504274D02*
G01X5217426Y6546041D01*
G01X5217426Y7159935D01*
G01X5082804Y7237084D02*
G01X4516737Y7237084D01*
G01X5099637Y7277724D02*
G01X4516737Y7277724D01*
G01X4435716Y6388644D02*
G01X4591986Y6544914D01*
G01X4476356Y6371810D02*
G01X4608820Y6504274D01*
G01X5175660Y6504274D01*
G01X5217426Y7159935D02*
G01X5099637Y7277724D01*
G01X4688551Y6792627D02*
G01X4563562Y6792627D01*
G01X4509363Y6846826D01*
G01X4509363Y7008316D02*
G01X4512681Y7011634D01*
G01X4690763Y6643304D02*
G01X4689657Y6644410D01*
G01X4562456Y6644410D01*
G01X4509363Y6697502D01*
G01X4509363Y6846826D01*
G01X4509363Y7008316D01*
G01X4690763Y7108971D02*
G01X4650943Y7069151D01*
G01X4666429Y6946374D02*
G01X4666429Y7000573D01*
G01X4598957Y7068045D01*
G01X4650943Y7069151D02*
G01X4544758Y7069151D01*
G01X4431043Y5656819D02*
G01X4438130Y5649732D01*
G01X4438130Y5590262D01*
G01X4454473Y5573919D01*
G01X4507586Y5573919D01*
G01X4523930Y5590262D01*
G01X4523930Y5609015D01*
G01X4533313Y5618398D01*
G01X4481030Y5737219D02*
G01X4501986Y5737219D01*
G01X4504486Y5739719D01*
G01X4557599Y5739719D01*
G01X4573943Y5723375D01*
G01X4573943Y5690344D01*
G01X4582473Y5681814D01*
G01X4823395Y5634813D02*
G01X4889761Y5568447D01*
G01X4920513Y8806104D02*
G01X4625492Y9101125D01*
G01X4625492Y9685096D01*
G01X4920513Y8806104D02*
G01X4813910Y8699500D01*
G01X4699000Y8699500D01*
G01X3040913Y8806104D02*
G01X2921610Y8686800D01*
G01X2819400Y8686800D01*
G01X2038198Y7835900D02*
G01X1987398Y7886700D01*
G01X1854200Y7886700D01*
G01X2360473Y7404100D02*
G01X2476500Y7520127D01*
G01X2476500Y7607300D01*
G01X2361336Y7099300D02*
G01X2425700Y7034936D01*
G01X2425700Y6997700D01*
G01X2349398Y6889938D02*
G01X2349398Y6756400D01*
G01X3102712Y6870700D02*
G01X3111500Y6861912D01*
G01X3111500Y6769100D01*
G01X3956202Y6858000D02*
G01X3956202Y6718300D01*
G01X4787900Y6000902D02*
G01X4946498Y6000902D01*
G01X4965700Y5981700D01*
G01X3606800Y5810098D02*
G01X3746500Y5810098D01*
G01X4838943Y6651105D02*
G01X4914900Y6651105D01*
G01X4775567Y6797275D02*
G01X4864100Y6797275D01*
G01X4828264Y6952828D02*
G01X4911236Y7035800D01*
G01X4940300Y7035800D01*
G01X4789987Y7115560D02*
G01X4876800Y7115560D01*
G01X4432300Y8489798D02*
G01X4279900Y8489798D01*
G01X4150690Y7015404D02*
G01X4145686Y7010400D01*
G01X4051300Y7010400D01*
G01X4510710Y7174408D02*
G01X4610100Y7174408D01*
G01X4150690Y7068388D02*
G01X4075902Y7068388D01*
G01X4075490Y7068800D01*
G01X4027110Y7068800D01*
G01X4026698Y7068388D01*
G01X3906088Y7068388D01*
G01X3816198Y6978498D02*
G01X3816198Y6858000D01*
G01X3906088Y7068388D02*
G01X3816198Y6978498D01*
G04 Track End*

M02*

