;TYPE=PLATED
;Layer: PTH_Through_Via
;EasyEDA Pro v3.2.148, 2026-06-08 17:51:49
;Gerber Generator version 0.3
M48
METRIC,LZ,0000.00000
;Hole size 1 = 0.30500 METRIC
T01C0.30500
%
G05
G90
T01
X30.86443Y63.246
X37.34445Y66.67681
X37.338Y65.9148
X48.12483Y73.48825
X48.12483Y74.25025
X51.816Y81.28
X56.388Y80.899
X21.463Y72.263
X25.019Y68.834
X25.019Y66.61338
X26.67Y76.581
X50.927Y71.1556
X50.927Y69.52828
X50.927Y67.97275
X50.927Y66.51105
X32.893Y69.85
X36.9Y61.40602
X44.577Y63.5
X50.673Y60.00902
X33.909Y80.645
X39.878Y83.185
X46.99Y86.995
X28.194Y86.868
X39.56202Y67.183
X40.513Y70.104
X46.101Y71.74408
M30