;TYPE=PLATED
;Layer: PTH_Through
;EasyEDA Pro v3.2.148, 2026-06-08 17:51:49
;Gerber Generator version 0.3
M48
METRIC,LZ,0000.00000
;Hole size 1 = 0.30500 METRIC
T01C0.30500
;Hole size 2 = 0.60000 METRIC
T02C0.60000
;Hole size 3 = 0.70002 METRIC
T03C0.70002
%
G05
G90
T01
X30.86443Y63.246
X37.34445Y66.67681
X37.338Y65.9148
X48.12483Y73.48825
X48.12483Y74.25025
X51.816Y81.28
X56.388Y80.899
X21.463Y72.263
X25.019Y68.834
X25.019Y66.61338
X26.67Y76.581
X50.927Y71.1556
X50.927Y69.52828
X50.927Y67.97275
X50.927Y66.51105
X32.893Y69.85
X36.9Y61.40602
X44.577Y63.5
X50.673Y60.00902
X33.909Y80.645
X39.878Y83.185
X46.99Y86.995
X28.194Y86.868
X39.56202Y67.183
X40.513Y70.104
X46.101Y71.74408
T02
X18.91204Y77.09593G85X18.01204Y77.09593
X18.91203Y68.44591G85X18.012Y68.44591
X14.56197Y77.09599G85X13.96197Y77.09599
X14.56197Y68.44602G85X13.96197Y68.44602
X27.04407Y56.50404G85X27.04407Y55.60404
X35.69409Y56.50403G85X35.69409Y55.604
X27.04402Y52.15397G85X27.04402Y51.55397
X35.69399Y52.15397G85X35.69399Y51.55397
X40.73543Y56.4682G85X40.73543Y55.5682
X49.38545Y56.46819G85X49.38545Y55.56817
X40.73538Y52.11814G85X40.73538Y51.51814
X49.38535Y52.11814G85X49.38535Y51.51814
T03
X27.45892Y95.95098G85X27.45892Y97.75095
X40.35908Y95.95098G85X40.35908Y97.75095
X46.25492Y95.95098G85X46.25492Y97.75095
X59.15508Y95.95098G85X59.15508Y97.75095
M30