G04 Layer: BottomLayer*
G04 EasyEDA Pro v2.2.47.7, 2026-06-02 22:25:05*
G04 Gerber Generator version 0.3*
G04 Scale: 100 percent, Rotated: No, Reflected: No*
G04 Dimensions in millimeters*
G04 Leading zeros omitted, absolute positions, 4 integers and 5 decimals*
G04 Generated by one-click*
G04 Object Configs: Pad,Via,Track,Text,Image,Dimension,BoardOutline,BoardCutout,CopperFilled,SolidRegion,FPCStiffener,Line,PlaneZone,ComponentProperty,ComponentSilkscreen,TearDrop*
G04 Layer Configs: 1,2,3,4,5,6,7,8,9,10,11,13,14,56*
G04 Copper Areas: 122*
%FSLAX45Y45*%
%MOMM*%
%ADD10C,0.2032*%
%ADD11C,0.254*%
%ADD12O,2.0X1.1*%
%ADD13O,1.8X1.2*%
%ADD14O,1.1X2.0*%
%ADD15O,1.2X1.8*%
%ADD16O,1.2X3.09999*%
%ADD17C,0.6179*%
%ADD18C,0.61*%
G75*


G04 Copper Start*
G36*
G01X4658113Y9870186D02*
G01X5882887Y9870186D01*
G01X5865321Y9861714D01*
G01X5849833Y9849861D01*
G01X5837067Y9835118D01*
G01X5827551Y9818095D01*
G01X5821679Y9799497D01*
G01X5819694Y9780096D01*
G01X5819694Y9590096D01*
G01X5821535Y9571404D01*
G01X5826987Y9553430D01*
G01X5835841Y9536865D01*
G01X5847757Y9522346D01*
G01X5862276Y9510430D01*
G01X5878841Y9501576D01*
G01X5896815Y9496124D01*
G01X5915508Y9494283D01*
G01X5934200Y9496124D01*
G01X5952174Y9501576D01*
G01X5968739Y9510430D01*
G01X5983258Y9522346D01*
G01X5995174Y9536865D01*
G01X6004028Y9553430D01*
G01X6009480Y9571404D01*
G01X6011321Y9590096D01*
G01X6011321Y9780096D01*
G01X6009337Y9799497D01*
G01X6003464Y9818095D01*
G01X5993948Y9835118D01*
G01X5981182Y9849861D01*
G01X5965695Y9861714D01*
G01X5948128Y9870186D01*
G01X6060186Y9870186D01*
G01X6060186Y6009235D01*
G01X5052465Y5001514D01*
G01X2300835Y5001514D01*
G01X2086951Y5215397D01*
G01X2608588Y5215397D01*
G01X2608588Y5155397D01*
G01X2610429Y5136705D01*
G01X2615881Y5118731D01*
G01X2624735Y5102166D01*
G01X2636651Y5087647D01*
G01X2651170Y5075731D01*
G01X2667735Y5066877D01*
G01X2685709Y5061425D01*
G01X2704402Y5059583D01*
G01X2723094Y5061425D01*
G01X2741068Y5066877D01*
G01X2757633Y5075731D01*
G01X2772152Y5087647D01*
G01X2784068Y5102166D01*
G01X2792922Y5118731D01*
G01X2798374Y5136705D01*
G01X2800215Y5155397D01*
G01X2800215Y5215397D01*
G01X3473585Y5215397D01*
G01X3473585Y5155397D01*
G01X3475426Y5136705D01*
G01X3480878Y5118731D01*
G01X3489732Y5102166D01*
G01X3501648Y5087647D01*
G01X3516167Y5075731D01*
G01X3532732Y5066877D01*
G01X3550706Y5061425D01*
G01X3569399Y5059583D01*
G01X3588091Y5061425D01*
G01X3606065Y5066877D01*
G01X3622630Y5075731D01*
G01X3637149Y5087647D01*
G01X3649065Y5102166D01*
G01X3657919Y5118731D01*
G01X3663371Y5136705D01*
G01X3665212Y5155397D01*
G01X3665212Y5211814D01*
G01X3977724Y5211814D01*
G01X3977724Y5151814D01*
G01X3979565Y5133121D01*
G01X3985017Y5115147D01*
G01X3993871Y5098582D01*
G01X4005787Y5084063D01*
G01X4020306Y5072147D01*
G01X4036871Y5063293D01*
G01X4054845Y5057841D01*
G01X4073538Y5056000D01*
G01X4092230Y5057841D01*
G01X4110204Y5063293D01*
G01X4126769Y5072147D01*
G01X4141288Y5084063D01*
G01X4153204Y5098582D01*
G01X4162058Y5115147D01*
G01X4167511Y5133121D01*
G01X4169352Y5151814D01*
G01X4169352Y5211814D01*
G01X4842721Y5211814D01*
G01X4842721Y5151814D01*
G01X4844562Y5133121D01*
G01X4850014Y5115147D01*
G01X4858868Y5098582D01*
G01X4870784Y5084063D01*
G01X4885303Y5072147D01*
G01X4901868Y5063293D01*
G01X4919842Y5057841D01*
G01X4938535Y5056000D01*
G01X4957227Y5057841D01*
G01X4975201Y5063293D01*
G01X4991766Y5072147D01*
G01X5006285Y5084063D01*
G01X5018201Y5098582D01*
G01X5027055Y5115147D01*
G01X5032508Y5133121D01*
G01X5034349Y5151814D01*
G01X5034349Y5211814D01*
G01X5032508Y5230506D01*
G01X5027055Y5248480D01*
G01X5018201Y5265045D01*
G01X5006285Y5279564D01*
G01X4991766Y5291480D01*
G01X4975201Y5300334D01*
G01X4957227Y5305786D01*
G01X4938535Y5307627D01*
G01X4919842Y5305786D01*
G01X4901868Y5300334D01*
G01X4885303Y5291480D01*
G01X4870784Y5279564D01*
G01X4858868Y5265045D01*
G01X4850014Y5248480D01*
G01X4844562Y5230506D01*
G01X4842721Y5211814D01*
G01X4842721Y5211814D01*
G01X4169352Y5211814D01*
G01X4167511Y5230506D01*
G01X4162058Y5248480D01*
G01X4153204Y5265045D01*
G01X4141288Y5279564D01*
G01X4126769Y5291480D01*
G01X4110204Y5300334D01*
G01X4092230Y5305786D01*
G01X4073538Y5307627D01*
G01X4054845Y5305786D01*
G01X4036871Y5300334D01*
G01X4020306Y5291480D01*
G01X4005787Y5279564D01*
G01X3993871Y5265045D01*
G01X3985017Y5248480D01*
G01X3979565Y5230506D01*
G01X3977724Y5211814D01*
G01X3977724Y5211814D01*
G01X3665212Y5211814D01*
G01X3665212Y5215397D01*
G01X3663371Y5234090D01*
G01X3657919Y5252064D01*
G01X3649065Y5268629D01*
G01X3637149Y5283148D01*
G01X3622630Y5295064D01*
G01X3606065Y5303918D01*
G01X3588091Y5309370D01*
G01X3569399Y5311211D01*
G01X3550706Y5309370D01*
G01X3532732Y5303918D01*
G01X3516167Y5295064D01*
G01X3501648Y5283148D01*
G01X3489732Y5268629D01*
G01X3480878Y5252064D01*
G01X3475426Y5234090D01*
G01X3473585Y5215397D01*
G01X3473585Y5215397D01*
G01X2800215Y5215397D01*
G01X2798374Y5234090D01*
G01X2792922Y5252064D01*
G01X2784068Y5268629D01*
G01X2772152Y5283148D01*
G01X2757633Y5295064D01*
G01X2741068Y5303918D01*
G01X2723094Y5309370D01*
G01X2704402Y5311211D01*
G01X2685709Y5309370D01*
G01X2667735Y5303918D01*
G01X2651170Y5295064D01*
G01X2636651Y5283148D01*
G01X2624735Y5268629D01*
G01X2615881Y5252064D01*
G01X2610429Y5234090D01*
G01X2608588Y5215397D01*
G01X2608588Y5215397D01*
G01X2086951Y5215397D01*
G01X1651937Y5650412D01*
G01X2613588Y5650412D01*
G01X2613588Y5560412D01*
G01X2615507Y5541841D01*
G01X2621183Y5524055D01*
G01X2630376Y5507806D01*
G01X2642698Y5493780D01*
G01X2657627Y5482570D01*
G01X2674534Y5474650D01*
G01X2692702Y5470355D01*
G01X2711366Y5469865D01*
G01X2729734Y5473203D01*
G01X2747033Y5480226D01*
G01X2762529Y5490638D01*
G01X2775569Y5503999D01*
G01X2785601Y5519745D01*
G01X2794905Y5506434D01*
G01X2806997Y5495593D01*
G01X2821241Y5487791D01*
G01X2836888Y5483441D01*
G01X2853115Y5482769D01*
G01X2869068Y5485811D01*
G01X2883908Y5492408D01*
G01X2896855Y5502213D01*
G01X2907227Y5514709D01*
G01X2914481Y5529240D01*
G01X2918233Y5545041D01*
G01X2918286Y5561273D01*
G01X3355539Y5561273D01*
G01X3355594Y5545036D01*
G01X3355594Y5545036D01*
G01X3359346Y5529238D01*
G01X3366597Y5514710D01*
G01X3376968Y5502215D01*
G01X3389912Y5492412D01*
G01X3404748Y5485814D01*
G01X3420698Y5482770D01*
G01X3436922Y5483438D01*
G01X3452567Y5487784D01*
G01X3466810Y5495580D01*
G01X3478904Y5506415D01*
G01X3488211Y5519720D01*
G01X3498247Y5503980D01*
G01X3511289Y5490624D01*
G01X3526786Y5480216D01*
G01X3544084Y5473198D01*
G01X3562451Y5469864D01*
G01X3581112Y5470357D01*
G01X3599278Y5474654D01*
G01X3616182Y5482575D01*
G01X3631108Y5493786D01*
G01X3643428Y5507811D01*
G01X3652619Y5524059D01*
G01X3658294Y5541843D01*
G01X3660212Y5560412D01*
G01X3660212Y5646828D01*
G01X3982724Y5646828D01*
G01X3982724Y5556828D01*
G01X3984643Y5538257D01*
G01X3990319Y5520472D01*
G01X3999512Y5504222D01*
G01X4011834Y5490196D01*
G01X4026763Y5478986D01*
G01X4043670Y5471066D01*
G01X4061839Y5466771D01*
G01X4080502Y5466282D01*
G01X4098871Y5469619D01*
G01X4116169Y5476642D01*
G01X4131665Y5487055D01*
G01X4144705Y5500416D01*
G01X4154737Y5516161D01*
G01X4164041Y5502850D01*
G01X4176134Y5492009D01*
G01X4190378Y5484208D01*
G01X4206024Y5479857D01*
G01X4222251Y5479185D01*
G01X4238204Y5482228D01*
G01X4253044Y5488825D01*
G01X4265991Y5498629D01*
G01X4276364Y5511125D01*
G01X4283617Y5525656D01*
G01X4287369Y5541457D01*
G01X4287422Y5557689D01*
G01X4724675Y5557689D01*
G01X4724730Y5541452D01*
G01X4724730Y5541452D01*
G01X4728482Y5525654D01*
G01X4735734Y5511126D01*
G01X4746104Y5498632D01*
G01X4759048Y5488828D01*
G01X4773885Y5482231D01*
G01X4789834Y5479186D01*
G01X4806058Y5479854D01*
G01X4821703Y5484201D01*
G01X4835946Y5491996D01*
G01X4848040Y5502831D01*
G01X4857348Y5516137D01*
G01X4867383Y5500396D01*
G01X4880425Y5487040D01*
G01X4895922Y5476633D01*
G01X4913220Y5469614D01*
G01X4931587Y5466280D01*
G01X4950248Y5466773D01*
G01X4968414Y5471071D01*
G01X4985318Y5478992D01*
G01X5000245Y5490202D01*
G01X5012564Y5504227D01*
G01X5021755Y5520475D01*
G01X5027430Y5538259D01*
G01X5029349Y5556828D01*
G01X5029349Y5646828D01*
G01X5027364Y5665709D01*
G01X5021497Y5683765D01*
G01X5012005Y5700207D01*
G01X4999301Y5714316D01*
G01X4983942Y5725475D01*
G01X4966598Y5733197D01*
G01X4948027Y5737144D01*
G01X4929042Y5737144D01*
G01X4910472Y5733197D01*
G01X4893128Y5725475D01*
G01X4877768Y5714316D01*
G01X4865065Y5700207D01*
G01X4855572Y5683765D01*
G01X4849705Y5665709D01*
G01X4847721Y5646828D01*
G01X4847721Y5597144D01*
G01X4835554Y5607897D01*
G01X4821258Y5615596D01*
G01X4805584Y5619836D01*
G01X4789356Y5620395D01*
G01X4773428Y5617242D01*
G01X4758636Y5610544D01*
G01X4745759Y5600653D01*
G01X4735473Y5588089D01*
G01X4728320Y5573512D01*
G01X4724675Y5557689D01*
G01X4287422Y5557689D01*
G01X4287422Y5557698D01*
G01X4283774Y5573523D01*
G01X4276617Y5588101D01*
G01X4266327Y5600665D01*
G01X4253444Y5610555D01*
G01X4238648Y5617249D01*
G01X4222716Y5620397D01*
G01X4206485Y5619832D01*
G01X4190810Y5615584D01*
G01X4176515Y5607877D01*
G01X4164352Y5597115D01*
G01X4164352Y5646828D01*
G01X4164352Y5646828D01*
G01X4162367Y5665709D01*
G01X4156500Y5683765D01*
G01X4147008Y5700207D01*
G01X4134304Y5714316D01*
G01X4118945Y5725475D01*
G01X4101601Y5733197D01*
G01X4083030Y5737144D01*
G01X4064045Y5737144D01*
G01X4045475Y5733197D01*
G01X4028131Y5725475D01*
G01X4012771Y5714316D01*
G01X4000068Y5700207D01*
G01X3990575Y5683765D01*
G01X3984708Y5665709D01*
G01X3982724Y5646828D01*
G01X3660212Y5646828D01*
G01X3660212Y5650412D01*
G01X3658228Y5669293D01*
G01X3652361Y5687349D01*
G01X3642868Y5703791D01*
G01X3630165Y5717899D01*
G01X3614805Y5729059D01*
G01X3597462Y5736781D01*
G01X3578891Y5740728D01*
G01X3559906Y5740728D01*
G01X3541335Y5736781D01*
G01X3523992Y5729059D01*
G01X3508632Y5717899D01*
G01X3495929Y5703791D01*
G01X3486436Y5687349D01*
G01X3480569Y5669293D01*
G01X3478585Y5650412D01*
G01X3478585Y5600727D01*
G01X3466418Y5611480D01*
G01X3452122Y5619180D01*
G01X3436448Y5623420D01*
G01X3420220Y5623978D01*
G01X3404292Y5620826D01*
G01X3389500Y5614128D01*
G01X3376623Y5604237D01*
G01X3366337Y5591673D01*
G01X3359184Y5577096D01*
G01X3355539Y5561273D01*
G01X2918286Y5561273D01*
G01X2918286Y5561281D01*
G01X2914638Y5577107D01*
G01X2907481Y5591685D01*
G01X2897190Y5604249D01*
G01X2884308Y5614138D01*
G01X2869512Y5620833D01*
G01X2853579Y5623981D01*
G01X2837349Y5623416D01*
G01X2821674Y5619168D01*
G01X2807379Y5611460D01*
G01X2795215Y5600699D01*
G01X2795215Y5650412D01*
G01X2795215Y5650412D01*
G01X2793231Y5669293D01*
G01X2787364Y5687349D01*
G01X2777871Y5703791D01*
G01X2765168Y5717899D01*
G01X2749808Y5729059D01*
G01X2732465Y5736781D01*
G01X2713894Y5740728D01*
G01X2694909Y5740728D01*
G01X2676338Y5736781D01*
G01X2658995Y5729059D01*
G01X2643635Y5717899D01*
G01X2630932Y5703791D01*
G01X2621439Y5687349D01*
G01X2615572Y5669293D01*
G01X2613588Y5650412D01*
G01X1651937Y5650412D01*
G01X1400607Y5901741D01*
G01X1993831Y5901741D01*
G01X1996565Y5890823D01*
G01X2002351Y5881169D01*
G01X2010691Y5873610D01*
G01X2020865Y5868798D01*
G01X2031999Y5867146D01*
G01X2042187Y5868524D01*
G01X2051643Y5872558D01*
G01X2059405Y5878668D01*
G01X2065350Y5886558D01*
G01X2069082Y5895704D01*
G01X2070354Y5905500D01*
G01X2069761Y5909501D01*
G01X5395857Y5909501D01*
G01X5397734Y5897648D01*
G01X5403182Y5886957D01*
G01X5411667Y5878471D01*
G01X5422359Y5873024D01*
G01X5434211Y5871147D01*
G01X5446063Y5873024D01*
G01X5456755Y5878471D01*
G01X5465240Y5886957D01*
G01X5470688Y5897648D01*
G01X5472565Y5909501D01*
G01X5470688Y5921353D01*
G01X5465240Y5932044D01*
G01X5456755Y5940530D01*
G01X5446063Y5945977D01*
G01X5434211Y5947855D01*
G01X5422359Y5945977D01*
G01X5411667Y5940530D01*
G01X5403182Y5932044D01*
G01X5397734Y5921353D01*
G01X5395857Y5909501D01*
G01X5395857Y5909501D01*
G01X2069761Y5909501D01*
G01X2068702Y5916634D01*
G01X2063890Y5926808D01*
G01X2056331Y5935148D01*
G01X2046677Y5940934D01*
G01X2035759Y5943669D01*
G01X2024518Y5943117D01*
G01X2013920Y5939325D01*
G01X2004880Y5932621D01*
G01X2004880Y5932621D01*
G01X1998175Y5923580D01*
G01X1994383Y5912983D01*
G01X1993831Y5901741D01*
G01X1400607Y5901741D01*
G01X1293114Y6009235D01*
G01X1293114Y6583882D01*
G01X3667923Y6583882D01*
G01X3671736Y6568122D01*
G01X3679260Y6553759D01*
G01X3690044Y6541651D01*
G01X3703445Y6532522D01*
G01X3718660Y6526918D01*
G01X3734781Y6525174D01*
G01X3750842Y6527394D01*
G01X3765885Y6533445D01*
G01X3779010Y6542966D01*
G01X3789700Y6542966D01*
G01X3802256Y6544619D01*
G01X3813957Y6549466D01*
G01X3824005Y6557176D01*
G01X3827575Y6560746D01*
G01X4513760Y6560746D01*
G01X4526317Y6562400D01*
G01X4538017Y6567246D01*
G01X4548065Y6574956D01*
G01X5037308Y7064199D01*
G01X5045018Y7074246D01*
G01X5049864Y7085947D01*
G01X5051517Y7098503D01*
G01X5051517Y7370134D01*
G01X5049864Y7382690D01*
G01X5045018Y7394391D01*
G01X5037308Y7404438D01*
G01X4982417Y7459329D01*
G01X4972369Y7467039D01*
G01X4960668Y7471886D01*
G01X4948112Y7473539D01*
G01X4857693Y7473539D01*
G01X4844609Y7483037D01*
G01X4829616Y7489087D01*
G01X4813604Y7491329D01*
G01X4797526Y7489630D01*
G01X4782337Y7484090D01*
G01X4768939Y7475040D01*
G01X4758130Y7463016D01*
G01X4750552Y7448734D01*
G01X4746655Y7433043D01*
G01X4746672Y7416875D01*
G01X4750600Y7401191D01*
G01X4758206Y7386925D01*
G01X4750600Y7372658D01*
G01X4746672Y7356974D01*
G01X4746655Y7340806D01*
G01X4750552Y7325115D01*
G01X4758130Y7310833D01*
G01X4768939Y7298809D01*
G01X4782337Y7289759D01*
G01X4797526Y7284219D01*
G01X4813604Y7282520D01*
G01X4829616Y7284762D01*
G01X4844609Y7290812D01*
G01X4857693Y7300311D01*
G01X4899280Y7300311D01*
G01X4913849Y7285742D01*
G01X4913849Y7135432D01*
G01X4476832Y6698414D01*
G01X4476832Y6698414D01*
G01X3828220Y6698414D01*
G01X3824650Y6701985D01*
G01X3814602Y6709695D01*
G01X3802901Y6714542D01*
G01X3790345Y6716195D01*
G01X3779655Y6716195D01*
G01X3766612Y6725670D01*
G01X3751668Y6731719D01*
G01X3735706Y6733983D01*
G01X3719670Y6732328D01*
G01X3704507Y6726852D01*
G01X3691113Y6717879D01*
G01X3680280Y6705939D01*
G01X3672649Y6691738D01*
G01X3668670Y6676115D01*
G01X3668578Y6659994D01*
G01X3672379Y6644327D01*
G01X3679849Y6630040D01*
G01X3672104Y6615795D01*
G01X3668048Y6600096D01*
G01X3667923Y6583882D01*
G01X1293114Y6583882D01*
G01X1293114Y6844602D01*
G01X1300383Y6844602D01*
G01X1302225Y6825909D01*
G01X1307677Y6807935D01*
G01X1316531Y6791370D01*
G01X1328447Y6776851D01*
G01X1342966Y6764935D01*
G01X1359531Y6756081D01*
G01X1377505Y6750629D01*
G01X1396197Y6748788D01*
G01X1456197Y6748788D01*
G01X1474890Y6750629D01*
G01X1492864Y6756081D01*
G01X1509429Y6764935D01*
G01X1523948Y6776851D01*
G01X1535864Y6791370D01*
G01X1544718Y6807935D01*
G01X1550170Y6825909D01*
G01X1552011Y6844602D01*
G01X1551327Y6851549D01*
G01X1710664Y6851549D01*
G01X1711157Y6832888D01*
G01X1715454Y6814722D01*
G01X1723375Y6797818D01*
G01X1734586Y6782892D01*
G01X1748611Y6770572D01*
G01X1764859Y6761381D01*
G01X1782643Y6755706D01*
G01X1801212Y6753788D01*
G01X1801212Y6753788D01*
G01X1891212Y6753788D01*
G01X1910093Y6755772D01*
G01X1928149Y6761639D01*
G01X1944591Y6771132D01*
G01X1958699Y6783835D01*
G01X1969859Y6799195D01*
G01X1977581Y6816538D01*
G01X1981528Y6835109D01*
G01X1981528Y6854094D01*
G01X1977581Y6872665D01*
G01X1969859Y6890008D01*
G01X1958699Y6905368D01*
G01X1944591Y6918071D01*
G01X1928149Y6927564D01*
G01X1910093Y6933431D01*
G01X1891212Y6935415D01*
G01X1841527Y6935415D01*
G01X1852280Y6947582D01*
G01X1859980Y6961878D01*
G01X1864220Y6977552D01*
G01X1864778Y6993780D01*
G01X1861626Y7009708D01*
G01X1854928Y7024500D01*
G01X1845037Y7037377D01*
G01X1832473Y7047663D01*
G01X1817896Y7054816D01*
G01X1802073Y7058461D01*
G01X1785836Y7058406D01*
G01X1770038Y7054654D01*
G01X1755510Y7047403D01*
G01X1743015Y7037032D01*
G01X1733212Y7024088D01*
G01X1726614Y7009252D01*
G01X1723570Y6993302D01*
G01X1724238Y6977078D01*
G01X1728584Y6961433D01*
G01X1736380Y6947190D01*
G01X1747215Y6935096D01*
G01X1760520Y6925789D01*
G01X1744780Y6915753D01*
G01X1731424Y6902711D01*
G01X1721016Y6887214D01*
G01X1713998Y6869916D01*
G01X1710664Y6851549D01*
G01X1551327Y6851549D01*
G01X1550170Y6863294D01*
G01X1544718Y6881268D01*
G01X1535864Y6897833D01*
G01X1523948Y6912352D01*
G01X1509429Y6924268D01*
G01X1492864Y6933122D01*
G01X1474890Y6938574D01*
G01X1456197Y6940415D01*
G01X1456197Y6940415D01*
G01X1396197Y6940415D01*
G01X1377505Y6938574D01*
G01X1359531Y6933122D01*
G01X1342966Y6924268D01*
G01X1328447Y6912352D01*
G01X1316531Y6897833D01*
G01X1307677Y6881268D01*
G01X1302225Y6863294D01*
G01X1300383Y6844602D01*
G01X1293114Y6844602D01*
G01X1293114Y7709599D01*
G01X1300383Y7709599D01*
G01X1302225Y7690906D01*
G01X1307677Y7672932D01*
G01X1316531Y7656367D01*
G01X1328447Y7641848D01*
G01X1342966Y7629932D01*
G01X1359531Y7621078D01*
G01X1377505Y7615626D01*
G01X1396197Y7613785D01*
G01X1456197Y7613785D01*
G01X1474890Y7615626D01*
G01X1492864Y7621078D01*
G01X1509429Y7629932D01*
G01X1523948Y7641848D01*
G01X1535864Y7656367D01*
G01X1544718Y7672932D01*
G01X1550170Y7690906D01*
G01X1551325Y7702634D01*
G01X1710665Y7702634D01*
G01X1714003Y7684266D01*
G01X1721026Y7666967D01*
G01X1731438Y7651471D01*
G01X1744799Y7638431D01*
G01X1760545Y7628399D01*
G01X1747234Y7619095D01*
G01X1736393Y7607003D01*
G01X1728591Y7592759D01*
G01X1724241Y7577112D01*
G01X1723569Y7560885D01*
G01X1726611Y7544932D01*
G01X1733208Y7530092D01*
G01X1743013Y7517145D01*
G01X1755509Y7506773D01*
G01X1770040Y7499519D01*
G01X1785841Y7495767D01*
G01X1802081Y7495714D01*
G01X1817907Y7499362D01*
G01X1832485Y7506519D01*
G01X1845049Y7516810D01*
G01X1854938Y7529692D01*
G01X1861633Y7544488D01*
G01X1864781Y7560421D01*
G01X1864216Y7576651D01*
G01X1859968Y7592326D01*
G01X1852260Y7606621D01*
G01X1841499Y7618785D01*
G01X1891212Y7618785D01*
G01X1891212Y7618785D01*
G01X1910093Y7620769D01*
G01X1928149Y7626636D01*
G01X1944591Y7636129D01*
G01X1958699Y7648832D01*
G01X1969859Y7664192D01*
G01X1977581Y7681535D01*
G01X1981528Y7700106D01*
G01X1981528Y7719091D01*
G01X1977581Y7737662D01*
G01X1969859Y7755005D01*
G01X1958699Y7770365D01*
G01X1944591Y7783068D01*
G01X1928149Y7792561D01*
G01X1910093Y7798428D01*
G01X1891212Y7800412D01*
G01X1801212Y7800412D01*
G01X1782641Y7798493D01*
G01X1764855Y7792817D01*
G01X1748606Y7783624D01*
G01X1734580Y7771302D01*
G01X1723370Y7756373D01*
G01X1715450Y7739466D01*
G01X1711155Y7721298D01*
G01X1710665Y7702634D01*
G01X1551325Y7702634D01*
G01X1552011Y7709599D01*
G01X1550170Y7728291D01*
G01X1544718Y7746265D01*
G01X1535864Y7762830D01*
G01X1523948Y7777349D01*
G01X1509429Y7789265D01*
G01X1492864Y7798119D01*
G01X1474890Y7803571D01*
G01X1456197Y7805412D01*
G01X1456197Y7805412D01*
G01X1396197Y7805412D01*
G01X1377505Y7803571D01*
G01X1359531Y7798119D01*
G01X1342966Y7789265D01*
G01X1328447Y7777349D01*
G01X1316531Y7762830D01*
G01X1307677Y7746265D01*
G01X1302225Y7728291D01*
G01X1300383Y7709599D01*
G01X1293114Y7709599D01*
G01X1293114Y8255000D01*
G01X5397246Y8255000D01*
G01X5399123Y8243148D01*
G01X5404571Y8232456D01*
G01X5413056Y8223971D01*
G01X5423748Y8218523D01*
G01X5435600Y8216646D01*
G01X5447452Y8218523D01*
G01X5458144Y8223971D01*
G01X5466629Y8232456D01*
G01X5472077Y8243148D01*
G01X5473954Y8255000D01*
G01X5472077Y8266852D01*
G01X5466629Y8277544D01*
G01X5458144Y8286029D01*
G01X5447452Y8291477D01*
G01X5435600Y8293354D01*
G01X5423748Y8291477D01*
G01X5413056Y8286029D01*
G01X5404571Y8277544D01*
G01X5399123Y8266852D01*
G01X5397246Y8255000D01*
G01X5397246Y8255000D01*
G01X1293114Y8255000D01*
G01X1293114Y8849765D01*
G01X1549249Y9105900D01*
G01X2057146Y9105900D01*
G01X2059023Y9094048D01*
G01X2064471Y9083356D01*
G01X2072956Y9074871D01*
G01X2083648Y9069423D01*
G01X2095500Y9067546D01*
G01X2107352Y9069423D01*
G01X2118044Y9074871D01*
G01X2126529Y9083356D01*
G01X2131977Y9094048D01*
G01X2133854Y9105900D01*
G01X2131977Y9117752D01*
G01X2126529Y9128444D01*
G01X2118044Y9136929D01*
G01X2107352Y9142377D01*
G01X2095500Y9144254D01*
G01X2083648Y9142377D01*
G01X2072956Y9136929D01*
G01X2064471Y9128444D01*
G01X2059023Y9117752D01*
G01X2057146Y9105900D01*
G01X2057146Y9105900D01*
G01X1549249Y9105900D01*
G01X2313535Y9870186D01*
G01X2713272Y9870186D01*
G01X2695705Y9861714D01*
G01X2680218Y9849861D01*
G01X2667452Y9835118D01*
G01X2657936Y9818095D01*
G01X2652063Y9799497D01*
G01X2650079Y9780096D01*
G01X2650079Y9590096D01*
G01X2651920Y9571404D01*
G01X2657372Y9553430D01*
G01X2666226Y9536865D01*
G01X2678142Y9522346D01*
G01X2692661Y9510430D01*
G01X2709226Y9501576D01*
G01X2727200Y9496124D01*
G01X2745892Y9494283D01*
G01X2764585Y9496124D01*
G01X2782559Y9501576D01*
G01X2799124Y9510430D01*
G01X2813643Y9522346D01*
G01X2825559Y9536865D01*
G01X2834413Y9553430D01*
G01X2839865Y9571404D01*
G01X2841706Y9590096D01*
G01X2841706Y9780096D01*
G01X2839721Y9799497D01*
G01X2833849Y9818095D01*
G01X2824333Y9835118D01*
G01X2811567Y9849861D01*
G01X2796079Y9861714D01*
G01X2778513Y9870186D01*
G01X4003287Y9870186D01*
G01X3985721Y9861714D01*
G01X3970233Y9849861D01*
G01X3957467Y9835118D01*
G01X3947951Y9818095D01*
G01X3942079Y9799497D01*
G01X3940094Y9780096D01*
G01X3940094Y9590096D01*
G01X3941935Y9571404D01*
G01X3947387Y9553430D01*
G01X3956241Y9536865D01*
G01X3968157Y9522346D01*
G01X3982676Y9510430D01*
G01X3999241Y9501576D01*
G01X4017215Y9496124D01*
G01X4035908Y9494283D01*
G01X4054600Y9496124D01*
G01X4072574Y9501576D01*
G01X4089139Y9510430D01*
G01X4103658Y9522346D01*
G01X4115574Y9536865D01*
G01X4124428Y9553430D01*
G01X4129880Y9571404D01*
G01X4131721Y9590096D01*
G01X4131721Y9780096D01*
G01X4129737Y9799497D01*
G01X4123864Y9818095D01*
G01X4114348Y9835118D01*
G01X4101582Y9849861D01*
G01X4086095Y9861714D01*
G01X4068528Y9870186D01*
G01X4592872Y9870186D01*
G01X4575305Y9861714D01*
G01X4559818Y9849861D01*
G01X4547052Y9835118D01*
G01X4537536Y9818095D01*
G01X4531663Y9799497D01*
G01X4529679Y9780096D01*
G01X4529679Y9590096D01*
G01X4531520Y9571404D01*
G01X4536972Y9553430D01*
G01X4545826Y9536865D01*
G01X4557742Y9522346D01*
G01X4572261Y9510430D01*
G01X4588826Y9501576D01*
G01X4606800Y9496124D01*
G01X4625492Y9494283D01*
G01X4644185Y9496124D01*
G01X4662159Y9501576D01*
G01X4678724Y9510430D01*
G01X4693243Y9522346D01*
G01X4705159Y9536865D01*
G01X4714013Y9553430D01*
G01X4719465Y9571404D01*
G01X4721306Y9590096D01*
G01X4721306Y9780096D01*
G01X4719321Y9799497D01*
G01X4713449Y9818095D01*
G01X4703933Y9835118D01*
G01X4691167Y9849861D01*
G01X4675679Y9861714D01*
G01X4658113Y9870186D01*
G37*
G36*
G01X4658113Y9870186D02*
G01X5882887Y9870186D01*
G01X5865321Y9861714D01*
G01X5849833Y9849861D01*
G01X5837067Y9835118D01*
G01X5827551Y9818095D01*
G01X5821679Y9799497D01*
G01X5819694Y9780096D01*
G01X5819694Y9590096D01*
G01X5821535Y9571404D01*
G01X5826987Y9553430D01*
G01X5835841Y9536865D01*
G01X5847757Y9522346D01*
G01X5862276Y9510430D01*
G01X5878841Y9501576D01*
G01X5896815Y9496124D01*
G01X5915508Y9494283D01*
G01X5934200Y9496124D01*
G01X5952174Y9501576D01*
G01X5968739Y9510430D01*
G01X5983258Y9522346D01*
G01X5995174Y9536865D01*
G01X6004028Y9553430D01*
G01X6009480Y9571404D01*
G01X6011321Y9590096D01*
G01X6011321Y9780096D01*
G01X6009337Y9799497D01*
G01X6003464Y9818095D01*
G01X5993948Y9835118D01*
G01X5981182Y9849861D01*
G01X5965695Y9861714D01*
G01X5948128Y9870186D01*
G01X6060186Y9870186D01*
G01X6060186Y6009235D01*
G01X5052465Y5001514D01*
G01X2300835Y5001514D01*
G01X2086951Y5215397D01*
G01X2608588Y5215397D01*
G01X2608588Y5155397D01*
G01X2610429Y5136705D01*
G01X2615881Y5118731D01*
G01X2624735Y5102166D01*
G01X2636651Y5087647D01*
G01X2651170Y5075731D01*
G01X2667735Y5066877D01*
G01X2685709Y5061425D01*
G01X2704402Y5059583D01*
G01X2723094Y5061425D01*
G01X2741068Y5066877D01*
G01X2757633Y5075731D01*
G01X2772152Y5087647D01*
G01X2784068Y5102166D01*
G01X2792922Y5118731D01*
G01X2798374Y5136705D01*
G01X2800215Y5155397D01*
G01X2800215Y5215397D01*
G01X3473585Y5215397D01*
G01X3473585Y5155397D01*
G01X3475426Y5136705D01*
G01X3480878Y5118731D01*
G01X3489732Y5102166D01*
G01X3501648Y5087647D01*
G01X3516167Y5075731D01*
G01X3532732Y5066877D01*
G01X3550706Y5061425D01*
G01X3569399Y5059583D01*
G01X3588091Y5061425D01*
G01X3606065Y5066877D01*
G01X3622630Y5075731D01*
G01X3637149Y5087647D01*
G01X3649065Y5102166D01*
G01X3657919Y5118731D01*
G01X3663371Y5136705D01*
G01X3665212Y5155397D01*
G01X3665212Y5211814D01*
G01X3977724Y5211814D01*
G01X3977724Y5151814D01*
G01X3979565Y5133121D01*
G01X3985017Y5115147D01*
G01X3993871Y5098582D01*
G01X4005787Y5084063D01*
G01X4020306Y5072147D01*
G01X4036871Y5063293D01*
G01X4054845Y5057841D01*
G01X4073538Y5056000D01*
G01X4092230Y5057841D01*
G01X4110204Y5063293D01*
G01X4126769Y5072147D01*
G01X4141288Y5084063D01*
G01X4153204Y5098582D01*
G01X4162058Y5115147D01*
G01X4167511Y5133121D01*
G01X4169352Y5151814D01*
G01X4169352Y5211814D01*
G01X4842721Y5211814D01*
G01X4842721Y5151814D01*
G01X4844562Y5133121D01*
G01X4850014Y5115147D01*
G01X4858868Y5098582D01*
G01X4870784Y5084063D01*
G01X4885303Y5072147D01*
G01X4901868Y5063293D01*
G01X4919842Y5057841D01*
G01X4938535Y5056000D01*
G01X4957227Y5057841D01*
G01X4975201Y5063293D01*
G01X4991766Y5072147D01*
G01X5006285Y5084063D01*
G01X5018201Y5098582D01*
G01X5027055Y5115147D01*
G01X5032508Y5133121D01*
G01X5034349Y5151814D01*
G01X5034349Y5211814D01*
G01X5032508Y5230506D01*
G01X5027055Y5248480D01*
G01X5018201Y5265045D01*
G01X5006285Y5279564D01*
G01X4991766Y5291480D01*
G01X4975201Y5300334D01*
G01X4957227Y5305786D01*
G01X4938535Y5307627D01*
G01X4919842Y5305786D01*
G01X4901868Y5300334D01*
G01X4885303Y5291480D01*
G01X4870784Y5279564D01*
G01X4858868Y5265045D01*
G01X4850014Y5248480D01*
G01X4844562Y5230506D01*
G01X4842721Y5211814D01*
G01X4842721Y5211814D01*
G01X4169352Y5211814D01*
G01X4167511Y5230506D01*
G01X4162058Y5248480D01*
G01X4153204Y5265045D01*
G01X4141288Y5279564D01*
G01X4126769Y5291480D01*
G01X4110204Y5300334D01*
G01X4092230Y5305786D01*
G01X4073538Y5307627D01*
G01X4054845Y5305786D01*
G01X4036871Y5300334D01*
G01X4020306Y5291480D01*
G01X4005787Y5279564D01*
G01X3993871Y5265045D01*
G01X3985017Y5248480D01*
G01X3979565Y5230506D01*
G01X3977724Y5211814D01*
G01X3977724Y5211814D01*
G01X3665212Y5211814D01*
G01X3665212Y5215397D01*
G01X3663371Y5234090D01*
G01X3657919Y5252064D01*
G01X3649065Y5268629D01*
G01X3637149Y5283148D01*
G01X3622630Y5295064D01*
G01X3606065Y5303918D01*
G01X3588091Y5309370D01*
G01X3569399Y5311211D01*
G01X3550706Y5309370D01*
G01X3532732Y5303918D01*
G01X3516167Y5295064D01*
G01X3501648Y5283148D01*
G01X3489732Y5268629D01*
G01X3480878Y5252064D01*
G01X3475426Y5234090D01*
G01X3473585Y5215397D01*
G01X3473585Y5215397D01*
G01X2800215Y5215397D01*
G01X2798374Y5234090D01*
G01X2792922Y5252064D01*
G01X2784068Y5268629D01*
G01X2772152Y5283148D01*
G01X2757633Y5295064D01*
G01X2741068Y5303918D01*
G01X2723094Y5309370D01*
G01X2704402Y5311211D01*
G01X2685709Y5309370D01*
G01X2667735Y5303918D01*
G01X2651170Y5295064D01*
G01X2636651Y5283148D01*
G01X2624735Y5268629D01*
G01X2615881Y5252064D01*
G01X2610429Y5234090D01*
G01X2608588Y5215397D01*
G01X2608588Y5215397D01*
G01X2086951Y5215397D01*
G01X1651937Y5650412D01*
G01X2613588Y5650412D01*
G01X2613588Y5560412D01*
G01X2615507Y5541841D01*
G01X2621183Y5524055D01*
G01X2630376Y5507806D01*
G01X2642698Y5493780D01*
G01X2657627Y5482570D01*
G01X2674534Y5474650D01*
G01X2692702Y5470355D01*
G01X2711366Y5469865D01*
G01X2729734Y5473203D01*
G01X2747033Y5480226D01*
G01X2762529Y5490638D01*
G01X2775569Y5503999D01*
G01X2785601Y5519745D01*
G01X2794905Y5506434D01*
G01X2806997Y5495593D01*
G01X2821241Y5487791D01*
G01X2836888Y5483441D01*
G01X2853115Y5482769D01*
G01X2869068Y5485811D01*
G01X2883908Y5492408D01*
G01X2896855Y5502213D01*
G01X2907227Y5514709D01*
G01X2914481Y5529240D01*
G01X2918233Y5545041D01*
G01X2918286Y5561273D01*
G01X3355539Y5561273D01*
G01X3355594Y5545036D01*
G01X3355594Y5545036D01*
G01X3359346Y5529238D01*
G01X3366597Y5514710D01*
G01X3376968Y5502215D01*
G01X3389912Y5492412D01*
G01X3404748Y5485814D01*
G01X3420698Y5482770D01*
G01X3436922Y5483438D01*
G01X3452567Y5487784D01*
G01X3466810Y5495580D01*
G01X3478904Y5506415D01*
G01X3488211Y5519720D01*
G01X3498247Y5503980D01*
G01X3511289Y5490624D01*
G01X3526786Y5480216D01*
G01X3544084Y5473198D01*
G01X3562451Y5469864D01*
G01X3581112Y5470357D01*
G01X3599278Y5474654D01*
G01X3616182Y5482575D01*
G01X3631108Y5493786D01*
G01X3643428Y5507811D01*
G01X3652619Y5524059D01*
G01X3658294Y5541843D01*
G01X3660212Y5560412D01*
G01X3660212Y5646828D01*
G01X3982724Y5646828D01*
G01X3982724Y5556828D01*
G01X3984643Y5538257D01*
G01X3990319Y5520472D01*
G01X3999512Y5504222D01*
G01X4011834Y5490196D01*
G01X4026763Y5478986D01*
G01X4043670Y5471066D01*
G01X4061839Y5466771D01*
G01X4080502Y5466282D01*
G01X4098871Y5469619D01*
G01X4116169Y5476642D01*
G01X4131665Y5487055D01*
G01X4144705Y5500416D01*
G01X4154737Y5516161D01*
G01X4164041Y5502850D01*
G01X4176134Y5492009D01*
G01X4190378Y5484208D01*
G01X4206024Y5479857D01*
G01X4222251Y5479185D01*
G01X4238204Y5482228D01*
G01X4253044Y5488825D01*
G01X4265991Y5498629D01*
G01X4276364Y5511125D01*
G01X4283617Y5525656D01*
G01X4287369Y5541457D01*
G01X4287422Y5557689D01*
G01X4724675Y5557689D01*
G01X4724730Y5541452D01*
G01X4724730Y5541452D01*
G01X4728482Y5525654D01*
G01X4735734Y5511126D01*
G01X4746104Y5498632D01*
G01X4759048Y5488828D01*
G01X4773885Y5482231D01*
G01X4789834Y5479186D01*
G01X4806058Y5479854D01*
G01X4821703Y5484201D01*
G01X4835946Y5491996D01*
G01X4848040Y5502831D01*
G01X4857348Y5516137D01*
G01X4867383Y5500396D01*
G01X4880425Y5487040D01*
G01X4895922Y5476633D01*
G01X4913220Y5469614D01*
G01X4931587Y5466280D01*
G01X4950248Y5466773D01*
G01X4968414Y5471071D01*
G01X4985318Y5478992D01*
G01X5000245Y5490202D01*
G01X5012564Y5504227D01*
G01X5021755Y5520475D01*
G01X5027430Y5538259D01*
G01X5029349Y5556828D01*
G01X5029349Y5646828D01*
G01X5027364Y5665709D01*
G01X5021497Y5683765D01*
G01X5012005Y5700207D01*
G01X4999301Y5714316D01*
G01X4983942Y5725475D01*
G01X4966598Y5733197D01*
G01X4948027Y5737144D01*
G01X4929042Y5737144D01*
G01X4910472Y5733197D01*
G01X4893128Y5725475D01*
G01X4877768Y5714316D01*
G01X4865065Y5700207D01*
G01X4855572Y5683765D01*
G01X4849705Y5665709D01*
G01X4847721Y5646828D01*
G01X4847721Y5597144D01*
G01X4835554Y5607897D01*
G01X4821258Y5615596D01*
G01X4805584Y5619836D01*
G01X4789356Y5620395D01*
G01X4773428Y5617242D01*
G01X4758636Y5610544D01*
G01X4745759Y5600653D01*
G01X4735473Y5588089D01*
G01X4728320Y5573512D01*
G01X4724675Y5557689D01*
G01X4287422Y5557689D01*
G01X4287422Y5557698D01*
G01X4283774Y5573523D01*
G01X4276617Y5588101D01*
G01X4266327Y5600665D01*
G01X4253444Y5610555D01*
G01X4238648Y5617249D01*
G01X4222716Y5620397D01*
G01X4206485Y5619832D01*
G01X4190810Y5615584D01*
G01X4176515Y5607877D01*
G01X4164352Y5597115D01*
G01X4164352Y5646828D01*
G01X4164352Y5646828D01*
G01X4162367Y5665709D01*
G01X4156500Y5683765D01*
G01X4147008Y5700207D01*
G01X4134304Y5714316D01*
G01X4118945Y5725475D01*
G01X4101601Y5733197D01*
G01X4083030Y5737144D01*
G01X4064045Y5737144D01*
G01X4045475Y5733197D01*
G01X4028131Y5725475D01*
G01X4012771Y5714316D01*
G01X4000068Y5700207D01*
G01X3990575Y5683765D01*
G01X3984708Y5665709D01*
G01X3982724Y5646828D01*
G01X3660212Y5646828D01*
G01X3660212Y5650412D01*
G01X3658228Y5669293D01*
G01X3652361Y5687349D01*
G01X3642868Y5703791D01*
G01X3630165Y5717899D01*
G01X3614805Y5729059D01*
G01X3597462Y5736781D01*
G01X3578891Y5740728D01*
G01X3559906Y5740728D01*
G01X3541335Y5736781D01*
G01X3523992Y5729059D01*
G01X3508632Y5717899D01*
G01X3495929Y5703791D01*
G01X3486436Y5687349D01*
G01X3480569Y5669293D01*
G01X3478585Y5650412D01*
G01X3478585Y5600727D01*
G01X3466418Y5611480D01*
G01X3452122Y5619180D01*
G01X3436448Y5623420D01*
G01X3420220Y5623978D01*
G01X3404292Y5620826D01*
G01X3389500Y5614128D01*
G01X3376623Y5604237D01*
G01X3366337Y5591673D01*
G01X3359184Y5577096D01*
G01X3355539Y5561273D01*
G01X2918286Y5561273D01*
G01X2918286Y5561281D01*
G01X2914638Y5577107D01*
G01X2907481Y5591685D01*
G01X2897190Y5604249D01*
G01X2884308Y5614138D01*
G01X2869512Y5620833D01*
G01X2853579Y5623981D01*
G01X2837349Y5623416D01*
G01X2821674Y5619168D01*
G01X2807379Y5611460D01*
G01X2795215Y5600699D01*
G01X2795215Y5650412D01*
G01X2795215Y5650412D01*
G01X2793231Y5669293D01*
G01X2787364Y5687349D01*
G01X2777871Y5703791D01*
G01X2765168Y5717899D01*
G01X2749808Y5729059D01*
G01X2732465Y5736781D01*
G01X2713894Y5740728D01*
G01X2694909Y5740728D01*
G01X2676338Y5736781D01*
G01X2658995Y5729059D01*
G01X2643635Y5717899D01*
G01X2630932Y5703791D01*
G01X2621439Y5687349D01*
G01X2615572Y5669293D01*
G01X2613588Y5650412D01*
G01X1651937Y5650412D01*
G01X1400607Y5901741D01*
G01X1993831Y5901741D01*
G01X1996565Y5890823D01*
G01X2002351Y5881169D01*
G01X2010691Y5873610D01*
G01X2020865Y5868798D01*
G01X2031999Y5867146D01*
G01X2042187Y5868524D01*
G01X2051643Y5872558D01*
G01X2059405Y5878668D01*
G01X2065350Y5886558D01*
G01X2069082Y5895704D01*
G01X2070354Y5905500D01*
G01X2069761Y5909501D01*
G01X5395857Y5909501D01*
G01X5397734Y5897648D01*
G01X5403182Y5886957D01*
G01X5411667Y5878471D01*
G01X5422359Y5873024D01*
G01X5434211Y5871147D01*
G01X5446063Y5873024D01*
G01X5456755Y5878471D01*
G01X5465240Y5886957D01*
G01X5470688Y5897648D01*
G01X5472565Y5909501D01*
G01X5470688Y5921353D01*
G01X5465240Y5932044D01*
G01X5456755Y5940530D01*
G01X5446063Y5945977D01*
G01X5434211Y5947855D01*
G01X5422359Y5945977D01*
G01X5411667Y5940530D01*
G01X5403182Y5932044D01*
G01X5397734Y5921353D01*
G01X5395857Y5909501D01*
G01X5395857Y5909501D01*
G01X2069761Y5909501D01*
G01X2068702Y5916634D01*
G01X2063890Y5926808D01*
G01X2056331Y5935148D01*
G01X2046677Y5940934D01*
G01X2035759Y5943669D01*
G01X2024518Y5943117D01*
G01X2013920Y5939325D01*
G01X2004880Y5932621D01*
G01X2004880Y5932621D01*
G01X1998175Y5923580D01*
G01X1994383Y5912983D01*
G01X1993831Y5901741D01*
G01X1400607Y5901741D01*
G01X1293114Y6009235D01*
G01X1293114Y6583882D01*
G01X3667923Y6583882D01*
G01X3671736Y6568122D01*
G01X3679260Y6553759D01*
G01X3690044Y6541651D01*
G01X3703445Y6532522D01*
G01X3718660Y6526918D01*
G01X3734781Y6525174D01*
G01X3750842Y6527394D01*
G01X3765885Y6533445D01*
G01X3779010Y6542966D01*
G01X3789700Y6542966D01*
G01X3802256Y6544619D01*
G01X3813957Y6549466D01*
G01X3824005Y6557176D01*
G01X3827575Y6560746D01*
G01X4513760Y6560746D01*
G01X4526317Y6562400D01*
G01X4538017Y6567246D01*
G01X4548065Y6574956D01*
G01X5037308Y7064199D01*
G01X5045018Y7074246D01*
G01X5049864Y7085947D01*
G01X5051517Y7098503D01*
G01X5051517Y7370134D01*
G01X5049864Y7382690D01*
G01X5045018Y7394391D01*
G01X5037308Y7404438D01*
G01X4982417Y7459329D01*
G01X4972369Y7467039D01*
G01X4960668Y7471886D01*
G01X4948112Y7473539D01*
G01X4857693Y7473539D01*
G01X4844609Y7483037D01*
G01X4829616Y7489087D01*
G01X4813604Y7491329D01*
G01X4797526Y7489630D01*
G01X4782337Y7484090D01*
G01X4768939Y7475040D01*
G01X4758130Y7463016D01*
G01X4750552Y7448734D01*
G01X4746655Y7433043D01*
G01X4746672Y7416875D01*
G01X4750600Y7401191D01*
G01X4758206Y7386925D01*
G01X4750600Y7372658D01*
G01X4746672Y7356974D01*
G01X4746655Y7340806D01*
G01X4750552Y7325115D01*
G01X4758130Y7310833D01*
G01X4768939Y7298809D01*
G01X4782337Y7289759D01*
G01X4797526Y7284219D01*
G01X4813604Y7282520D01*
G01X4829616Y7284762D01*
G01X4844609Y7290812D01*
G01X4857693Y7300311D01*
G01X4899280Y7300311D01*
G01X4913849Y7285742D01*
G01X4913849Y7135432D01*
G01X4476832Y6698414D01*
G01X4476832Y6698414D01*
G01X3828220Y6698414D01*
G01X3824650Y6701985D01*
G01X3814602Y6709695D01*
G01X3802901Y6714542D01*
G01X3790345Y6716195D01*
G01X3779655Y6716195D01*
G01X3766612Y6725670D01*
G01X3751668Y6731719D01*
G01X3735706Y6733983D01*
G01X3719670Y6732328D01*
G01X3704507Y6726852D01*
G01X3691113Y6717879D01*
G01X3680280Y6705939D01*
G01X3672649Y6691738D01*
G01X3668670Y6676115D01*
G01X3668578Y6659994D01*
G01X3672379Y6644327D01*
G01X3679849Y6630040D01*
G01X3672104Y6615795D01*
G01X3668048Y6600096D01*
G01X3667923Y6583882D01*
G01X1293114Y6583882D01*
G01X1293114Y6844602D01*
G01X1300383Y6844602D01*
G01X1302225Y6825909D01*
G01X1307677Y6807935D01*
G01X1316531Y6791370D01*
G01X1328447Y6776851D01*
G01X1342966Y6764935D01*
G01X1359531Y6756081D01*
G01X1377505Y6750629D01*
G01X1396197Y6748788D01*
G01X1456197Y6748788D01*
G01X1474890Y6750629D01*
G01X1492864Y6756081D01*
G01X1509429Y6764935D01*
G01X1523948Y6776851D01*
G01X1535864Y6791370D01*
G01X1544718Y6807935D01*
G01X1550170Y6825909D01*
G01X1552011Y6844602D01*
G01X1551327Y6851549D01*
G01X1710664Y6851549D01*
G01X1711157Y6832888D01*
G01X1715454Y6814722D01*
G01X1723375Y6797818D01*
G01X1734586Y6782892D01*
G01X1748611Y6770572D01*
G01X1764859Y6761381D01*
G01X1782643Y6755706D01*
G01X1801212Y6753788D01*
G01X1801212Y6753788D01*
G01X1891212Y6753788D01*
G01X1910093Y6755772D01*
G01X1928149Y6761639D01*
G01X1944591Y6771132D01*
G01X1958699Y6783835D01*
G01X1969859Y6799195D01*
G01X1977581Y6816538D01*
G01X1981528Y6835109D01*
G01X1981528Y6854094D01*
G01X1977581Y6872665D01*
G01X1969859Y6890008D01*
G01X1958699Y6905368D01*
G01X1944591Y6918071D01*
G01X1928149Y6927564D01*
G01X1910093Y6933431D01*
G01X1891212Y6935415D01*
G01X1841527Y6935415D01*
G01X1852280Y6947582D01*
G01X1859980Y6961878D01*
G01X1864220Y6977552D01*
G01X1864778Y6993780D01*
G01X1861626Y7009708D01*
G01X1854928Y7024500D01*
G01X1845037Y7037377D01*
G01X1832473Y7047663D01*
G01X1817896Y7054816D01*
G01X1802073Y7058461D01*
G01X1785836Y7058406D01*
G01X1770038Y7054654D01*
G01X1755510Y7047403D01*
G01X1743015Y7037032D01*
G01X1733212Y7024088D01*
G01X1726614Y7009252D01*
G01X1723570Y6993302D01*
G01X1724238Y6977078D01*
G01X1728584Y6961433D01*
G01X1736380Y6947190D01*
G01X1747215Y6935096D01*
G01X1760520Y6925789D01*
G01X1744780Y6915753D01*
G01X1731424Y6902711D01*
G01X1721016Y6887214D01*
G01X1713998Y6869916D01*
G01X1710664Y6851549D01*
G01X1551327Y6851549D01*
G01X1550170Y6863294D01*
G01X1544718Y6881268D01*
G01X1535864Y6897833D01*
G01X1523948Y6912352D01*
G01X1509429Y6924268D01*
G01X1492864Y6933122D01*
G01X1474890Y6938574D01*
G01X1456197Y6940415D01*
G01X1456197Y6940415D01*
G01X1396197Y6940415D01*
G01X1377505Y6938574D01*
G01X1359531Y6933122D01*
G01X1342966Y6924268D01*
G01X1328447Y6912352D01*
G01X1316531Y6897833D01*
G01X1307677Y6881268D01*
G01X1302225Y6863294D01*
G01X1300383Y6844602D01*
G01X1293114Y6844602D01*
G01X1293114Y7709599D01*
G01X1300383Y7709599D01*
G01X1302225Y7690906D01*
G01X1307677Y7672932D01*
G01X1316531Y7656367D01*
G01X1328447Y7641848D01*
G01X1342966Y7629932D01*
G01X1359531Y7621078D01*
G01X1377505Y7615626D01*
G01X1396197Y7613785D01*
G01X1456197Y7613785D01*
G01X1474890Y7615626D01*
G01X1492864Y7621078D01*
G01X1509429Y7629932D01*
G01X1523948Y7641848D01*
G01X1535864Y7656367D01*
G01X1544718Y7672932D01*
G01X1550170Y7690906D01*
G01X1551325Y7702634D01*
G01X1710665Y7702634D01*
G01X1714003Y7684266D01*
G01X1721026Y7666967D01*
G01X1731438Y7651471D01*
G01X1744799Y7638431D01*
G01X1760545Y7628399D01*
G01X1747234Y7619095D01*
G01X1736393Y7607003D01*
G01X1728591Y7592759D01*
G01X1724241Y7577112D01*
G01X1723569Y7560885D01*
G01X1726611Y7544932D01*
G01X1733208Y7530092D01*
G01X1743013Y7517145D01*
G01X1755509Y7506773D01*
G01X1770040Y7499519D01*
G01X1785841Y7495767D01*
G01X1802081Y7495714D01*
G01X1817907Y7499362D01*
G01X1832485Y7506519D01*
G01X1845049Y7516810D01*
G01X1854938Y7529692D01*
G01X1861633Y7544488D01*
G01X1864781Y7560421D01*
G01X1864216Y7576651D01*
G01X1859968Y7592326D01*
G01X1852260Y7606621D01*
G01X1841499Y7618785D01*
G01X1891212Y7618785D01*
G01X1891212Y7618785D01*
G01X1910093Y7620769D01*
G01X1928149Y7626636D01*
G01X1944591Y7636129D01*
G01X1958699Y7648832D01*
G01X1969859Y7664192D01*
G01X1977581Y7681535D01*
G01X1981528Y7700106D01*
G01X1981528Y7719091D01*
G01X1977581Y7737662D01*
G01X1969859Y7755005D01*
G01X1958699Y7770365D01*
G01X1944591Y7783068D01*
G01X1928149Y7792561D01*
G01X1910093Y7798428D01*
G01X1891212Y7800412D01*
G01X1801212Y7800412D01*
G01X1782641Y7798493D01*
G01X1764855Y7792817D01*
G01X1748606Y7783624D01*
G01X1734580Y7771302D01*
G01X1723370Y7756373D01*
G01X1715450Y7739466D01*
G01X1711155Y7721298D01*
G01X1710665Y7702634D01*
G01X1551325Y7702634D01*
G01X1552011Y7709599D01*
G01X1550170Y7728291D01*
G01X1544718Y7746265D01*
G01X1535864Y7762830D01*
G01X1523948Y7777349D01*
G01X1509429Y7789265D01*
G01X1492864Y7798119D01*
G01X1474890Y7803571D01*
G01X1456197Y7805412D01*
G01X1456197Y7805412D01*
G01X1396197Y7805412D01*
G01X1377505Y7803571D01*
G01X1359531Y7798119D01*
G01X1342966Y7789265D01*
G01X1328447Y7777349D01*
G01X1316531Y7762830D01*
G01X1307677Y7746265D01*
G01X1302225Y7728291D01*
G01X1300383Y7709599D01*
G01X1293114Y7709599D01*
G01X1293114Y8255000D01*
G01X5397246Y8255000D01*
G01X5399123Y8243148D01*
G01X5404571Y8232456D01*
G01X5413056Y8223971D01*
G01X5423748Y8218523D01*
G01X5435600Y8216646D01*
G01X5447452Y8218523D01*
G01X5458144Y8223971D01*
G01X5466629Y8232456D01*
G01X5472077Y8243148D01*
G01X5473954Y8255000D01*
G01X5472077Y8266852D01*
G01X5466629Y8277544D01*
G01X5458144Y8286029D01*
G01X5447452Y8291477D01*
G01X5435600Y8293354D01*
G01X5423748Y8291477D01*
G01X5413056Y8286029D01*
G01X5404571Y8277544D01*
G01X5399123Y8266852D01*
G01X5397246Y8255000D01*
G01X5397246Y8255000D01*
G01X1293114Y8255000D01*
G01X1293114Y8849765D01*
G01X1549249Y9105900D01*
G01X2057146Y9105900D01*
G01X2059023Y9094048D01*
G01X2064471Y9083356D01*
G01X2072956Y9074871D01*
G01X2083648Y9069423D01*
G01X2095500Y9067546D01*
G01X2107352Y9069423D01*
G01X2118044Y9074871D01*
G01X2126529Y9083356D01*
G01X2131977Y9094048D01*
G01X2133854Y9105900D01*
G01X2131977Y9117752D01*
G01X2126529Y9128444D01*
G01X2118044Y9136929D01*
G01X2107352Y9142377D01*
G01X2095500Y9144254D01*
G01X2083648Y9142377D01*
G01X2072956Y9136929D01*
G01X2064471Y9128444D01*
G01X2059023Y9117752D01*
G01X2057146Y9105900D01*
G01X2057146Y9105900D01*
G01X1549249Y9105900D01*
G01X2313535Y9870186D01*
G01X2713272Y9870186D01*
G01X2695705Y9861714D01*
G01X2680218Y9849861D01*
G01X2667452Y9835118D01*
G01X2657936Y9818095D01*
G01X2652063Y9799497D01*
G01X2650079Y9780096D01*
G01X2650079Y9590096D01*
G01X2651920Y9571404D01*
G01X2657372Y9553430D01*
G01X2666226Y9536865D01*
G01X2678142Y9522346D01*
G01X2692661Y9510430D01*
G01X2709226Y9501576D01*
G01X2727200Y9496124D01*
G01X2745892Y9494283D01*
G01X2764585Y9496124D01*
G01X2782559Y9501576D01*
G01X2799124Y9510430D01*
G01X2813643Y9522346D01*
G01X2825559Y9536865D01*
G01X2834413Y9553430D01*
G01X2839865Y9571404D01*
G01X2841706Y9590096D01*
G01X2841706Y9780096D01*
G01X2839721Y9799497D01*
G01X2833849Y9818095D01*
G01X2824333Y9835118D01*
G01X2811567Y9849861D01*
G01X2796079Y9861714D01*
G01X2778513Y9870186D01*
G01X4003287Y9870186D01*
G01X3985721Y9861714D01*
G01X3970233Y9849861D01*
G01X3957467Y9835118D01*
G01X3947951Y9818095D01*
G01X3942079Y9799497D01*
G01X3940094Y9780096D01*
G01X3940094Y9590096D01*
G01X3941935Y9571404D01*
G01X3947387Y9553430D01*
G01X3956241Y9536865D01*
G01X3968157Y9522346D01*
G01X3982676Y9510430D01*
G01X3999241Y9501576D01*
G01X4017215Y9496124D01*
G01X4035908Y9494283D01*
G01X4054600Y9496124D01*
G01X4072574Y9501576D01*
G01X4089139Y9510430D01*
G01X4103658Y9522346D01*
G01X4115574Y9536865D01*
G01X4124428Y9553430D01*
G01X4129880Y9571404D01*
G01X4131721Y9590096D01*
G01X4131721Y9780096D01*
G01X4129737Y9799497D01*
G01X4123864Y9818095D01*
G01X4114348Y9835118D01*
G01X4101582Y9849861D01*
G01X4086095Y9861714D01*
G01X4068528Y9870186D01*
G01X4592872Y9870186D01*
G01X4575305Y9861714D01*
G01X4559818Y9849861D01*
G01X4547052Y9835118D01*
G01X4537536Y9818095D01*
G01X4531663Y9799497D01*
G01X4529679Y9780096D01*
G01X4529679Y9590096D01*
G01X4531520Y9571404D01*
G01X4536972Y9553430D01*
G01X4545826Y9536865D01*
G01X4557742Y9522346D01*
G01X4572261Y9510430D01*
G01X4588826Y9501576D01*
G01X4606800Y9496124D01*
G01X4625492Y9494283D01*
G01X4644185Y9496124D01*
G01X4662159Y9501576D01*
G01X4678724Y9510430D01*
G01X4693243Y9522346D01*
G01X4705159Y9536865D01*
G01X4714013Y9553430D01*
G01X4719465Y9571404D01*
G01X4721306Y9590096D01*
G01X4721306Y9780096D01*
G01X4719321Y9799497D01*
G01X4713449Y9818095D01*
G01X4703933Y9835118D01*
G01X4691167Y9849861D01*
G01X4675679Y9861714D01*
G01X4658113Y9870186D01*
G37*
G54D10*
G01X4658113Y9870186D02*
G01X5882887Y9870186D01*
G03X5819694Y9780096I32620J-90090D01*
G01X5819694Y9590096D01*
G03X6011321Y9590096I95814J0D01*
G01X6011321Y9780096D01*
G03X5948128Y9870186I-95814J0D01*
G01X6060186Y9870186D01*
G01X6060186Y6009235D01*
G01X5052465Y5001514D01*
G01X2300835Y5001514D01*
G01X1293114Y6009235D01*
G01X1293114Y8849765D01*
G01X2313535Y9870186D01*
G01X2713272Y9870186D01*
G03X2650079Y9780096I32620J-90090D01*
G01X2650079Y9590096D01*
G03X2841706Y9590096I95814J0D01*
G01X2841706Y9780096D01*
G03X2778513Y9870186I-95814J0D01*
G01X4003287Y9870186D01*
G03X3940094Y9780096I32620J-90090D01*
G01X3940094Y9590096D01*
G03X4131721Y9590096I95814J0D01*
G01X4131721Y9780096D01*
G03X4068528Y9870186I-95814J0D01*
G01X4592872Y9870186D01*
G03X4529679Y9780096I32620J-90090D01*
G01X4529679Y9590096D01*
G03X4721306Y9590096I95814J0D01*
G01X4721306Y9780096D01*
G03X4658113Y9870186I-95814J0D01*
G01X1456197Y6940415D02*
G01X1396197Y6940415D01*
G03X1396197Y6748788I0J-95814D01*
G01X1456197Y6748788D01*
G03X1456197Y6940415I0J95814D01*
G01X1456197Y7805412D02*
G01X1396197Y7805412D01*
G03X1396197Y7613785I0J-95814D01*
G01X1456197Y7613785D01*
G03X1456197Y7805412I0J95814D01*
G01X1891212Y7618785D02*
G03X1891212Y7800412I0J90814D01*
G01X1801212Y7800412D01*
G03X1760545Y7628399I0J-90814D01*
G03X1785841Y7495767I33648J-62311D01*
G03X1841499Y7618785I8352J70321D01*
G01X1891212Y7618785D01*
G01X1801212Y6753788D02*
G01X1891212Y6753788D01*
G03X1891212Y6935415I0J90814D01*
G01X1841527Y6935415D01*
G03X1785836Y7058406I-47335J52671D01*
G03X1760520Y6925789I8357J-70320D01*
G03X1801212Y6753788I40692J-81187D01*
G01X2004880Y5932621D02*
G03X2031999Y5867146I27120J-27121D01*
G03X2051643Y5872558I1J38354D01*
G03X2070354Y5905500I-19646J32944D01*
G03X2004880Y5932621I-38354J-0D01*
G01X2057146Y9105900D02*
G03X2133854Y9105900I38354J0D01*
G03X2057146Y9105900I-38354J0D01*
G01X2608588Y5215397D02*
G01X2608588Y5155397D01*
G03X2800215Y5155397I95814J0D01*
G01X2800215Y5215397D01*
G03X2608588Y5215397I-95814J0D01*
G01X2795215Y5650412D02*
G03X2613588Y5650412I-90814J0D01*
G01X2613588Y5560412D01*
G03X2785601Y5519745I90814J0D01*
G03X2918233Y5545041I62311J33648D01*
G03X2795215Y5600699I-70321J8352D01*
G01X2795215Y5650412D01*
G01X3355594Y5545036D02*
G03X3488211Y5519720I70320J8357D01*
G03X3660212Y5560412I81187J40692D01*
G01X3660212Y5650412D01*
G03X3478585Y5650412I-90814J0D01*
G01X3478585Y5600727D01*
G03X3355594Y5545036I-52671J-47335D01*
G01X3473585Y5215397D02*
G01X3473585Y5155397D01*
G03X3665212Y5155397I95814J0D01*
G01X3665212Y5215397D01*
G03X3473585Y5215397I-95814J0D01*
G01X4476832Y6698414D02*
G01X3828220Y6698414D01*
G01X3824650Y6701985D01*
G03X3790345Y6716195I-34305J-34305D01*
G01X3779655Y6716195D01*
G03X3691113Y6717879I-45210J-48514D01*
G03X3679849Y6630040I43332J-50198D01*
G03X3690044Y6541651I53951J-38560D01*
G03X3779010Y6542966I43756J49830D01*
G01X3789700Y6542966D01*
G03X3824005Y6557176I0J48514D01*
G01X3827575Y6560746D01*
G01X4513760Y6560746D01*
G03X4548065Y6574956I0J48514D01*
G01X5037308Y7064199D01*
G03X5051517Y7098503I-34305J34305D01*
G01X5051517Y7370134D01*
G03X5037308Y7404438I-48514J0D01*
G01X4982417Y7459329D01*
G03X4948112Y7473539I-34305J-34305D01*
G01X4857693Y7473539D01*
G03X4768939Y7475040I-45210J-48514D01*
G03X4758206Y7386925I43544J-50015D01*
G03X4768939Y7298809I54276J-38100D01*
G03X4857693Y7300311I43544J50015D01*
G01X4899280Y7300311D01*
G01X4913849Y7285742D01*
G01X4913849Y7135432D01*
G01X4476832Y6698414D01*
G01X3977724Y5211814D02*
G01X3977724Y5151814D01*
G03X4169352Y5151814I95814J0D01*
G01X4169352Y5211814D01*
G03X3977724Y5211814I-95814J0D01*
G01X4164352Y5646828D02*
G03X3982724Y5646828I-90814J0D01*
G01X3982724Y5556828D01*
G03X4154737Y5516161I90814J0D01*
G03X4287369Y5541457I62311J33648D01*
G03X4164352Y5597115I-70321J8352D01*
G01X4164352Y5646828D01*
G01X4724730Y5541452D02*
G03X4857348Y5516137I70320J8357D01*
G03X5029349Y5556828I81187J40692D01*
G01X5029349Y5646828D01*
G03X4847721Y5646828I-90814J0D01*
G01X4847721Y5597144D01*
G03X4724730Y5541452I-52671J-47335D01*
G01X4842721Y5211814D02*
G01X4842721Y5151814D01*
G03X5034349Y5151814I95814J0D01*
G01X5034349Y5211814D01*
G03X4842721Y5211814I-95814J0D01*
G01X5395857Y5909501D02*
G03X5472565Y5909501I38354J0D01*
G03X5395857Y5909501I-38354J0D01*
G01X5397246Y8255000D02*
G03X5473954Y8255000I38354J0D01*
G03X5397246Y8255000I-38354J0D01*
G01X4658113Y9870186D02*
G01X5882887Y9870186D01*
G03X5819694Y9780096I32620J-90090D01*
G01X5819694Y9590096D01*
G03X6011321Y9590096I95814J0D01*
G01X6011321Y9780096D01*
G03X5948128Y9870186I-95814J0D01*
G01X6060186Y9870186D01*
G01X6060186Y6009235D01*
G01X5052465Y5001514D01*
G01X2300835Y5001514D01*
G01X1293114Y6009235D01*
G01X1293114Y8849765D01*
G01X2313535Y9870186D01*
G01X2713272Y9870186D01*
G03X2650079Y9780096I32620J-90090D01*
G01X2650079Y9590096D01*
G03X2841706Y9590096I95814J0D01*
G01X2841706Y9780096D01*
G03X2778513Y9870186I-95814J0D01*
G01X4003287Y9870186D01*
G03X3940094Y9780096I32620J-90090D01*
G01X3940094Y9590096D01*
G03X4131721Y9590096I95814J0D01*
G01X4131721Y9780096D01*
G03X4068528Y9870186I-95814J0D01*
G01X4592872Y9870186D01*
G03X4529679Y9780096I32620J-90090D01*
G01X4529679Y9590096D01*
G03X4721306Y9590096I95814J0D01*
G01X4721306Y9780096D01*
G03X4658113Y9870186I-95814J0D01*
G01X1456197Y6940415D02*
G01X1396197Y6940415D01*
G03X1396197Y6748788I0J-95814D01*
G01X1456197Y6748788D01*
G03X1456197Y6940415I0J95814D01*
G01X1456197Y7805412D02*
G01X1396197Y7805412D01*
G03X1396197Y7613785I0J-95814D01*
G01X1456197Y7613785D01*
G03X1456197Y7805412I0J95814D01*
G01X1891212Y7618785D02*
G03X1891212Y7800412I0J90814D01*
G01X1801212Y7800412D01*
G03X1760545Y7628399I0J-90814D01*
G03X1785841Y7495767I33648J-62311D01*
G03X1841499Y7618785I8352J70321D01*
G01X1891212Y7618785D01*
G01X1801212Y6753788D02*
G01X1891212Y6753788D01*
G03X1891212Y6935415I0J90814D01*
G01X1841527Y6935415D01*
G03X1785836Y7058406I-47335J52671D01*
G03X1760520Y6925789I8357J-70320D01*
G03X1801212Y6753788I40692J-81187D01*
G01X2004880Y5932621D02*
G03X2031999Y5867146I27120J-27121D01*
G03X2051643Y5872558I1J38354D01*
G03X2070354Y5905500I-19646J32944D01*
G03X2004880Y5932621I-38354J-0D01*
G01X2057146Y9105900D02*
G03X2133854Y9105900I38354J0D01*
G03X2057146Y9105900I-38354J0D01*
G01X2608588Y5215397D02*
G01X2608588Y5155397D01*
G03X2800215Y5155397I95814J0D01*
G01X2800215Y5215397D01*
G03X2608588Y5215397I-95814J0D01*
G01X2795215Y5650412D02*
G03X2613588Y5650412I-90814J0D01*
G01X2613588Y5560412D01*
G03X2785601Y5519745I90814J0D01*
G03X2918233Y5545041I62311J33648D01*
G03X2795215Y5600699I-70321J8352D01*
G01X2795215Y5650412D01*
G01X3355594Y5545036D02*
G03X3488211Y5519720I70320J8357D01*
G03X3660212Y5560412I81187J40692D01*
G01X3660212Y5650412D01*
G03X3478585Y5650412I-90814J0D01*
G01X3478585Y5600727D01*
G03X3355594Y5545036I-52671J-47335D01*
G01X3473585Y5215397D02*
G01X3473585Y5155397D01*
G03X3665212Y5155397I95814J0D01*
G01X3665212Y5215397D01*
G03X3473585Y5215397I-95814J0D01*
G01X4476832Y6698414D02*
G01X3828220Y6698414D01*
G01X3824650Y6701985D01*
G03X3790345Y6716195I-34305J-34305D01*
G01X3779655Y6716195D01*
G03X3691113Y6717879I-45210J-48514D01*
G03X3679849Y6630040I43332J-50198D01*
G03X3690044Y6541651I53951J-38560D01*
G03X3779010Y6542966I43756J49830D01*
G01X3789700Y6542966D01*
G03X3824005Y6557176I0J48514D01*
G01X3827575Y6560746D01*
G01X4513760Y6560746D01*
G03X4548065Y6574956I0J48514D01*
G01X5037308Y7064199D01*
G03X5051517Y7098503I-34305J34305D01*
G01X5051517Y7370134D01*
G03X5037308Y7404438I-48514J0D01*
G01X4982417Y7459329D01*
G03X4948112Y7473539I-34305J-34305D01*
G01X4857693Y7473539D01*
G03X4768939Y7475040I-45210J-48514D01*
G03X4758206Y7386925I43544J-50015D01*
G03X4768939Y7298809I54276J-38100D01*
G03X4857693Y7300311I43544J50015D01*
G01X4899280Y7300311D01*
G01X4913849Y7285742D01*
G01X4913849Y7135432D01*
G01X4476832Y6698414D01*
G01X3977724Y5211814D02*
G01X3977724Y5151814D01*
G03X4169352Y5151814I95814J0D01*
G01X4169352Y5211814D01*
G03X3977724Y5211814I-95814J0D01*
G01X4164352Y5646828D02*
G03X3982724Y5646828I-90814J0D01*
G01X3982724Y5556828D01*
G03X4154737Y5516161I90814J0D01*
G03X4287369Y5541457I62311J33648D01*
G03X4164352Y5597115I-70321J8352D01*
G01X4164352Y5646828D01*
G01X4724730Y5541452D02*
G03X4857348Y5516137I70320J8357D01*
G03X5029349Y5556828I81187J40692D01*
G01X5029349Y5646828D01*
G03X4847721Y5646828I-90814J0D01*
G01X4847721Y5597144D01*
G03X4724730Y5541452I-52671J-47335D01*
G01X4842721Y5211814D02*
G01X4842721Y5151814D01*
G03X5034349Y5151814I95814J0D01*
G01X5034349Y5211814D01*
G03X4842721Y5211814I-95814J0D01*
G01X5395857Y5909501D02*
G03X5472565Y5909501I38354J0D01*
G03X5395857Y5909501I-38354J0D01*
G01X5397246Y8255000D02*
G03X5473954Y8255000I38354J0D01*
G03X5397246Y8255000I-38354J0D01*
G54D11*
G01X1426197Y6904347D02*
G01X1426197Y6930255D01*
G01X1426197Y6784856D02*
G01X1426197Y6758948D01*
G01X1515943Y6844602D02*
G01X1541851Y6844602D01*
G01X1336451Y6844602D02*
G01X1310543Y6844602D01*
G01X1426197Y7769344D02*
G01X1426197Y7795252D01*
G01X1426197Y7649853D02*
G01X1426197Y7623945D01*
G01X1515943Y7709599D02*
G01X1541851Y7709599D01*
G01X1336451Y7709599D02*
G01X1310543Y7709599D01*
G01X1846212Y6899347D02*
G01X1846212Y6925255D01*
G01X1846212Y6789856D02*
G01X1846212Y6763948D01*
G01X1945958Y6844602D02*
G01X1971866Y6844602D01*
G01X1746466Y6844602D02*
G01X1720558Y6844602D01*
G01X1846212Y7764344D02*
G01X1846212Y7790252D01*
G01X1846212Y7654853D02*
G01X1846212Y7628945D01*
G01X1945958Y7709599D02*
G01X1971866Y7709599D01*
G01X1746466Y7709599D02*
G01X1720558Y7709599D01*
G01X2649656Y5605412D02*
G01X2623748Y5605412D01*
G01X2759147Y5605412D02*
G01X2785055Y5605412D01*
G01X2704402Y5705158D02*
G01X2704402Y5731066D01*
G01X2704402Y5505666D02*
G01X2704402Y5479758D01*
G01X2644656Y5185397D02*
G01X2618748Y5185397D01*
G01X2764147Y5185397D02*
G01X2790055Y5185397D01*
G01X2704402Y5275143D02*
G01X2704402Y5301051D01*
G01X2704402Y5095651D02*
G01X2704402Y5069743D01*
G01X2805638Y9685096D02*
G01X2831546Y9685096D01*
G01X2686147Y9685096D02*
G01X2660239Y9685096D01*
G01X2745892Y9530351D02*
G01X2745892Y9504443D01*
G01X3514653Y5605412D02*
G01X3488745Y5605412D01*
G01X3624144Y5605412D02*
G01X3650052Y5605412D01*
G01X3569399Y5705158D02*
G01X3569399Y5731066D01*
G01X3569399Y5505666D02*
G01X3569399Y5479758D01*
G01X3509653Y5185397D02*
G01X3483745Y5185397D01*
G01X3629144Y5185397D02*
G01X3655052Y5185397D01*
G01X3569399Y5275143D02*
G01X3569399Y5301051D01*
G01X3569399Y5095651D02*
G01X3569399Y5069743D01*
G01X4095653Y9685096D02*
G01X4121561Y9685096D01*
G01X3976162Y9685096D02*
G01X3950254Y9685096D01*
G01X4035908Y9530351D02*
G01X4035908Y9504443D01*
G01X4013792Y5181814D02*
G01X3987884Y5181814D01*
G01X4133284Y5181814D02*
G01X4159192Y5181814D01*
G01X4073538Y5271559D02*
G01X4073538Y5297467D01*
G01X4073538Y5092068D02*
G01X4073538Y5066160D01*
G01X4018792Y5601828D02*
G01X3992884Y5601828D01*
G01X4128284Y5601828D02*
G01X4154192Y5601828D01*
G01X4073538Y5701574D02*
G01X4073538Y5727482D01*
G01X4073538Y5502082D02*
G01X4073538Y5476174D01*
G01X4685238Y9685096D02*
G01X4711146Y9685096D01*
G01X4565747Y9685096D02*
G01X4539839Y9685096D01*
G01X4625492Y9530351D02*
G01X4625492Y9504443D01*
G01X4883789Y5601828D02*
G01X4857881Y5601828D01*
G01X4993281Y5601828D02*
G01X5019189Y5601828D01*
G01X4938535Y5701574D02*
G01X4938535Y5727482D01*
G01X4938535Y5502082D02*
G01X4938535Y5476174D01*
G01X4878789Y5181814D02*
G01X4852881Y5181814D01*
G01X4998281Y5181814D02*
G01X5024189Y5181814D01*
G01X4938535Y5271559D02*
G01X4938535Y5297467D01*
G01X4938535Y5092068D02*
G01X4938535Y5066160D01*
G01X5975253Y9685096D02*
G01X6001161Y9685096D01*
G01X5855762Y9685096D02*
G01X5829854Y9685096D01*
G01X5915508Y9530351D02*
G01X5915508Y9504443D01*
G01X1426197Y6904347D02*
G01X1426197Y6930255D01*
G01X1426197Y6784856D02*
G01X1426197Y6758948D01*
G01X1515943Y6844602D02*
G01X1541851Y6844602D01*
G01X1336451Y6844602D02*
G01X1310543Y6844602D01*
G01X1426197Y7769344D02*
G01X1426197Y7795252D01*
G01X1426197Y7649853D02*
G01X1426197Y7623945D01*
G01X1515943Y7709599D02*
G01X1541851Y7709599D01*
G01X1336451Y7709599D02*
G01X1310543Y7709599D01*
G01X1846212Y6899347D02*
G01X1846212Y6925255D01*
G01X1846212Y6789856D02*
G01X1846212Y6763948D01*
G01X1945958Y6844602D02*
G01X1971866Y6844602D01*
G01X1746466Y6844602D02*
G01X1720558Y6844602D01*
G01X1846212Y7764344D02*
G01X1846212Y7790252D01*
G01X1846212Y7654853D02*
G01X1846212Y7628945D01*
G01X1945958Y7709599D02*
G01X1971866Y7709599D01*
G01X1746466Y7709599D02*
G01X1720558Y7709599D01*
G01X2649656Y5605412D02*
G01X2623748Y5605412D01*
G01X2759147Y5605412D02*
G01X2785055Y5605412D01*
G01X2704402Y5705158D02*
G01X2704402Y5731066D01*
G01X2704402Y5505666D02*
G01X2704402Y5479758D01*
G01X2644656Y5185397D02*
G01X2618748Y5185397D01*
G01X2764147Y5185397D02*
G01X2790055Y5185397D01*
G01X2704402Y5275143D02*
G01X2704402Y5301051D01*
G01X2704402Y5095651D02*
G01X2704402Y5069743D01*
G01X2805638Y9685096D02*
G01X2831546Y9685096D01*
G01X2686147Y9685096D02*
G01X2660239Y9685096D01*
G01X2745892Y9530351D02*
G01X2745892Y9504443D01*
G01X3514653Y5605412D02*
G01X3488745Y5605412D01*
G01X3624144Y5605412D02*
G01X3650052Y5605412D01*
G01X3569399Y5705158D02*
G01X3569399Y5731066D01*
G01X3569399Y5505666D02*
G01X3569399Y5479758D01*
G01X3509653Y5185397D02*
G01X3483745Y5185397D01*
G01X3629144Y5185397D02*
G01X3655052Y5185397D01*
G01X3569399Y5275143D02*
G01X3569399Y5301051D01*
G01X3569399Y5095651D02*
G01X3569399Y5069743D01*
G01X4095653Y9685096D02*
G01X4121561Y9685096D01*
G01X3976162Y9685096D02*
G01X3950254Y9685096D01*
G01X4035908Y9530351D02*
G01X4035908Y9504443D01*
G01X4013792Y5181814D02*
G01X3987884Y5181814D01*
G01X4133284Y5181814D02*
G01X4159192Y5181814D01*
G01X4073538Y5271559D02*
G01X4073538Y5297467D01*
G01X4073538Y5092068D02*
G01X4073538Y5066160D01*
G01X4018792Y5601828D02*
G01X3992884Y5601828D01*
G01X4128284Y5601828D02*
G01X4154192Y5601828D01*
G01X4073538Y5701574D02*
G01X4073538Y5727482D01*
G01X4073538Y5502082D02*
G01X4073538Y5476174D01*
G01X4685238Y9685096D02*
G01X4711146Y9685096D01*
G01X4565747Y9685096D02*
G01X4539839Y9685096D01*
G01X4625492Y9530351D02*
G01X4625492Y9504443D01*
G01X4883789Y5601828D02*
G01X4857881Y5601828D01*
G01X4993281Y5601828D02*
G01X5019189Y5601828D01*
G01X4938535Y5701574D02*
G01X4938535Y5727482D01*
G01X4938535Y5502082D02*
G01X4938535Y5476174D01*
G01X4878789Y5181814D02*
G01X4852881Y5181814D01*
G01X4998281Y5181814D02*
G01X5024189Y5181814D01*
G01X4938535Y5271559D02*
G01X4938535Y5297467D01*
G01X4938535Y5092068D02*
G01X4938535Y5066160D01*
G01X5975253Y9685096D02*
G01X6001161Y9685096D01*
G01X5855762Y9685096D02*
G01X5829854Y9685096D01*
G01X5915508Y9530351D02*
G01X5915508Y9504443D01*
G04 Copper End*

G04 Pad Start*
G54D12*
G01X1846212Y7709599D03*
G01X1846212Y6844602D03*
G54D13*
G01X1426197Y7709599D03*
G01X1426197Y6844602D03*
G54D14*
G01X4073538Y5601828D03*
G01X4938535Y5601828D03*
G54D15*
G01X4073538Y5181814D03*
G01X4938535Y5181814D03*
G54D14*
G01X2704402Y5605412D03*
G01X3569399Y5605412D03*
G54D15*
G01X2704402Y5185397D03*
G01X3569399Y5185397D03*
G54D16*
G01X2745892Y9685096D03*
G01X4035908Y9685096D03*
G01X4625492Y9685096D03*
G01X5915508Y9685096D03*
G04 Pad End*

G04 Via Start*
G54D18*
G01X4699000Y8699500D03*
G01X2819400Y8686800D03*
G01X3956202Y6718300D03*
G01X4051300Y7010400D03*
G01X4610100Y7174408D03*
G01X3086443Y6324600D03*
G01X3734445Y6667681D03*
G01X3733800Y6591480D03*
G01X4812483Y7348825D03*
G01X4812483Y7425025D03*
G01X2146300Y7226300D03*
G01X2501900Y6883400D03*
G01X2501900Y6661338D03*
G01X2667000Y7658100D03*
G01X3690000Y6140602D03*
G01X4457700Y6350000D03*
G01X5067300Y6000902D03*
G01X3390900Y8064500D03*
G01X3987800Y8318500D03*
G01X5181600Y8128000D03*
G01X5638800Y8089900D03*
G01X5092700Y7115560D03*
G01X5092700Y6952828D03*
G01X5092700Y6797275D03*
G01X5092700Y6651105D03*
G01X3289300Y6985000D03*
G04 Via End*

G04 Track Start*
G54D11*
G01X3734445Y6667681D02*
G01X3790345Y6667681D01*
G01X4496927Y6649900D02*
G01X4962363Y7115337D01*
G01X3790345Y6667681D02*
G01X3808125Y6649900D01*
G01X4496927Y6649900D01*
G01X5003003Y7098503D02*
G01X5003003Y7370134D01*
G01X4513760Y6609260D02*
G01X5003003Y7098503D01*
G01X3807480Y6609260D02*
G01X4513760Y6609260D01*
G01X3789700Y6591480D02*
G01X3807480Y6609260D01*
G01X3733800Y6591480D02*
G01X3789700Y6591480D01*
G01X4948112Y7425025D02*
G01X4812483Y7425025D01*
G01X5003003Y7370134D02*
G01X4948112Y7425025D01*
G01X4962363Y7115337D02*
G01X4962363Y7305837D01*
G01X4919375Y7348825D01*
G01X4812483Y7348825D01*
G04 Track End*

M02*

